<?xml version="1.0" encoding="UTF-8"?>
<svg id="Layer_2" data-name="Layer 2" xmlns="http://www.w3.org/2000/svg" xmlns:xlink="http://www.w3.org/1999/xlink" viewBox="0 0 516.53 505.18">
  <defs>
    <style>
      .cls-1 {
        fill: #e3d8ba;
      }

      .cls-2, .cls-3 {
        fill: #639589;
      }

      .cls-3, .cls-4, .cls-5, .cls-6, .cls-7, .cls-8 {
        stroke-miterlimit: 10;
      }

      .cls-3, .cls-4, .cls-8 {
        stroke: #f4b65a;
      }

      .cls-9, .cls-5 {
        fill: #f5b75a;
      }

      .cls-4, .cls-5, .cls-6 {
        stroke-width: 2px;
      }

      .cls-4, .cls-6, .cls-10, .cls-11, .cls-7, .cls-8 {
        fill: none;
      }

      .cls-5, .cls-6, .cls-7 {
        stroke: #639589;
      }

      .cls-11 {
        clip-path: url(#clippath);
      }

      .cls-7, .cls-8 {
        stroke-width: 3px;
      }
    </style>
    <clipPath id="clippath">
      <rect class="cls-10" x="470.16" y="323.52" width="32.74" height="103.86"/>
    </clipPath>
  </defs>
  <g id="Layer_1-2" data-name="Layer 1">
    <rect class="cls-1" width="516.53" height="505.18"/>
    <g>
      <rect class="cls-2" x="7.13" y="449.06" width="45.39" height="45.39"/>
      <g>
        <rect class="cls-1" x="45.34" y="472.7" width="6.65" height="6.65" transform="translate(524.68 427.36) rotate(90)"/>
        <rect class="cls-1" x="38.69" y="479.34" width="6.65" height="6.65" transform="translate(524.68 440.65) rotate(90)"/>
        <rect class="cls-1" x="32.04" y="485.99" width="6.65" height="6.65" transform="translate(524.68 453.95) rotate(90)"/>
        <rect class="cls-1" x="20.97" y="448.33" width="6.65" height="6.65" transform="translate(475.95 427.36) rotate(90)"/>
        <rect class="cls-1" x="14.33" y="454.98" width="6.65" height="6.65" transform="translate(475.95 440.65) rotate(90)"/>
        <rect class="cls-1" x="7.68" y="461.62" width="6.65" height="6.65" transform="translate(475.95 453.95) rotate(90)"/>
        <rect class="cls-1" x="45.34" y="462.02" width="6.65" height="6.65" transform="translate(97.33 930.69) rotate(-180)"/>
        <rect class="cls-1" x="38.69" y="455.37" width="6.65" height="6.65" transform="translate(84.03 917.4) rotate(-180)"/>
        <rect class="cls-1" x="32.04" y="448.73" width="6.65" height="6.65" transform="translate(70.74 904.1) rotate(-180)"/>
        <rect class="cls-1" x="20.95" y="485.99" width="6.65" height="6.65" transform="translate(48.56 978.63) rotate(-180)"/>
        <rect class="cls-1" x="14.31" y="479.34" width="6.65" height="6.65" transform="translate(35.26 965.34) rotate(-180)"/>
        <rect class="cls-1" x="26.5" y="467.15" width="6.65" height="6.65" transform="translate(59.65 940.95) rotate(-180)"/>
        <rect class="cls-1" x="7.66" y="472.7" width="6.65" height="6.65" transform="translate(21.96 952.04) rotate(-180)"/>
      </g>
    </g>
    <g>
      <rect class="cls-2" x="7.13" y="9.48" width="45.39" height="45.39"/>
      <g>
        <rect class="cls-1" x="45.34" y="33.11" width="6.65" height="6.65" transform="translate(85.1 -12.23) rotate(90)"/>
        <rect class="cls-1" x="38.69" y="39.76" width="6.65" height="6.65" transform="translate(85.1 1.07) rotate(90)"/>
        <rect class="cls-1" x="32.04" y="46.41" width="6.65" height="6.65" transform="translate(85.1 14.37) rotate(90)"/>
        <rect class="cls-1" x="20.97" y="8.75" width="6.65" height="6.65" transform="translate(36.37 -12.23) rotate(90)"/>
        <rect class="cls-1" x="14.33" y="15.4" width="6.65" height="6.65" transform="translate(36.37 1.07) rotate(90)"/>
        <rect class="cls-1" x="7.68" y="22.04" width="6.65" height="6.65" transform="translate(36.37 14.37) rotate(90)"/>
        <rect class="cls-1" x="45.34" y="22.44" width="6.65" height="6.65" transform="translate(97.33 51.53) rotate(-180)"/>
        <rect class="cls-1" x="38.69" y="15.79" width="6.65" height="6.65" transform="translate(84.03 38.24) rotate(-180)"/>
        <rect class="cls-1" x="32.04" y="9.15" width="6.65" height="6.65" transform="translate(70.74 24.94) rotate(-180)"/>
        <rect class="cls-1" x="20.95" y="46.41" width="6.65" height="6.65" transform="translate(48.56 99.47) rotate(-180)"/>
        <rect class="cls-1" x="14.31" y="39.76" width="6.65" height="6.65" transform="translate(35.26 86.17) rotate(-180)"/>
        <rect class="cls-1" x="26.5" y="27.57" width="6.65" height="6.65" transform="translate(59.65 61.79) rotate(-180)"/>
        <rect class="cls-1" x="7.66" y="33.11" width="6.65" height="6.65" transform="translate(21.96 72.88) rotate(-180)"/>
      </g>
    </g>
    <g>
      <rect class="cls-2" x="463.83" y="449.06" width="45.39" height="45.39"/>
      <g>
        <rect class="cls-1" x="502.05" y="472.7" width="6.65" height="6.65" transform="translate(981.39 -29.35) rotate(90)"/>
        <rect class="cls-1" x="495.4" y="479.34" width="6.65" height="6.65" transform="translate(981.39 -16.05) rotate(90)"/>
        <rect class="cls-1" x="488.75" y="485.99" width="6.65" height="6.65" transform="translate(981.39 -2.76) rotate(90)"/>
        <rect class="cls-1" x="477.68" y="448.33" width="6.65" height="6.65" transform="translate(932.66 -29.35) rotate(90)"/>
        <rect class="cls-1" x="471.03" y="454.98" width="6.65" height="6.65" transform="translate(932.66 -16.05) rotate(90)"/>
        <rect class="cls-1" x="464.38" y="461.62" width="6.65" height="6.65" transform="translate(932.66 -2.76) rotate(90)"/>
        <rect class="cls-1" x="502.05" y="462.02" width="6.65" height="6.65" transform="translate(1010.74 930.69) rotate(-180)"/>
        <rect class="cls-1" x="495.4" y="455.37" width="6.65" height="6.65" transform="translate(997.44 917.4) rotate(-180)"/>
        <rect class="cls-1" x="488.75" y="448.73" width="6.65" height="6.65" transform="translate(984.15 904.1) rotate(-180)"/>
        <rect class="cls-1" x="477.66" y="485.99" width="6.65" height="6.65" transform="translate(961.97 978.63) rotate(-180)"/>
        <rect class="cls-1" x="471.01" y="479.34" width="6.65" height="6.65" transform="translate(948.67 965.34) rotate(-180)"/>
        <rect class="cls-1" x="483.2" y="467.15" width="6.65" height="6.65" transform="translate(973.06 940.95) rotate(-180)"/>
        <rect class="cls-1" x="464.36" y="472.7" width="6.65" height="6.65" transform="translate(935.37 952.04) rotate(-180)"/>
      </g>
    </g>
    <g>
      <rect class="cls-2" x="463.83" y="9.48" width="45.39" height="45.39"/>
      <g>
        <rect class="cls-1" x="502.05" y="33.11" width="6.65" height="6.65" transform="translate(541.81 -468.93) rotate(90)"/>
        <rect class="cls-1" x="495.4" y="39.76" width="6.65" height="6.65" transform="translate(541.81 -455.63) rotate(90)"/>
        <rect class="cls-1" x="488.75" y="46.41" width="6.65" height="6.65" transform="translate(541.81 -442.34) rotate(90)"/>
        <rect class="cls-1" x="477.68" y="8.75" width="6.65" height="6.65" transform="translate(493.07 -468.93) rotate(90)"/>
        <rect class="cls-1" x="471.03" y="15.4" width="6.65" height="6.65" transform="translate(493.07 -455.63) rotate(90)"/>
        <rect class="cls-1" x="464.38" y="22.04" width="6.65" height="6.65" transform="translate(493.07 -442.34) rotate(90)"/>
        <rect class="cls-1" x="502.05" y="22.44" width="6.65" height="6.65" transform="translate(1010.74 51.53) rotate(-180)"/>
        <rect class="cls-1" x="495.4" y="15.79" width="6.65" height="6.65" transform="translate(997.44 38.24) rotate(-180)"/>
        <rect class="cls-1" x="488.75" y="9.15" width="6.65" height="6.65" transform="translate(984.15 24.94) rotate(-180)"/>
        <rect class="cls-1" x="477.66" y="46.41" width="6.65" height="6.65" transform="translate(961.97 99.47) rotate(-180)"/>
        <rect class="cls-1" x="471.01" y="39.76" width="6.65" height="6.65" transform="translate(948.67 86.17) rotate(-180)"/>
        <rect class="cls-1" x="483.2" y="27.57" width="6.65" height="6.65" transform="translate(973.06 61.79) rotate(-180)"/>
        <rect class="cls-1" x="464.36" y="33.11" width="6.65" height="6.65" transform="translate(935.37 72.88) rotate(-180)"/>
      </g>
    </g>
    <path class="cls-2" d="m32.04,432.74h4.71l1.93-1.93v-4.71h4.71l1.93-1.93v-4.71h4.71l2.22-2.22-1.8-1.8h-5.13v-5.13l-1.52-1.52h-5.13v-5.13l-1.52-1.52h-5.13v-5.13l-2.22-2.22-2.2,2.2v4.75h-4.75l-1.89,1.89v4.75h-4.75l-1.89,1.89v4.75h-4.75l-2.2,2.2,2.22,2.22h4.71v4.71l1.93,1.93h4.71v4.71l1.93,1.93h4.71v4.71l2.22,2.22,2.22-2.22v-4.71Zm-5.55-12.19v-6.65h6.65v6.65h-6.65Z"/>
    <path class="cls-9" d="m30.94,101.5h4.71l1.93-1.93v-4.71h4.71l1.93-1.93v-4.71h4.71l2.22-2.22-1.8-1.8h-5.13v-5.13l-1.52-1.52h-5.13v-5.13l-1.52-1.52h-5.13v-5.13l-2.22-2.22-2.2,2.2v4.75h-4.75l-1.89,1.89v4.75h-4.75l-1.89,1.89v4.75h-4.75l-2.2,2.2,2.22,2.22h4.71v4.71l1.93,1.93h4.71v4.71l1.93,1.93h4.71v4.71l2.22,2.22,2.22-2.22v-4.71Zm-5.55-12.19v-6.65h6.65v6.65h-6.65Z"/>
    <g class="cls-11">
      <g>
        <rect class="cls-2" x="470.16" y="338.54" width="2.41" height="4.83"/>
        <rect class="cls-2" x="470.16" y="378.14" width="2.36" height="4.83"/>
        <rect class="cls-2" x="470.16" y="418.71" width="2.33" height="4.83"/>
        <rect class="cls-2" x="470.16" y="458.3" width="2.27" height="4.83"/>
        <rect class="cls-2" x="500.48" y="338.54" width="2.42" height="4.83"/>
        <rect class="cls-2" x="470.16" y="498.14" width="2.24" height="4.83"/>
        <rect class="cls-2" x="500.34" y="458.3" width="2.56" height="4.83"/>
        <rect class="cls-2" x="500.4" y="418.71" width="2.5" height="4.83"/>
        <rect class="cls-2" x="500.43" y="378.14" width="2.47" height="4.83"/>
        <rect class="cls-2" x="500.31" y="498.14" width="2.59" height="4.83"/>
        <rect class="cls-2" x="483.94" y="478.22" width="4.83" height="4.83"/>
        <rect class="cls-2" x="483.97" y="438.38" width="4.83" height="4.83"/>
        <rect class="cls-2" x="484.03" y="398.79" width="4.83" height="4.83"/>
        <polygon class="cls-2" points="475.2 559.67 475.2 556.25 476.6 554.84 480.03 554.84 480.03 551.42 481.43 550.01 484.86 550.01 484.86 546.59 486.47 544.98 488.07 546.57 488.07 550.03 491.52 550.03 492.9 551.4 492.9 554.86 496.35 554.86 497.73 556.24 497.73 559.69 501.18 559.69 502.78 561.29 501.17 562.9 497.44 562.9 497.44 566.63 496.34 567.73 492.61 567.73 492.61 571.46 491.51 572.56 487.78 572.56 487.78 576.29 486.74 577.33 491.57 577.33 491.57 576.17 492.97 574.76 496.4 574.76 496.4 571.34 497.8 569.93 501.23 569.93 501.23 566.51 502.84 564.89 502.9 564.95 502.9 556.24 502.67 556.47 501.06 554.85 501.06 551.43 497.63 551.43 496.23 550.02 496.23 546.6 492.8 546.6 491.4 545.19 491.4 541.77 487.97 541.77 486.36 540.15 487.97 538.54 491.4 538.54 491.4 535.11 492.8 533.71 496.23 533.71 496.23 530.28 497.63 528.88 501.06 528.88 501.06 525.45 502.67 523.84 502.9 524.07 502.9 516.7 502.73 516.87 501.11 515.26 501.11 511.83 497.69 511.83 496.28 510.43 496.28 507 492.86 507 491.45 505.6 491.45 502.17 488.03 502.17 486.41 500.56 488.03 498.94 491.45 498.94 491.45 495.52 492.86 494.11 496.28 494.11 496.28 490.69 497.69 489.28 501.11 489.28 501.11 485.86 502.73 484.24 502.9 484.42 502.9 476.89 502.76 477.03 501.14 475.42 501.14 471.99 497.72 471.99 496.31 470.59 496.31 467.16 492.89 467.16 491.48 465.76 491.48 462.33 488.06 462.33 486.44 460.72 488.06 459.1 491.48 459.1 491.48 455.68 492.89 454.27 496.31 454.27 496.31 450.85 497.72 449.44 501.14 449.44 501.14 446.02 502.76 444.4 502.9 444.55 502.9 437.35 502.81 437.43 501.2 435.82 501.2 432.4 497.77 432.4 496.37 430.99 496.37 427.57 492.94 427.57 491.54 426.16 491.54 422.74 488.11 422.74 486.5 421.12 488.11 419.51 491.54 419.51 491.54 416.08 492.94 414.68 496.37 414.68 496.37 411.25 497.77 409.85 501.2 409.85 501.2 406.42 502.81 404.81 502.9 404.89 502.9 396.81 502.84 396.87 501.23 395.25 501.23 391.83 497.8 391.83 496.4 390.42 496.4 387 492.97 387 491.57 385.59 491.57 382.17 488.14 382.17 486.53 380.55 488.14 378.94 491.57 378.94 491.57 375.51 492.97 374.11 496.4 374.11 496.4 370.68 497.8 369.28 501.23 369.28 501.23 365.85 502.84 364.24 502.9 364.3 502.9 357.27 502.9 357.27 501.28 355.66 501.28 352.23 497.86 352.23 496.45 350.83 496.45 347.4 493.03 347.4 491.62 346 491.62 342.57 488.2 342.57 486.59 340.96 488.2 339.34 491.62 339.34 491.62 335.92 493.03 334.51 496.45 334.51 496.45 331.09 497.86 329.68 501.28 329.68 501.28 326.26 502.9 324.64 497.5 324.64 497.5 326.38 496.4 327.48 492.67 327.48 492.67 331.21 491.57 332.31 487.84 332.31 487.84 336.04 486.53 337.35 484.91 335.74 484.91 332.31 481.49 332.31 480.08 330.91 480.08 327.48 476.66 327.48 475.25 326.08 475.25 324.64 470.16 324.64 470.16 324.64 471.76 326.24 471.76 329.7 475.21 329.7 476.59 331.07 476.59 334.53 480.04 334.53 481.42 335.9 481.42 339.36 484.87 339.36 486.47 340.96 484.86 342.57 481.13 342.57 481.13 346.3 480.03 347.4 476.3 347.4 476.3 351.13 475.2 352.23 471.47 352.23 471.47 355.96 470.16 357.27 470.16 360.63 471.77 359.02 475.2 359.02 475.2 355.59 476.6 354.19 480.03 354.19 480.03 350.76 481.43 349.36 484.86 349.36 484.86 345.93 486.47 344.32 488.07 345.92 488.07 349.37 491.52 349.37 492.9 350.75 492.9 354.2 496.35 354.2 497.73 355.58 497.73 359.03 501.18 359.03 502.78 360.63 501.17 362.25 497.44 362.25 497.44 365.98 496.34 367.08 492.61 367.08 492.61 370.81 491.51 371.91 487.78 371.91 487.78 375.64 486.47 376.95 484.86 375.33 484.86 371.91 481.43 371.91 480.03 370.5 480.03 367.08 476.6 367.08 475.2 365.67 475.2 362.25 471.77 362.25 470.16 360.63 470.16 364.3 471.7 365.84 471.7 369.29 475.15 369.29 476.53 370.67 476.53 374.12 479.98 374.12 481.36 375.5 481.36 378.95 484.81 378.95 486.41 380.55 484.8 382.17 481.07 382.17 481.07 385.9 479.97 387 476.24 387 476.24 390.73 475.14 391.83 471.41 391.83 471.41 395.56 470.16 396.81 470.16 401.17 471.74 399.59 475.17 399.59 475.17 396.16 476.57 394.76 480 394.76 480 391.33 481.4 389.93 484.83 389.93 484.83 386.5 486.44 384.89 488.04 386.49 488.04 389.94 491.5 389.94 492.87 391.32 492.87 394.77 496.33 394.77 497.7 396.15 497.7 399.6 501.16 399.6 502.76 401.2 501.14 402.82 497.41 402.82 497.41 406.54 496.31 407.65 492.58 407.65 492.58 411.37 491.48 412.48 487.75 412.48 487.75 416.2 486.44 417.51 484.83 415.9 484.83 412.48 481.4 412.48 480 411.07 480 407.65 476.57 407.65 475.17 406.24 475.17 402.82 471.74 402.82 470.16 401.23 470.16 404.89 471.67 406.41 471.67 409.86 475.13 409.86 476.5 411.24 476.5 414.69 479.96 414.69 481.33 416.07 481.33 419.52 484.79 419.52 486.38 421.12 484.77 422.74 481.04 422.74 481.04 426.46 479.94 427.57 476.21 427.57 476.21 431.29 475.11 432.4 471.38 432.4 471.38 436.12 470.16 437.35 470.16 440.71 471.69 439.18 475.11 439.18 475.11 435.76 476.52 434.35 479.94 434.35 479.94 430.93 481.35 429.52 484.77 429.52 484.77 426.1 486.38 424.48 487.98 426.08 487.98 429.54 491.44 429.54 492.81 430.91 492.81 434.37 496.27 434.37 497.64 435.74 497.64 439.2 501.1 439.2 502.7 440.8 501.08 442.41 497.36 442.41 497.36 446.14 496.25 447.24 492.53 447.24 492.53 450.97 491.42 452.07 487.7 452.07 487.7 455.8 486.38 457.11 484.77 455.5 484.77 452.07 481.35 452.07 479.94 450.67 479.94 447.24 476.52 447.24 475.11 445.84 475.11 442.41 471.69 442.41 470.16 440.88 470.16 444.55 471.61 446 471.61 449.46 475.07 449.46 476.44 450.83 476.44 454.29 479.9 454.29 481.27 455.66 481.27 459.12 484.73 459.12 486.33 460.72 484.71 462.33 480.98 462.33 480.98 466.06 479.88 467.16 476.15 467.16 476.15 470.89 475.05 471.99 471.32 471.99 471.32 475.72 470.16 476.89 470.16 480.52 471.66 479.02 475.08 479.02 475.08 475.6 476.49 474.19 479.91 474.19 479.91 470.77 481.32 469.36 484.74 469.36 484.74 465.94 486.36 464.32 487.96 465.92 487.96 469.38 491.41 469.38 492.79 470.75 492.79 474.21 496.24 474.21 497.62 475.58 497.62 479.04 501.07 479.04 502.67 480.64 501.06 482.25 497.33 482.25 497.33 485.98 496.23 487.08 492.5 487.08 492.5 490.81 491.4 491.91 487.67 491.91 487.67 495.64 486.36 496.95 484.74 495.34 484.74 491.91 481.32 491.91 479.91 490.51 479.91 487.08 476.49 487.08 475.08 485.68 475.08 482.25 471.66 482.25 470.16 480.75 470.16 484.42 471.59 485.84 471.59 489.3 475.04 489.3 476.42 490.67 476.42 494.13 479.87 494.13 481.25 495.5 481.25 498.96 484.7 498.96 486.3 500.56 484.68 502.17 480.96 502.17 480.96 505.9 479.85 507 476.13 507 476.13 510.73 475.02 511.83 471.3 511.83 471.3 515.56 470.16 516.7 470.16 520.06 471.6 518.62 475.02 518.62 475.02 515.2 476.43 513.79 479.85 513.79 479.85 510.37 481.26 508.96 484.68 508.96 484.68 505.53 486.3 503.92 487.9 505.52 487.9 508.97 491.35 508.97 492.73 510.35 492.73 513.8 496.18 513.8 497.56 515.18 497.56 518.63 501.01 518.63 502.61 520.23 501 521.85 497.27 521.85 497.27 525.58 496.17 526.68 492.44 526.68 492.44 530.41 491.34 531.51 487.61 531.51 487.61 535.24 486.3 536.55 484.68 534.93 484.68 531.51 481.26 531.51 479.85 530.1 479.85 526.68 476.43 526.68 475.02 525.27 475.02 521.85 471.6 521.85 470.16 520.41 470.16 524.07 471.53 525.44 471.53 528.89 474.98 528.89 476.36 530.27 476.36 533.72 479.81 533.72 481.19 535.1 481.19 538.55 484.64 538.55 486.24 540.15 484.63 541.77 480.9 541.77 480.9 545.5 479.8 546.6 476.07 546.6 476.07 550.33 474.97 551.43 471.24 551.43 471.24 555.16 470.16 556.24 470.16 561.29 471.77 559.67 475.2 559.67"/>
        <rect class="cls-2" x="484.06" y="358.22" width="4.83" height="4.83"/>
        <polygon class="cls-2" points="502.9 324.64 502.9 324.64 502.9 324.64 502.9 324.64"/>
      </g>
    </g>
    <g>
      <polyline class="cls-7" points="53.4 38.72 70.58 17.82 105.23 17.82 121.46 38.03 155.83 37.9"/>
      <polyline class="cls-6" points="71.34 39.57 78.04 39.57 98.23 17.82"/>
      <line class="cls-7" x1="91.89" y1="24.65" x2="81.47" y2="24.87"/>
      <line class="cls-7" x1="90.53" y1="26.12" x2="90.53" y2="33.37"/>
      <line class="cls-7" x1="84.78" y1="32.31" x2="75.86" y2="32.31"/>
      <line class="cls-7" x1="83.1" y1="34.12" x2="82.62" y2="40.67"/>
      <line class="cls-7" x1="95.86" y1="20.38" x2="95.86" y2="26.82"/>
      <rect class="cls-2" x="66.6" y="37.13" width="4.88" height="4.88"/>
      <rect class="cls-2" x="72.38" y="29.87" width="4.88" height="4.88"/>
      <rect class="cls-2" x="76.98" y="22.32" width="4.88" height="4.88"/>
      <rect class="cls-2" x="80.19" y="40.09" width="4.88" height="4.88"/>
      <rect class="cls-2" x="88.09" y="32.31" width="4.88" height="4.88"/>
      <rect class="cls-2" x="93.7" y="25.46" width="4.88" height="4.88"/>
      <polyline class="cls-6" points="118.94 34.9 98.91 34.9 102.91 28.81"/>
      <polyline class="cls-6" points="113.5 26.95 133.52 26.64 138.86 19.63 152.14 19.1 146.75 23.27 153.37 25.19 147.41 28.69 153.06 32.16 138.88 32.16 132.41 27.17"/>
      <path class="cls-6" d="m126.26,19.1c.11-.08,4.61,0,4.61,0l-7.99,7.7-5.38.08,8.76-7.78Z"/>
      <path class="cls-6" d="m124.13,26.92c-.11-.08-4.61,0-4.61,0l7.99,7.7,5.38.08-8.76-7.78Z"/>
    </g>
    <g>
      <polyline class="cls-7" points="155.83 38.72 173.02 17.82 207.67 17.82 223.89 38.03 258.27 37.9"/>
      <polyline class="cls-6" points="173.77 39.57 180.48 39.57 200.67 17.82"/>
      <line class="cls-7" x1="194.33" y1="24.65" x2="183.91" y2="24.87"/>
      <line class="cls-7" x1="192.96" y1="26.12" x2="192.96" y2="33.37"/>
      <line class="cls-7" x1="187.22" y1="32.31" x2="178.29" y2="32.31"/>
      <line class="cls-7" x1="185.54" y1="34.12" x2="185.06" y2="40.67"/>
      <line class="cls-7" x1="198.29" y1="20.38" x2="198.29" y2="26.82"/>
      <rect class="cls-2" x="169.03" y="37.13" width="4.88" height="4.88"/>
      <rect class="cls-2" x="174.81" y="29.87" width="4.88" height="4.88"/>
      <rect class="cls-2" x="179.42" y="22.32" width="4.88" height="4.88"/>
      <rect class="cls-2" x="182.62" y="40.09" width="4.88" height="4.88"/>
      <rect class="cls-2" x="190.52" y="32.31" width="4.88" height="4.88"/>
      <rect class="cls-2" x="196.13" y="25.46" width="4.88" height="4.88"/>
      <polyline class="cls-6" points="221.37 34.9 201.34 34.9 205.34 28.81"/>
      <polyline class="cls-6" points="215.93 26.95 235.95 26.64 241.3 19.63 254.57 19.1 249.19 23.27 255.8 25.19 249.84 28.69 255.49 32.16 241.31 32.16 234.84 27.17"/>
      <path class="cls-6" d="m228.7,19.1c.11-.08,4.61,0,4.61,0l-7.99,7.7-5.38.08,8.76-7.78Z"/>
      <path class="cls-6" d="m226.56,26.92c-.11-.08-4.61,0-4.61,0l7.99,7.7,5.38.08-8.76-7.78Z"/>
    </g>
    <g>
      <polyline class="cls-8" points="258.27 38.72 275.45 17.82 310.1 17.82 326.33 38.03 360.7 37.9"/>
      <polyline class="cls-4" points="276.21 39.57 282.91 39.57 303.1 17.82"/>
      <line class="cls-8" x1="296.76" y1="24.65" x2="286.34" y2="24.87"/>
      <line class="cls-8" x1="295.4" y1="26.12" x2="295.4" y2="33.37"/>
      <line class="cls-8" x1="289.65" y1="32.31" x2="280.73" y2="32.31"/>
      <line class="cls-8" x1="287.97" y1="34.12" x2="287.49" y2="40.67"/>
      <line class="cls-8" x1="300.73" y1="20.38" x2="300.73" y2="26.82"/>
      <rect class="cls-3" x="271.46" y="37.13" width="4.88" height="4.88"/>
      <rect class="cls-3" x="277.25" y="29.87" width="4.88" height="4.88"/>
      <rect class="cls-3" x="281.85" y="22.32" width="4.88" height="4.88"/>
      <rect class="cls-3" x="285.05" y="40.09" width="4.88" height="4.88"/>
      <rect class="cls-3" x="292.96" y="32.31" width="4.88" height="4.88"/>
      <rect class="cls-3" x="298.57" y="25.46" width="4.88" height="4.88"/>
      <polyline class="cls-4" points="323.81 34.9 303.78 34.9 307.78 28.81"/>
      <polyline class="cls-4" points="318.37 26.95 338.39 26.64 343.73 19.63 357.01 19.1 351.62 23.27 358.24 25.19 352.28 28.69 357.93 32.16 343.75 32.16 337.28 27.17"/>
      <path class="cls-4" d="m331.13,19.1c.11-.08,4.61,0,4.61,0l-7.99,7.7-5.38.08,8.76-7.78Z"/>
      <path class="cls-4" d="m329,26.92c-.11-.08-4.61,0-4.61,0l7.99,7.7,5.38.08-8.76-7.78Z"/>
    </g>
    <g>
      <polyline class="cls-7" points="360.7 38.72 377.89 17.82 412.54 17.82 428.76 38.03 463.14 37.9"/>
      <polyline class="cls-6" points="378.64 39.57 385.35 39.57 405.54 17.82"/>
      <line class="cls-7" x1="399.2" y1="24.65" x2="388.77" y2="24.87"/>
      <line class="cls-7" x1="397.83" y1="26.12" x2="397.83" y2="33.37"/>
      <line class="cls-7" x1="392.09" y1="32.31" x2="383.16" y2="32.31"/>
      <line class="cls-7" x1="390.41" y1="34.12" x2="389.93" y2="40.67"/>
      <line class="cls-7" x1="403.16" y1="20.38" x2="403.16" y2="26.82"/>
      <rect class="cls-2" x="373.9" y="37.13" width="4.88" height="4.88"/>
      <rect class="cls-2" x="379.68" y="29.87" width="4.88" height="4.88"/>
      <rect class="cls-2" x="384.29" y="22.32" width="4.88" height="4.88"/>
      <rect class="cls-2" x="387.49" y="40.09" width="4.88" height="4.88"/>
      <rect class="cls-2" x="395.39" y="32.31" width="4.88" height="4.88"/>
      <rect class="cls-2" x="401" y="25.46" width="4.88" height="4.88"/>
      <polyline class="cls-6" points="426.24 34.9 406.21 34.9 410.21 28.81"/>
      <polyline class="cls-6" points="420.8 26.95 440.82 26.64 446.17 19.63 459.44 19.1 454.05 23.27 460.67 25.19 454.71 28.69 460.36 32.16 446.18 32.16 439.71 27.17"/>
      <path class="cls-6" d="m433.57,19.1c.11-.08,4.61,0,4.61,0l-7.99,7.7-5.38.08,8.76-7.78Z"/>
      <path class="cls-6" d="m431.43,26.92c-.11-.08-4.61,0-4.61,0l7.99,7.7,5.38.08-8.76-7.78Z"/>
    </g>
    <g>
      <g>
        <line class="cls-5" x1="486.39" y1="115.1" x2="486.39" y2="54.89"/>
        <g>
          <polyline class="cls-6" points="488.65 114.68 492.67 106.27 498.12 106.27 493.79 114.68 479.18 114.68"/>
          <polyline class="cls-6" points="483.92 114.68 479.9 106.27 474.46 106.27 478.78 114.68 493.39 114.68"/>
        </g>
        <g>
          <polyline class="cls-6" points="488.76 94.27 492.78 85.86 498.22 85.86 493.9 94.27 479.29 94.27"/>
          <polyline class="cls-6" points="484.03 94.27 480.01 85.86 474.56 85.86 478.89 94.27 493.5 94.27"/>
        </g>
        <g>
          <polyline class="cls-6" points="489.13 73.43 493.16 65.02 498.6 65.02 494.28 73.43 479.66 73.43"/>
          <polyline class="cls-6" points="484.41 73.43 480.38 65.02 474.94 65.02 479.26 73.43 493.88 73.43"/>
        </g>
      </g>
      <g>
        <line class="cls-5" x1="486.26" y1="174.45" x2="486.26" y2="114.24"/>
        <g>
          <polyline class="cls-6" points="488.51 174.03 492.54 165.62 497.98 165.62 493.66 174.03 479.05 174.03"/>
          <polyline class="cls-6" points="483.79 174.03 479.77 165.62 474.32 165.62 478.64 174.03 493.26 174.03"/>
        </g>
        <g>
          <polyline class="cls-6" points="488.62 153.62 492.64 145.21 498.09 145.21 493.76 153.62 479.15 153.62"/>
          <polyline class="cls-6" points="483.89 153.62 479.87 145.21 474.43 145.21 478.75 153.62 493.36 153.62"/>
        </g>
        <g>
          <polyline class="cls-6" points="489 132.78 493.02 124.37 498.46 124.37 494.14 132.78 479.53 132.78"/>
          <polyline class="cls-6" points="484.27 132.78 480.25 124.37 474.8 124.37 479.13 132.78 493.74 132.78"/>
        </g>
      </g>
      <g>
        <line class="cls-5" x1="486.26" y1="234.25" x2="486.26" y2="174.03"/>
        <g>
          <polyline class="cls-6" points="488.51 233.82 492.54 225.41 497.98 225.41 493.66 233.82 479.05 233.82"/>
          <polyline class="cls-6" points="483.79 233.82 479.77 225.41 474.32 225.41 478.64 233.82 493.26 233.82"/>
        </g>
        <g>
          <polyline class="cls-6" points="488.62 213.41 492.64 205.01 498.09 205.01 493.76 213.41 479.15 213.41"/>
          <polyline class="cls-6" points="483.89 213.41 479.87 205.01 474.43 205.01 478.75 213.41 493.36 213.41"/>
        </g>
        <g>
          <polyline class="cls-6" points="489 192.57 493.02 184.17 498.46 184.17 494.14 192.57 479.53 192.57"/>
          <polyline class="cls-6" points="484.27 192.57 480.25 184.17 474.8 184.17 479.13 192.57 493.74 192.57"/>
        </g>
      </g>
      <g>
        <line class="cls-5" x1="486.12" y1="294.04" x2="486.12" y2="233.82"/>
        <g>
          <polyline class="cls-6" points="488.38 293.61 492.4 285.21 497.85 285.21 493.52 293.61 478.91 293.61"/>
          <polyline class="cls-6" points="483.65 293.61 479.63 285.21 474.19 285.21 478.51 293.61 493.12 293.61"/>
        </g>
        <g>
          <polyline class="cls-6" points="488.48 273.21 492.51 264.8 497.95 264.8 493.63 273.21 479.02 273.21"/>
          <polyline class="cls-6" points="483.76 273.21 479.74 264.8 474.29 264.8 478.61 273.21 493.23 273.21"/>
        </g>
        <g>
          <polyline class="cls-6" points="488.86 252.37 492.88 243.96 498.33 243.96 494.01 252.37 479.39 252.37"/>
          <polyline class="cls-6" points="484.14 252.37 480.11 243.96 474.67 243.96 478.99 252.37 493.6 252.37"/>
        </g>
      </g>
    </g>
    <g>
      <g>
        <line class="cls-5" x1="29.82" y1="193.23" x2="29.82" y2="133.01"/>
        <g>
          <polyline class="cls-6" points="32.08 192.81 36.1 184.4 41.55 184.4 37.22 192.81 22.61 192.81"/>
          <polyline class="cls-6" points="27.36 192.81 23.33 184.4 17.89 184.4 22.21 192.81 36.82 192.81"/>
        </g>
        <g>
          <polyline class="cls-6" points="32.19 172.4 36.21 163.99 41.65 163.99 37.33 172.4 22.72 172.4"/>
          <polyline class="cls-6" points="27.46 172.4 23.44 163.99 17.99 163.99 22.32 172.4 36.93 172.4"/>
        </g>
        <g>
          <polyline class="cls-6" points="32.56 151.56 36.59 143.15 42.03 143.15 37.71 151.56 23.09 151.56"/>
          <polyline class="cls-6" points="27.84 151.56 23.81 143.15 18.37 143.15 22.69 151.56 37.31 151.56"/>
        </g>
      </g>
      <g>
        <line class="cls-5" x1="29.69" y1="252.58" x2="29.69" y2="192.36"/>
        <g>
          <polyline class="cls-6" points="31.94 252.16 35.97 243.75 41.41 243.75 37.09 252.16 22.48 252.16"/>
          <polyline class="cls-6" points="27.22 252.16 23.2 243.75 17.75 243.75 22.08 252.16 36.69 252.16"/>
        </g>
        <g>
          <polyline class="cls-6" points="32.05 231.75 36.07 223.34 41.52 223.34 37.19 231.75 22.58 231.75"/>
          <polyline class="cls-6" points="27.33 231.75 23.3 223.34 17.86 223.34 22.18 231.75 36.79 231.75"/>
        </g>
        <g>
          <polyline class="cls-6" points="32.43 210.91 36.45 202.5 41.9 202.5 37.57 210.91 22.96 210.91"/>
          <polyline class="cls-6" points="27.7 210.91 23.68 202.5 18.23 202.5 22.56 210.91 37.17 210.91"/>
        </g>
      </g>
      <g>
        <line class="cls-5" x1="29.69" y1="312.37" x2="29.69" y2="252.16"/>
        <g>
          <polyline class="cls-6" points="31.94 311.95 35.97 303.54 41.41 303.54 37.09 311.95 22.48 311.95"/>
          <polyline class="cls-6" points="27.22 311.95 23.2 303.54 17.75 303.54 22.08 311.95 36.69 311.95"/>
        </g>
        <g>
          <polyline class="cls-6" points="32.05 291.54 36.07 283.14 41.52 283.14 37.19 291.54 22.58 291.54"/>
          <polyline class="cls-6" points="27.33 291.54 23.3 283.14 17.86 283.14 22.18 291.54 36.79 291.54"/>
        </g>
        <g>
          <polyline class="cls-6" points="32.43 270.7 36.45 262.29 41.9 262.29 37.57 270.7 22.96 270.7"/>
          <polyline class="cls-6" points="27.7 270.7 23.68 262.29 18.23 262.29 22.56 270.7 37.17 270.7"/>
        </g>
      </g>
      <g>
        <line class="cls-5" x1="29.55" y1="372.17" x2="29.55" y2="311.95"/>
        <g>
          <polyline class="cls-6" points="31.81 371.74 35.83 363.34 41.28 363.34 36.95 371.74 22.34 371.74"/>
          <polyline class="cls-6" points="27.08 371.74 23.06 363.34 17.62 363.34 21.94 371.74 36.55 371.74"/>
        </g>
        <g>
          <polyline class="cls-6" points="31.91 351.34 35.94 342.93 41.38 342.93 37.06 351.34 22.45 351.34"/>
          <polyline class="cls-6" points="27.19 351.34 23.17 342.93 17.72 342.93 22.05 351.34 36.66 351.34"/>
        </g>
        <g>
          <polyline class="cls-6" points="32.29 330.49 36.31 322.09 41.76 322.09 37.44 330.49 22.82 330.49"/>
          <polyline class="cls-6" points="27.57 330.49 23.54 322.09 18.1 322.09 22.42 330.49 37.03 330.49"/>
        </g>
      </g>
    </g>
  </g>
</svg>