<?xml version="1.0" encoding="UTF-8"?>
<svg id="Layer_2" data-name="Layer 2" xmlns="http://www.w3.org/2000/svg" xmlns:xlink="http://www.w3.org/1999/xlink" viewBox="0 0 516.53 505.18">
  <defs>
    <style>
      .cls-1 {
        fill: #e3d8ba;
      }

      .cls-2 {
        fill: #639589;
      }

      .cls-3 {
        fill: #f5b75a;
      }

      .cls-4, .cls-5, .cls-6 {
        fill: none;
      }

      .cls-5 {
        clip-path: url(#clippath);
      }

      .cls-7 {
        fill: #ec6650;
      }

      .cls-6 {
        clip-path: url(#clippath-1);
      }

      .cls-8 {
        fill: #376899;
      }
    </style>
    <clipPath id="clippath">
      <rect class="cls-4" x="467.36" y="297.43" width="37.81" height="119.95"/>
    </clipPath>
    <clipPath id="clippath-1">
      <rect class="cls-4" x="14.24" y="71.39" width="31.75" height="94.89"/>
    </clipPath>
  </defs>
  <g id="Layer_1-2" data-name="Layer 1">
    <rect class="cls-8" width="516.53" height="505.18"/>
    <g>
      <rect class="cls-2" x="5.2" y="449.06" width="45.39" height="45.39"/>
      <g>
        <rect class="cls-1" x="43.42" y="472.7" width="6.65" height="6.65" transform="translate(522.76 429.28) rotate(90)"/>
        <rect class="cls-1" x="36.77" y="479.34" width="6.65" height="6.65" transform="translate(522.76 442.58) rotate(90)"/>
        <rect class="cls-1" x="30.12" y="485.99" width="6.65" height="6.65" transform="translate(522.76 455.87) rotate(90)"/>
        <rect class="cls-1" x="19.05" y="448.33" width="6.65" height="6.65" transform="translate(474.03 429.28) rotate(90)"/>
        <rect class="cls-1" x="12.4" y="454.98" width="6.65" height="6.65" transform="translate(474.03 442.58) rotate(90)"/>
        <rect class="cls-1" x="5.75" y="461.62" width="6.65" height="6.65" transform="translate(474.03 455.87) rotate(90)"/>
        <rect class="cls-1" x="43.42" y="462.02" width="6.65" height="6.65" transform="translate(93.48 930.69) rotate(-180)"/>
        <rect class="cls-1" x="36.77" y="455.37" width="6.65" height="6.65" transform="translate(80.19 917.4) rotate(-180)"/>
        <rect class="cls-1" x="30.12" y="448.73" width="6.65" height="6.65" transform="translate(66.89 904.1) rotate(-180)"/>
        <rect class="cls-1" x="19.03" y="485.99" width="6.65" height="6.65" transform="translate(44.71 978.63) rotate(-180)"/>
        <rect class="cls-1" x="12.38" y="479.34" width="6.65" height="6.65" transform="translate(31.41 965.34) rotate(-180)"/>
        <rect class="cls-1" x="24.57" y="467.15" width="6.65" height="6.65" transform="translate(55.8 940.95) rotate(-180)"/>
        <rect class="cls-1" x="5.73" y="472.7" width="6.65" height="6.65" transform="translate(18.11 952.04) rotate(-180)"/>
      </g>
    </g>
    <g>
      <rect class="cls-2" x="8.53" y="9.48" width="45.39" height="45.39"/>
      <g>
        <rect class="cls-1" x="46.74" y="33.11" width="6.65" height="6.65" transform="translate(86.5 -13.63) rotate(90)"/>
        <rect class="cls-1" x="40.09" y="39.76" width="6.65" height="6.65" transform="translate(86.5 -.33) rotate(90)"/>
        <rect class="cls-1" x="33.44" y="46.41" width="6.65" height="6.65" transform="translate(86.5 12.97) rotate(90)"/>
        <rect class="cls-1" x="22.37" y="8.75" width="6.65" height="6.65" transform="translate(37.77 -13.63) rotate(90)"/>
        <rect class="cls-1" x="15.73" y="15.4" width="6.65" height="6.65" transform="translate(37.77 -.33) rotate(90)"/>
        <rect class="cls-1" x="9.08" y="22.04" width="6.65" height="6.65" transform="translate(37.77 12.97) rotate(90)"/>
        <rect class="cls-1" x="46.74" y="22.44" width="6.65" height="6.65" transform="translate(100.13 51.53) rotate(-180)"/>
        <rect class="cls-1" x="40.09" y="15.79" width="6.65" height="6.65" transform="translate(86.83 38.24) rotate(-180)"/>
        <rect class="cls-1" x="33.44" y="9.15" width="6.65" height="6.65" transform="translate(73.54 24.94) rotate(-180)"/>
        <rect class="cls-1" x="22.35" y="46.41" width="6.65" height="6.65" transform="translate(51.36 99.47) rotate(-180)"/>
        <rect class="cls-1" x="15.71" y="39.76" width="6.65" height="6.65" transform="translate(38.06 86.17) rotate(-180)"/>
        <rect class="cls-1" x="27.9" y="27.57" width="6.65" height="6.65" transform="translate(62.45 61.79) rotate(-180)"/>
        <rect class="cls-1" x="9.06" y="33.11" width="6.65" height="6.65" transform="translate(24.76 72.88) rotate(-180)"/>
      </g>
    </g>
    <g>
      <rect class="cls-2" x="463.03" y="449.06" width="45.39" height="45.39"/>
      <g>
        <rect class="cls-1" x="501.24" y="472.7" width="6.65" height="6.65" transform="translate(980.59 -28.55) rotate(90)"/>
        <rect class="cls-1" x="494.6" y="479.34" width="6.65" height="6.65" transform="translate(980.59 -15.25) rotate(90)"/>
        <rect class="cls-1" x="487.95" y="485.99" width="6.65" height="6.65" transform="translate(980.59 -1.96) rotate(90)"/>
        <rect class="cls-1" x="476.88" y="448.33" width="6.65" height="6.65" transform="translate(931.85 -28.55) rotate(90)"/>
        <rect class="cls-1" x="470.23" y="454.98" width="6.65" height="6.65" transform="translate(931.85 -15.25) rotate(90)"/>
        <rect class="cls-1" x="463.58" y="461.62" width="6.65" height="6.65" transform="translate(931.85 -1.96) rotate(90)"/>
        <rect class="cls-1" x="501.24" y="462.02" width="6.65" height="6.65" transform="translate(1009.14 930.69) rotate(-180)"/>
        <rect class="cls-1" x="494.6" y="455.37" width="6.65" height="6.65" transform="translate(995.84 917.4) rotate(-180)"/>
        <rect class="cls-1" x="487.95" y="448.73" width="6.65" height="6.65" transform="translate(982.54 904.1) rotate(-180)"/>
        <rect class="cls-1" x="476.86" y="485.99" width="6.65" height="6.65" transform="translate(960.36 978.63) rotate(-180)"/>
        <rect class="cls-1" x="470.21" y="479.34" width="6.65" height="6.65" transform="translate(947.07 965.34) rotate(-180)"/>
        <rect class="cls-1" x="482.4" y="467.15" width="6.65" height="6.65" transform="translate(971.45 940.95) rotate(-180)"/>
        <rect class="cls-1" x="463.56" y="472.7" width="6.65" height="6.65" transform="translate(933.77 952.04) rotate(-180)"/>
      </g>
    </g>
    <g>
      <rect class="cls-2" x="465.23" y="9.48" width="45.39" height="45.39"/>
      <g>
        <rect class="cls-1" x="503.45" y="33.11" width="6.65" height="6.65" transform="translate(543.21 -470.33) rotate(90)"/>
        <rect class="cls-1" x="496.8" y="39.76" width="6.65" height="6.65" transform="translate(543.21 -457.03) rotate(90)"/>
        <rect class="cls-1" x="490.15" y="46.41" width="6.65" height="6.65" transform="translate(543.21 -443.74) rotate(90)"/>
        <rect class="cls-1" x="479.08" y="8.75" width="6.65" height="6.65" transform="translate(494.47 -470.33) rotate(90)"/>
        <rect class="cls-1" x="472.43" y="15.4" width="6.65" height="6.65" transform="translate(494.47 -457.03) rotate(90)"/>
        <rect class="cls-1" x="465.78" y="22.04" width="6.65" height="6.65" transform="translate(494.47 -443.74) rotate(90)"/>
        <rect class="cls-1" x="503.45" y="22.44" width="6.65" height="6.65" transform="translate(1013.54 51.53) rotate(-180)"/>
        <rect class="cls-1" x="496.8" y="15.79" width="6.65" height="6.65" transform="translate(1000.24 38.24) rotate(-180)"/>
        <rect class="cls-1" x="490.15" y="9.15" width="6.65" height="6.65" transform="translate(986.95 24.94) rotate(-180)"/>
        <rect class="cls-1" x="479.06" y="46.41" width="6.65" height="6.65" transform="translate(964.77 99.47) rotate(-180)"/>
        <rect class="cls-1" x="472.41" y="39.76" width="6.65" height="6.65" transform="translate(951.47 86.17) rotate(-180)"/>
        <rect class="cls-1" x="484.6" y="27.57" width="6.65" height="6.65" transform="translate(975.86 61.79) rotate(-180)"/>
        <rect class="cls-1" x="465.76" y="33.11" width="6.65" height="6.65" transform="translate(938.17 72.88) rotate(-180)"/>
      </g>
    </g>
    <path class="cls-7" d="m30.12,404.56h4.71l1.93-1.93v-4.71h4.71l1.93-1.93v-4.71h4.71l2.22-2.22-1.8-1.8h-5.13v-5.13l-1.52-1.52h-5.13v-5.13l-1.52-1.52h-5.13v-5.13l-2.22-2.22-2.2,2.2v4.75h-4.75l-1.89,1.89v4.75h-4.75l-1.89,1.89v4.75h-4.75l-2.2,2.2,2.22,2.22h4.71v4.71l1.93,1.93h4.71v4.71l1.93,1.93h4.71v4.71l2.22,2.22,2.22-2.22v-4.71Zm-5.55-12.19v-6.65h6.65v6.65h-6.65Z"/>
    <g>
      <rect class="cls-3" x="107.52" y="53.63" width="6.5" height="3.25"/>
      <rect class="cls-3" x="160.81" y="53.71" width="6.5" height="3.17"/>
      <rect class="cls-3" x="215.42" y="53.75" width="6.5" height="3.13"/>
      <rect class="cls-3" x="268.71" y="53.83" width="6.5" height="3.06"/>
      <rect class="cls-3" x="107.52" y="12.82" width="6.5" height="3.25"/>
      <rect class="cls-3" x="375.63" y="12.82" width="6.5" height="3.56"/>
      <rect class="cls-3" x="322.33" y="53.86" width="6.5" height="3.02"/>
      <rect class="cls-3" x="268.71" y="12.82" width="6.5" height="3.44"/>
      <rect class="cls-3" x="215.42" y="12.82" width="6.5" height="3.37"/>
      <rect class="cls-3" x="160.81" y="12.82" width="6.5" height="3.33"/>
      <rect class="cls-3" x="322.33" y="12.82" width="6.5" height="3.48"/>
      <rect class="cls-3" x="348.82" y="31.91" width="6.5" height="6.5"/>
      <rect class="cls-3" x="295.52" y="31.83" width="6.5" height="6.5"/>
      <polygon class="cls-3" points="414.33 54.81 418.98 54.81 418.98 50.16 420.83 48.31 425.48 48.31 425.48 43.66 427.33 41.81 428.92 41.81 428.92 35.29 427.11 37.1 422.5 37.1 422.5 41.71 420.61 43.6 416 43.6 416 48.21 414.1 50.1 409.49 50.1 409.49 54.71 407.32 56.88 412.25 56.88 414.33 54.81"/>
      <rect class="cls-3" x="241.9" y="31.79" width="6.5" height="6.5"/>
      <rect class="cls-3" x="188.6" y="31.72" width="6.5" height="6.5"/>
      <polygon class="cls-3" points="405.15 50.1 400.54 50.1 398.65 48.21 398.65 43.6 394.04 43.6 392.15 41.71 392.15 37.1 387.54 37.1 385.37 34.93 387.52 32.77 392.17 32.77 392.17 28.13 394.02 26.27 398.67 26.27 398.67 21.62 400.52 19.77 405.17 19.77 405.17 15.12 407.32 12.97 409.49 15.14 409.49 20.16 414.51 20.16 416 21.64 416 26.66 421.01 26.66 422.5 28.14 422.5 33.16 427.52 33.16 428.92 34.57 428.92 28.07 427.35 28.07 425.46 26.18 425.46 21.57 420.85 21.57 418.96 19.68 418.96 15.07 414.35 15.07 412.18 12.89 412.25 12.82 400.52 12.82 400.83 13.13 398.66 15.3 394.05 15.3 394.05 19.91 392.16 21.8 387.55 21.8 387.55 26.41 385.66 28.3 381.05 28.3 381.05 32.91 378.88 35.08 376.7 32.91 376.7 28.3 372.09 28.3 370.2 26.41 370.2 21.8 365.59 21.8 363.7 19.91 363.7 15.3 359.09 15.3 356.92 13.13 357.23 12.82 347.31 12.82 347.54 13.05 345.37 15.22 340.76 15.22 340.76 19.83 338.87 21.72 334.26 21.72 334.26 26.33 332.36 28.22 327.75 28.22 327.75 32.83 325.58 35 323.41 32.83 323.41 28.22 318.8 28.22 316.91 26.33 316.91 21.72 312.3 21.72 310.41 19.83 310.41 15.22 305.8 15.22 303.63 13.05 303.86 12.82 293.72 12.82 293.92 13.01 291.74 15.18 287.13 15.18 287.13 19.79 285.24 21.68 280.63 21.68 280.63 26.29 278.74 28.18 274.13 28.18 274.13 32.79 271.96 34.97 269.79 32.79 269.79 28.18 265.18 28.18 263.29 26.29 263.29 21.68 258.68 21.68 256.79 19.79 256.79 15.18 252.18 15.18 250 13.01 250.2 12.82 240.51 12.82 240.62 12.93 238.45 15.1 233.84 15.1 233.84 19.71 231.95 21.61 227.34 21.61 227.34 26.22 225.45 28.11 220.84 28.11 220.84 32.72 218.67 34.89 216.49 32.72 216.49 28.11 211.88 28.11 209.99 26.22 209.99 21.61 205.38 21.61 203.49 19.71 203.49 15.1 198.88 15.1 196.71 12.93 196.83 12.82 185.94 12.82 186.02 12.89 183.85 15.07 179.24 15.07 179.24 19.68 177.35 21.57 172.74 21.57 172.74 26.18 170.85 28.07 166.24 28.07 166.24 32.68 164.06 34.85 161.89 32.68 161.89 28.07 157.28 28.07 155.39 26.18 155.39 21.57 150.78 21.57 148.89 19.68 148.89 15.07 144.28 15.07 142.11 12.89 142.18 12.82 132.73 12.82 132.73 12.82 130.55 14.99 125.94 14.99 125.94 19.6 124.05 21.49 119.44 21.49 119.44 26.1 117.55 27.99 112.94 27.99 112.94 32.6 110.77 34.77 108.6 32.6 108.6 27.99 103.99 27.99 102.1 26.1 102.1 21.49 97.49 21.49 95.59 19.6 95.59 14.99 90.98 14.99 88.81 12.82 88.81 20.08 91.15 20.08 92.63 21.57 92.63 26.59 97.65 26.59 99.13 28.07 99.13 33.09 104.15 33.09 105.91 34.85 103.74 37.02 99.13 37.02 99.13 41.63 97.24 43.52 92.63 43.52 92.63 48.13 90.74 50.02 88.81 50.02 88.81 56.88 88.81 56.88 90.97 54.73 95.61 54.73 95.61 50.08 97.47 48.23 102.12 48.23 102.12 43.58 103.97 41.73 108.62 41.73 108.62 37.08 110.77 34.93 112.94 37.1 112.94 42.12 117.96 42.12 119.44 43.6 119.44 48.62 124.46 48.62 125.94 50.1 125.94 55.12 130.96 55.12 132.73 56.88 137.25 56.88 135.08 54.71 135.08 50.1 130.47 50.1 128.58 48.21 128.58 43.6 123.97 43.6 122.08 41.71 122.08 37.1 117.47 37.1 115.3 34.93 117.45 32.77 122.1 32.77 122.1 28.13 123.95 26.27 128.6 26.27 128.6 21.62 130.45 19.77 135.1 19.77 135.1 15.12 137.25 12.97 139.43 15.14 139.43 20.16 144.44 20.16 145.93 21.64 145.93 26.66 150.95 26.66 152.43 28.14 152.43 33.16 157.45 33.16 159.21 34.93 157.04 37.1 152.43 37.1 152.43 41.71 150.54 43.6 145.93 43.6 145.93 48.21 144.04 50.1 139.43 50.1 139.43 54.71 137.25 56.88 142.18 56.88 144.26 54.81 148.91 54.81 148.91 50.16 150.76 48.31 155.41 48.31 155.41 43.66 157.26 41.81 161.91 41.81 161.91 37.16 164.06 35 166.24 37.18 166.24 42.2 171.25 42.2 172.74 43.68 172.74 48.7 177.76 48.7 179.24 50.18 179.24 55.2 184.26 55.2 185.94 56.88 191.82 56.88 189.68 54.75 189.68 50.14 185.07 50.14 183.18 48.25 183.18 43.64 178.57 43.64 176.68 41.75 176.68 37.14 172.07 37.14 169.9 34.97 172.05 32.81 176.7 32.81 176.7 28.16 178.55 26.31 183.2 26.31 183.2 21.66 185.05 19.81 189.7 19.81 189.7 15.16 191.86 13.01 194.03 15.18 194.03 20.2 199.05 20.2 200.53 21.68 200.53 26.7 205.55 26.7 207.03 28.18 207.03 33.2 212.05 33.2 213.81 34.97 211.64 37.14 207.03 37.14 207.03 41.75 205.14 43.64 200.53 43.64 200.53 48.25 198.64 50.14 194.03 50.14 194.03 54.75 191.89 56.88 196.83 56.88 198.86 54.85 203.51 54.85 203.51 50.2 205.36 48.35 210.01 48.35 210.01 43.7 211.86 41.84 216.51 41.84 216.51 37.2 218.67 35.04 220.84 37.22 220.84 42.23 225.86 42.23 227.34 43.72 227.34 48.74 232.36 48.74 233.84 50.22 233.84 55.24 238.86 55.24 240.51 56.88 245.03 56.88 242.98 54.83 242.98 50.22 238.37 50.22 236.48 48.33 236.48 43.72 231.87 43.72 229.98 41.83 229.98 37.22 225.37 37.22 223.19 35.04 225.35 32.89 230 32.89 230 28.24 231.85 26.39 236.5 26.39 236.5 21.74 238.35 19.89 243 19.89 243 15.24 245.15 13.09 247.32 15.26 247.32 20.28 252.34 20.28 253.82 21.76 253.82 26.78 258.84 26.78 260.32 28.26 260.32 33.28 265.34 33.28 267.11 35.04 264.93 37.22 260.32 37.22 260.32 41.83 258.43 43.72 253.82 43.72 253.82 48.33 251.93 50.22 247.32 50.22 247.32 54.83 245.27 56.88 250.2 56.88 252.16 54.92 256.81 54.92 256.81 50.28 258.66 48.42 263.31 48.42 263.31 43.77 265.16 41.92 269.81 41.92 269.81 37.27 271.96 35.12 274.13 37.29 274.13 42.31 279.15 42.31 280.63 43.79 280.63 48.81 285.65 48.81 287.13 50.29 287.13 55.31 292.15 55.31 293.72 56.88 298.62 56.88 296.6 54.87 296.6 50.26 291.99 50.26 290.1 48.36 290.1 43.75 285.49 43.75 283.6 41.86 283.6 37.25 278.99 37.25 276.81 35.08 278.97 32.93 283.62 32.93 283.62 28.28 285.47 26.43 290.12 26.43 290.12 21.78 291.97 19.93 296.62 19.93 296.62 15.28 298.77 13.13 300.94 15.3 300.94 20.32 305.96 20.32 307.44 21.8 307.44 26.82 312.46 26.82 313.95 28.3 313.95 33.32 318.96 33.32 320.73 35.08 318.56 37.25 313.95 37.25 313.95 41.86 312.05 43.75 307.44 43.75 307.44 48.36 305.55 50.26 300.94 50.26 300.94 54.87 298.93 56.88 303.86 56.88 305.78 54.96 310.43 54.96 310.43 50.31 312.28 48.46 316.93 48.46 316.93 43.81 318.78 41.96 323.43 41.96 323.43 37.31 325.58 35.16 327.75 37.33 327.75 42.35 332.77 42.35 334.26 43.83 334.26 48.85 339.27 48.85 340.76 50.33 340.76 55.35 345.77 55.35 347.31 56.88 351.83 56.88 349.89 54.94 349.89 50.33 345.28 50.33 343.39 48.44 343.39 43.83 338.78 43.83 336.89 41.94 336.89 37.33 332.28 37.33 330.11 35.16 332.26 33.01 336.91 33.01 336.91 28.36 338.76 26.51 343.41 26.51 343.41 21.86 345.26 20 349.91 20 349.91 15.36 352.07 13.2 354.24 15.37 354.24 20.39 359.26 20.39 360.74 21.88 360.74 26.89 365.76 26.89 367.24 28.38 367.24 33.4 372.26 33.4 374.02 35.16 371.85 37.33 367.24 37.33 367.24 41.94 365.35 43.83 360.74 43.83 360.74 48.44 358.85 50.33 354.24 50.33 354.24 54.94 352.3 56.88 357.23 56.88 359.07 55.04 363.72 55.04 363.72 50.39 365.57 48.54 370.22 48.54 370.22 43.89 372.07 42.04 376.72 42.04 376.72 37.39 378.88 35.24 381.05 37.41 381.05 42.43 386.07 42.43 387.55 43.91 387.55 48.93 392.57 48.93 394.05 50.41 394.05 55.43 399.07 55.43 400.52 56.88 407.32 56.88 405.15 54.71 405.15 50.1"/>
      <rect class="cls-3" x="134" y="31.68" width="6.5" height="6.5"/>
      <rect class="cls-3" x="404.07" y="31.68" width="6.5" height="6.5"/>
      <polygon class="cls-3" points="88.81 12.82 88.81 12.82 88.81 12.82 88.81 12.82"/>
      <rect class="cls-3" x="375.63" y="53.94" width="6.5" height="2.94"/>
    </g>
    <g>
      <g>
        <rect class="cls-7" x="493.1" y="273.72" width="6.81" height="6.81" transform="translate(-50.54 432.25) rotate(-45)"/>
        <rect class="cls-7" x="483.47" y="273.72" width="6.81" height="6.81" transform="translate(-53.36 425.44) rotate(-45)"/>
        <rect class="cls-7" x="473.84" y="273.72" width="6.81" height="6.81" transform="translate(-56.18 418.63) rotate(-45)"/>
        <rect class="cls-7" x="493.1" y="238.44" width="6.81" height="6.81" transform="translate(-25.58 421.91) rotate(-45)"/>
        <rect class="cls-7" x="483.47" y="238.44" width="6.81" height="6.81" transform="translate(-28.4 415.11) rotate(-45)"/>
        <rect class="cls-7" x="473.84" y="238.44" width="6.81" height="6.81" transform="translate(-31.22 408.3) rotate(-45)"/>
        <rect class="cls-7" x="500.83" y="266" width="6.81" height="6.81" transform="translate(-42.81 435.45) rotate(-45)"/>
        <rect class="cls-7" x="500.83" y="256.37" width="6.81" height="6.81" transform="translate(-36 432.63) rotate(-45)"/>
        <rect class="cls-7" x="500.83" y="246.74" width="6.81" height="6.81" transform="translate(-29.19 429.81) rotate(-45)"/>
        <rect class="cls-7" x="465.81" y="265.69" width="6.81" height="6.81" transform="translate(-52.85 410.6) rotate(-45)"/>
        <rect class="cls-7" x="465.81" y="256.07" width="6.81" height="6.81" transform="translate(-46.04 407.78) rotate(-45)"/>
        <rect class="cls-7" x="465.81" y="246.44" width="6.81" height="6.81" transform="translate(-39.23 404.96) rotate(-45)"/>
      </g>
      <path class="cls-7" d="m479.26,269.42l2.48,2.48h2.04s2.48-2.48,2.48-2.48l2.48,2.48h2.04s2.48-2.48,2.48-2.48l2.48,2.48h2.34s0-1.9,0-1.9l-2.7-2.7,2.7-2.7v-1.6l-2.7-2.7,2.7-2.7v-1.6s-2.7-2.7-2.7-2.7l2.7-2.7v-2.34h-2.32s-2.5,2.5-2.5,2.5l-2.5-2.5h-2s-2.5,2.5-2.5,2.5l-2.5-2.5h-2s-2.5,2.5-2.5,2.5l-2.5-2.5h-2.32s0,2.34,0,2.34l2.48,2.48-2.48,2.48v2.04s2.48,2.48,2.48,2.48l-2.48,2.48v2.04s2.48,2.48,2.48,2.48l-2.48,2.48v2.34h2.34l2.48-2.48Zm3.5-9.35l3.5-3.5,3.5,3.5-3.5,3.5-3.5-3.5Z"/>
    </g>
    <g>
      <g>
        <rect class="cls-3" x="493.1" y="202.25" width="6.81" height="6.81" transform="translate(0 411.32) rotate(-45)"/>
        <rect class="cls-3" x="483.47" y="202.25" width="6.81" height="6.81" transform="translate(-2.82 404.51) rotate(-45)"/>
        <rect class="cls-3" x="473.84" y="202.25" width="6.81" height="6.81" transform="translate(-5.64 397.7) rotate(-45)"/>
        <rect class="cls-3" x="493.1" y="166.97" width="6.81" height="6.81" transform="translate(24.95 400.98) rotate(-45)"/>
        <rect class="cls-3" x="483.47" y="166.97" width="6.81" height="6.81" transform="translate(22.13 394.17) rotate(-45)"/>
        <rect class="cls-3" x="473.84" y="166.97" width="6.81" height="6.81" transform="translate(19.31 387.37) rotate(-45)"/>
        <rect class="cls-3" x="500.83" y="194.53" width="6.81" height="6.81" transform="translate(7.73 414.52) rotate(-45)"/>
        <rect class="cls-3" x="500.83" y="184.9" width="6.81" height="6.81" transform="translate(14.54 411.7) rotate(-45)"/>
        <rect class="cls-3" x="500.83" y="175.27" width="6.81" height="6.81" transform="translate(21.34 408.88) rotate(-45)"/>
        <rect class="cls-3" x="465.81" y="194.22" width="6.81" height="6.81" transform="translate(-2.31 389.67) rotate(-45)"/>
        <rect class="cls-3" x="465.81" y="184.6" width="6.81" height="6.81" transform="translate(4.5 386.85) rotate(-45)"/>
        <rect class="cls-3" x="465.81" y="174.97" width="6.81" height="6.81" transform="translate(11.3 384.03) rotate(-45)"/>
      </g>
      <path class="cls-3" d="m479.26,197.95l2.48,2.48h2.04s2.48-2.48,2.48-2.48l2.48,2.48h2.04s2.48-2.48,2.48-2.48l2.48,2.48h2.34s0-1.9,0-1.9l-2.7-2.7,2.7-2.7v-1.6l-2.7-2.7,2.7-2.7v-1.6s-2.7-2.7-2.7-2.7l2.7-2.7v-2.34h-2.32s-2.5,2.5-2.5,2.5l-2.5-2.5h-2s-2.5,2.5-2.5,2.5l-2.5-2.5h-2s-2.5,2.5-2.5,2.5l-2.5-2.5h-2.32s0,2.34,0,2.34l2.48,2.48-2.48,2.48v2.04s2.48,2.48,2.48,2.48l-2.48,2.48v2.04s2.48,2.48,2.48,2.48l-2.48,2.48v2.34h2.34l2.48-2.48Zm3.5-9.35l3.5-3.5,3.5,3.5-3.5,3.5-3.5-3.5Z"/>
    </g>
    <g>
      <g>
        <rect class="cls-2" x="493.1" y="128.53" width="6.81" height="6.81" transform="translate(52.13 389.72) rotate(-45)"/>
        <rect class="cls-2" x="483.47" y="128.53" width="6.81" height="6.81" transform="translate(49.31 382.91) rotate(-45)"/>
        <rect class="cls-2" x="473.84" y="128.53" width="6.81" height="6.81" transform="translate(46.49 376.11) rotate(-45)"/>
        <rect class="cls-2" x="493.1" y="93.24" width="6.81" height="6.81" transform="translate(77.08 379.39) rotate(-45)"/>
        <rect class="cls-2" x="483.47" y="93.24" width="6.81" height="6.81" transform="translate(74.26 372.58) rotate(-45)"/>
        <rect class="cls-2" x="473.84" y="93.24" width="6.81" height="6.81" transform="translate(71.44 365.77) rotate(-45)"/>
        <rect class="cls-2" x="500.83" y="120.8" width="6.81" height="6.81" transform="translate(59.86 392.92) rotate(-45)"/>
        <rect class="cls-2" x="500.83" y="111.17" width="6.81" height="6.81" transform="translate(66.67 390.1) rotate(-45)"/>
        <rect class="cls-2" x="500.83" y="101.54" width="6.81" height="6.81" transform="translate(73.48 387.28) rotate(-45)"/>
        <rect class="cls-2" x="465.81" y="120.5" width="6.81" height="6.81" transform="translate(49.82 368.08) rotate(-45)"/>
        <rect class="cls-2" x="465.81" y="110.87" width="6.81" height="6.81" transform="translate(56.63 365.26) rotate(-45)"/>
        <rect class="cls-2" x="465.81" y="101.24" width="6.81" height="6.81" transform="translate(63.43 362.44) rotate(-45)"/>
      </g>
      <path class="cls-2" d="m479.26,124.23l2.48,2.48h2.04s2.48-2.48,2.48-2.48l2.48,2.48h2.04s2.48-2.48,2.48-2.48l2.48,2.48h2.34s0-1.9,0-1.9l-2.7-2.7,2.7-2.7v-1.6l-2.7-2.7,2.7-2.7v-1.6s-2.7-2.7-2.7-2.7l2.7-2.7v-2.34h-2.32s-2.5,2.5-2.5,2.5l-2.5-2.5h-2s-2.5,2.5-2.5,2.5l-2.5-2.5h-2s-2.5,2.5-2.5,2.5l-2.5-2.5h-2.32s0,2.34,0,2.34l2.48,2.48-2.48,2.48v2.04s2.48,2.48,2.48,2.48l-2.48,2.48v2.04s2.48,2.48,2.48,2.48l-2.48,2.48v2.34h2.34l2.48-2.48Zm3.5-9.35l3.5-3.5,3.5,3.5-3.5,3.5-3.5-3.5Z"/>
    </g>
    <path class="cls-3" d="m30.12,322.82h4.71l1.93-1.93v-4.71h4.71l1.93-1.93v-4.71h4.71l2.22-2.22-1.8-1.8h-5.13v-5.13l-1.52-1.52h-5.13v-5.13l-1.52-1.52h-5.13v-5.13l-2.22-2.22-2.2,2.2v4.75h-4.75l-1.89,1.89v4.75h-4.75l-1.89,1.89v4.75h-4.75l-2.2,2.2,2.22,2.22h4.71v4.71l1.93,1.93h4.71v4.71l1.93,1.93h4.71v4.71l2.22,2.22,2.22-2.22v-4.71Zm-5.55-12.19v-6.65h6.65v6.65h-6.65Z"/>
    <path class="cls-2" d="m30.12,241.09h4.71l1.93-1.93v-4.71h4.71l1.93-1.93v-4.71h4.71l2.22-2.22-1.8-1.8h-5.13v-5.13l-1.52-1.52h-5.13v-5.13l-1.52-1.52h-5.13v-5.13l-2.22-2.22-2.2,2.2v4.75h-4.75l-1.89,1.89v4.75h-4.75l-1.89,1.89v4.75h-4.75l-2.2,2.2,2.22,2.22h4.71v4.71l1.93,1.93h4.71v4.71l1.93,1.93h4.71v4.71l2.22,2.22,2.22-2.22v-4.71Zm-5.55-12.19v-6.65h6.65v6.65h-6.65Z"/>
    <g class="cls-5">
      <g>
        <rect class="cls-7" x="467.36" y="314.78" width="2.79" height="5.58"/>
        <rect class="cls-7" x="467.36" y="360.52" width="2.72" height="5.58"/>
        <rect class="cls-7" x="467.36" y="407.37" width="2.69" height="5.58"/>
        <rect class="cls-7" x="467.36" y="453.1" width="2.62" height="5.58"/>
        <rect class="cls-7" x="502.38" y="314.78" width="2.79" height="5.58"/>
        <rect class="cls-7" x="467.36" y="499.12" width="2.59" height="5.58"/>
        <rect class="cls-7" x="502.22" y="453.1" width="2.95" height="5.58"/>
        <rect class="cls-7" x="502.28" y="407.37" width="2.89" height="5.58"/>
        <rect class="cls-7" x="502.32" y="360.52" width="2.86" height="5.58"/>
        <rect class="cls-7" x="502.19" y="499.12" width="2.99" height="5.58"/>
        <rect class="cls-7" x="483.28" y="476.11" width="5.58" height="5.58"/>
        <rect class="cls-7" x="483.31" y="430.1" width="5.58" height="5.58"/>
        <rect class="cls-7" x="483.38" y="384.36" width="5.58" height="5.58"/>
        <polygon class="cls-7" points="473.18 570.18 473.18 566.23 474.8 564.6 478.76 564.6 478.76 560.65 480.38 559.03 484.34 559.03 484.34 555.07 486.2 553.21 488.05 555.05 488.05 559.04 492.04 559.04 493.63 560.63 493.63 564.62 497.61 564.62 499.2 566.21 499.2 570.2 503.19 570.2 505.04 572.05 503.18 573.91 498.87 573.91 498.87 578.22 497.6 579.49 493.29 579.49 493.29 583.8 492.02 585.07 487.71 585.07 487.71 589.37 486.51 590.58 492.09 590.58 492.09 589.23 493.71 587.61 497.66 587.61 497.66 583.66 499.29 582.03 503.24 582.03 503.24 578.08 505.11 576.21 505.17 576.28 505.17 566.21 504.91 566.48 503.04 564.61 503.04 560.66 499.09 560.66 497.47 559.04 497.47 555.08 493.51 555.08 491.89 553.46 491.89 549.5 487.93 549.5 486.07 547.64 487.93 545.77 491.89 545.77 491.89 541.82 493.51 540.2 497.47 540.2 497.47 536.24 499.09 534.62 503.04 534.62 503.04 530.66 504.91 528.8 505.17 529.06 505.17 520.55 504.97 520.75 503.11 518.88 503.11 514.93 499.15 514.93 497.53 513.3 497.53 509.35 493.58 509.35 491.95 507.73 491.95 503.77 488 503.77 486.13 501.91 488 500.04 491.95 500.04 491.95 496.09 493.58 494.46 497.53 494.46 497.53 490.51 499.15 488.88 503.11 488.88 503.11 484.93 504.97 483.06 505.17 483.26 505.17 474.57 505.01 474.73 503.14 472.87 503.14 468.91 499.19 468.91 497.57 467.29 497.57 463.33 493.61 463.33 491.99 461.71 491.99 457.76 488.03 457.76 486.17 455.89 488.03 454.03 491.99 454.03 491.99 450.07 493.61 448.45 497.57 448.45 497.57 444.49 499.19 442.87 503.14 442.87 503.14 438.92 505.01 437.05 505.17 437.22 505.17 428.9 505.07 429 503.21 427.14 503.21 423.18 499.25 423.18 497.63 421.56 497.63 417.6 493.68 417.6 492.05 415.98 492.05 412.02 488.1 412.02 486.23 410.16 488.1 408.3 492.05 408.3 492.05 404.34 493.68 402.72 497.63 402.72 497.63 398.76 499.25 397.14 503.21 397.14 503.21 393.18 505.07 391.32 505.17 391.42 505.17 382.08 505.11 382.15 503.24 380.28 503.24 376.33 499.29 376.33 497.66 374.7 497.66 370.75 493.71 370.75 492.09 369.13 492.09 365.17 488.13 365.17 486.27 363.31 488.13 361.44 492.09 361.44 492.09 357.49 493.71 355.86 497.66 355.86 497.66 351.91 499.29 350.28 503.24 350.28 503.24 346.33 505.11 344.46 505.17 344.53 505.17 336.41 505.17 336.41 503.31 334.55 503.31 330.59 499.35 330.59 497.73 328.97 497.73 325.02 493.77 325.02 492.15 323.39 492.15 319.44 488.2 319.44 486.33 317.57 488.2 315.71 492.15 315.71 492.15 311.75 493.77 310.13 497.73 310.13 497.73 306.17 499.35 304.55 503.31 304.55 503.31 300.6 505.17 298.73 498.94 298.73 498.94 300.74 497.66 302.01 493.36 302.01 493.36 306.32 492.09 307.59 487.78 307.59 487.78 311.89 486.27 313.41 484.4 311.54 484.4 307.59 480.45 307.59 478.82 305.97 478.82 302.01 474.87 302.01 473.25 300.39 473.25 298.73 467.36 298.73 467.36 298.73 469.21 300.58 469.21 304.57 473.2 304.57 474.78 306.16 474.78 310.15 478.77 310.15 480.36 311.74 480.36 315.73 484.35 315.73 486.2 317.57 484.34 319.44 480.03 319.44 480.03 323.74 478.76 325.02 474.45 325.02 474.45 329.32 473.18 330.59 468.87 330.59 468.87 334.9 467.36 336.41 467.36 340.3 469.22 338.44 473.18 338.44 473.18 334.48 474.8 332.86 478.76 332.86 478.76 328.9 480.38 327.28 484.34 327.28 484.34 323.32 486.2 321.46 488.05 323.31 488.05 327.29 492.04 327.29 493.63 328.88 493.63 332.87 497.61 332.87 499.2 334.46 499.2 338.45 503.19 338.45 505.04 340.3 503.18 342.16 498.87 342.16 498.87 346.47 497.6 347.74 493.29 347.74 493.29 352.05 492.02 353.32 487.71 353.32 487.71 357.63 486.2 359.14 484.34 357.28 484.34 353.32 480.38 353.32 478.76 351.7 478.76 347.74 474.8 347.74 473.18 346.12 473.18 342.16 469.22 342.16 467.36 340.3 467.36 344.53 469.14 346.31 469.14 350.3 473.13 350.3 474.72 351.89 474.72 355.88 478.71 355.88 480.3 357.47 480.3 361.46 484.29 361.46 486.13 363.31 484.27 365.17 479.96 365.17 479.96 369.48 478.69 370.75 474.38 370.75 474.38 375.05 473.11 376.33 468.81 376.33 468.81 380.63 467.36 382.08 467.36 387.12 469.19 385.29 473.15 385.29 473.15 381.33 474.77 379.71 478.72 379.71 478.72 375.76 480.35 374.13 484.3 374.13 484.3 370.18 486.17 368.31 488.01 370.16 488.01 374.15 492 374.15 493.59 375.74 493.59 379.73 497.58 379.73 499.17 381.32 499.17 385.31 503.16 385.31 505.01 387.15 503.14 389.02 498.84 389.02 498.84 393.32 497.57 394.6 493.26 394.6 493.26 398.9 491.99 400.17 487.68 400.17 487.68 404.48 486.17 405.99 484.3 404.13 484.3 400.17 480.35 400.17 478.72 398.55 478.72 394.6 474.77 394.6 473.15 392.97 473.15 389.02 469.19 389.02 467.36 387.19 467.36 391.42 469.11 393.17 469.11 397.16 473.1 397.16 474.69 398.75 474.69 402.73 478.67 402.73 480.26 404.32 480.26 408.31 484.25 408.31 486.1 410.16 484.24 412.02 479.93 412.02 479.93 416.33 478.66 417.6 474.35 417.6 474.35 421.91 473.08 423.18 468.77 423.18 468.77 427.49 467.36 428.9 467.36 432.79 469.12 431.02 473.08 431.02 473.08 427.07 474.7 425.44 478.66 425.44 478.66 421.49 480.28 419.87 484.24 419.87 484.24 415.91 486.1 414.04 487.95 415.89 487.95 419.88 491.94 419.88 493.53 421.47 493.53 425.46 497.52 425.46 499.1 427.05 499.1 431.04 503.09 431.04 504.94 432.89 503.08 434.75 498.77 434.75 498.77 439.06 497.5 440.33 493.19 440.33 493.19 444.64 491.92 445.91 487.61 445.91 487.61 450.21 486.1 451.73 484.24 449.86 484.24 445.91 480.28 445.91 478.66 444.28 478.66 440.33 474.7 440.33 473.08 438.71 473.08 434.75 469.12 434.75 467.36 432.99 467.36 437.22 469.04 438.9 469.04 442.89 473.03 442.89 474.62 444.48 474.62 448.47 478.61 448.47 480.2 450.06 480.2 454.05 484.19 454.05 486.03 455.89 484.17 457.76 479.86 457.76 479.86 462.06 478.59 463.33 474.29 463.33 474.29 467.64 473.01 468.91 468.71 468.91 468.71 473.22 467.36 474.57 467.36 478.77 469.09 477.03 473.05 477.03 473.05 473.08 474.67 471.46 478.62 471.46 478.62 467.5 480.25 465.88 484.2 465.88 484.2 461.92 486.07 460.06 487.91 461.91 487.91 465.89 491.9 465.89 493.49 467.48 493.49 471.47 497.48 471.47 499.07 473.06 499.07 477.05 503.06 477.05 504.91 478.9 503.04 480.76 498.74 480.76 498.74 485.07 497.47 486.34 493.16 486.34 493.16 490.65 491.89 491.92 487.58 491.92 487.58 496.23 486.07 497.74 484.2 495.88 484.2 491.92 480.25 491.92 478.62 490.3 478.62 486.34 474.67 486.34 473.05 484.72 473.05 480.76 469.09 480.76 467.36 479.03 467.36 483.26 469.01 484.91 469.01 488.9 473 488.9 474.59 490.49 474.59 494.48 478.58 494.48 480.16 496.07 480.16 500.06 484.15 500.06 486 501.91 484.14 503.77 479.83 503.77 479.83 508.08 478.56 509.35 474.25 509.35 474.25 513.65 472.98 514.93 468.67 514.93 468.67 519.23 467.36 520.55 467.36 524.43 469.02 522.77 472.98 522.77 472.98 518.81 474.6 517.19 478.56 517.19 478.56 513.23 480.18 511.61 484.14 511.61 484.14 507.65 486 505.79 487.85 507.64 487.85 511.63 491.84 511.63 493.43 513.22 493.43 517.21 497.42 517.21 499.01 518.79 499.01 522.78 502.99 522.78 504.84 524.63 502.98 526.5 498.67 526.5 498.67 530.8 497.4 532.07 493.09 532.07 493.09 536.38 491.82 537.65 487.51 537.65 487.51 541.96 486 543.47 484.14 541.61 484.14 537.65 480.18 537.65 478.56 536.03 478.56 532.07 474.6 532.07 472.98 530.45 472.98 526.5 469.02 526.5 467.36 524.83 467.36 529.06 468.94 530.64 468.94 534.63 472.93 534.63 474.52 536.22 474.52 540.21 478.51 540.21 480.1 541.8 480.1 545.79 484.09 545.79 485.93 547.64 484.07 549.5 479.76 549.5 479.76 553.81 478.49 555.08 474.19 555.08 474.19 559.39 472.91 560.66 468.61 560.66 468.61 564.97 467.36 566.21 467.36 572.05 469.22 570.18 473.18 570.18"/>
        <rect class="cls-7" x="483.41" y="337.51" width="5.58" height="5.58"/>
        <polygon class="cls-7" points="505.17 298.73 505.17 298.73 505.17 298.73 505.17 298.73"/>
      </g>
    </g>
    <g class="cls-6">
      <polygon class="cls-2" points="45.43 91.2 49.04 87.59 30.2 68.75 30.2 84.05 14.9 84.05 11.36 87.59 30.2 106.43 30.2 91.2 45.43 91.2"/>
      <polygon class="cls-2" points="45.1 128.88 48.72 125.26 29.88 106.43 29.88 121.73 14.57 121.73 11.04 125.26 29.88 144.1 29.88 128.88 45.1 128.88"/>
      <polygon class="cls-2" points="45.59 166.56 49.2 162.94 30.36 144.1 30.36 159.41 15.06 159.41 11.53 162.94 30.36 181.78 30.36 166.56 45.59 166.56"/>
    </g>
  </g>
</svg>