<?xml version="1.0" encoding="UTF-8"?>
<svg id="Layer_2" data-name="Layer 2" xmlns="http://www.w3.org/2000/svg" xmlns:xlink="http://www.w3.org/1999/xlink" viewBox="0 0 516.53 505.18">
  <defs>
    <style>
      .cls-1 {
        clip-path: url(#clippath-2);
      }

      .cls-1, .cls-2, .cls-3, .cls-4 {
        fill: none;
      }

      .cls-5 {
        fill: #e3d8ba;
      }

      .cls-6 {
        fill: #639589;
      }

      .cls-7 {
        fill: #f5b75a;
      }

      .cls-3 {
        clip-path: url(#clippath);
      }

      .cls-4 {
        clip-path: url(#clippath-1);
      }
    </style>
    <clipPath id="clippath">
      <rect class="cls-2" x="12.32" y="66.74" width="37.81" height="119.95"/>
    </clipPath>
    <clipPath id="clippath-1">
      <rect class="cls-2" x="473.55" y="364.23" width="24.36" height="72.78"/>
    </clipPath>
    <clipPath id="clippath-2">
      <rect class="cls-2" x="474.39" y="57.65" width="24.36" height="72.78" transform="translate(973.14 188.08) rotate(180)"/>
    </clipPath>
  </defs>
  <g id="Layer_1-2" data-name="Layer 1">
    <rect class="cls-5" width="516.53" height="505.18"/>
    <g>
      <rect class="cls-6" x="5.2" y="449.06" width="45.39" height="45.39"/>
      <g>
        <rect class="cls-5" x="43.42" y="472.7" width="6.65" height="6.65" transform="translate(522.76 429.28) rotate(90)"/>
        <rect class="cls-5" x="36.77" y="479.34" width="6.65" height="6.65" transform="translate(522.76 442.58) rotate(90)"/>
        <rect class="cls-5" x="30.12" y="485.99" width="6.65" height="6.65" transform="translate(522.76 455.87) rotate(90)"/>
        <rect class="cls-5" x="19.05" y="448.33" width="6.65" height="6.65" transform="translate(474.03 429.28) rotate(90)"/>
        <rect class="cls-5" x="12.4" y="454.98" width="6.65" height="6.65" transform="translate(474.03 442.58) rotate(90)"/>
        <rect class="cls-5" x="5.75" y="461.62" width="6.65" height="6.65" transform="translate(474.03 455.87) rotate(90)"/>
        <rect class="cls-5" x="43.42" y="462.02" width="6.65" height="6.65" transform="translate(93.48 930.69) rotate(-180)"/>
        <rect class="cls-5" x="36.77" y="455.37" width="6.65" height="6.65" transform="translate(80.19 917.4) rotate(-180)"/>
        <rect class="cls-5" x="30.12" y="448.73" width="6.65" height="6.65" transform="translate(66.89 904.1) rotate(-180)"/>
        <rect class="cls-5" x="19.03" y="485.99" width="6.65" height="6.65" transform="translate(44.71 978.63) rotate(-180)"/>
        <rect class="cls-5" x="12.38" y="479.34" width="6.65" height="6.65" transform="translate(31.41 965.34) rotate(-180)"/>
        <rect class="cls-5" x="24.57" y="467.15" width="6.65" height="6.65" transform="translate(55.8 940.95) rotate(-180)"/>
        <rect class="cls-5" x="5.73" y="472.7" width="6.65" height="6.65" transform="translate(18.11 952.04) rotate(-180)"/>
      </g>
    </g>
    <g>
      <rect class="cls-6" x="8.53" y="9.48" width="45.39" height="45.39"/>
      <g>
        <rect class="cls-5" x="46.74" y="33.11" width="6.65" height="6.65" transform="translate(86.5 -13.63) rotate(90)"/>
        <rect class="cls-5" x="40.09" y="39.76" width="6.65" height="6.65" transform="translate(86.5 -.33) rotate(90)"/>
        <rect class="cls-5" x="33.44" y="46.41" width="6.65" height="6.65" transform="translate(86.5 12.97) rotate(90)"/>
        <rect class="cls-5" x="22.37" y="8.75" width="6.65" height="6.65" transform="translate(37.77 -13.63) rotate(90)"/>
        <rect class="cls-5" x="15.73" y="15.4" width="6.65" height="6.65" transform="translate(37.77 -.33) rotate(90)"/>
        <rect class="cls-5" x="9.08" y="22.04" width="6.65" height="6.65" transform="translate(37.77 12.97) rotate(90)"/>
        <rect class="cls-5" x="46.74" y="22.44" width="6.65" height="6.65" transform="translate(100.13 51.53) rotate(-180)"/>
        <rect class="cls-5" x="40.09" y="15.79" width="6.65" height="6.65" transform="translate(86.83 38.24) rotate(-180)"/>
        <rect class="cls-5" x="33.44" y="9.15" width="6.65" height="6.65" transform="translate(73.54 24.94) rotate(-180)"/>
        <rect class="cls-5" x="22.35" y="46.41" width="6.65" height="6.65" transform="translate(51.36 99.47) rotate(-180)"/>
        <rect class="cls-5" x="15.71" y="39.76" width="6.65" height="6.65" transform="translate(38.06 86.17) rotate(-180)"/>
        <rect class="cls-5" x="27.9" y="27.57" width="6.65" height="6.65" transform="translate(62.45 61.79) rotate(-180)"/>
        <rect class="cls-5" x="9.06" y="33.11" width="6.65" height="6.65" transform="translate(24.76 72.88) rotate(-180)"/>
      </g>
    </g>
    <g>
      <rect class="cls-6" x="463.03" y="449.06" width="45.39" height="45.39"/>
      <g>
        <rect class="cls-5" x="501.24" y="472.7" width="6.65" height="6.65" transform="translate(980.59 -28.55) rotate(90)"/>
        <rect class="cls-5" x="494.6" y="479.34" width="6.65" height="6.65" transform="translate(980.59 -15.25) rotate(90)"/>
        <rect class="cls-5" x="487.95" y="485.99" width="6.65" height="6.65" transform="translate(980.59 -1.96) rotate(90)"/>
        <rect class="cls-5" x="476.88" y="448.33" width="6.65" height="6.65" transform="translate(931.85 -28.55) rotate(90)"/>
        <rect class="cls-5" x="470.23" y="454.98" width="6.65" height="6.65" transform="translate(931.85 -15.25) rotate(90)"/>
        <rect class="cls-5" x="463.58" y="461.62" width="6.65" height="6.65" transform="translate(931.85 -1.96) rotate(90)"/>
        <rect class="cls-5" x="501.24" y="462.02" width="6.65" height="6.65" transform="translate(1009.14 930.69) rotate(-180)"/>
        <rect class="cls-5" x="494.6" y="455.37" width="6.65" height="6.65" transform="translate(995.84 917.4) rotate(-180)"/>
        <rect class="cls-5" x="487.95" y="448.73" width="6.65" height="6.65" transform="translate(982.54 904.1) rotate(-180)"/>
        <rect class="cls-5" x="476.86" y="485.99" width="6.65" height="6.65" transform="translate(960.36 978.63) rotate(-180)"/>
        <rect class="cls-5" x="470.21" y="479.34" width="6.65" height="6.65" transform="translate(947.07 965.34) rotate(-180)"/>
        <rect class="cls-5" x="482.4" y="467.15" width="6.65" height="6.65" transform="translate(971.45 940.95) rotate(-180)"/>
        <rect class="cls-5" x="463.56" y="472.7" width="6.65" height="6.65" transform="translate(933.77 952.04) rotate(-180)"/>
      </g>
    </g>
    <g>
      <rect class="cls-6" x="465.23" y="9.48" width="45.39" height="45.39"/>
      <g>
        <rect class="cls-5" x="503.45" y="33.11" width="6.65" height="6.65" transform="translate(543.21 -470.33) rotate(90)"/>
        <rect class="cls-5" x="496.8" y="39.76" width="6.65" height="6.65" transform="translate(543.21 -457.03) rotate(90)"/>
        <rect class="cls-5" x="490.15" y="46.41" width="6.65" height="6.65" transform="translate(543.21 -443.74) rotate(90)"/>
        <rect class="cls-5" x="479.08" y="8.75" width="6.65" height="6.65" transform="translate(494.47 -470.33) rotate(90)"/>
        <rect class="cls-5" x="472.43" y="15.4" width="6.65" height="6.65" transform="translate(494.47 -457.03) rotate(90)"/>
        <rect class="cls-5" x="465.78" y="22.04" width="6.65" height="6.65" transform="translate(494.47 -443.74) rotate(90)"/>
        <rect class="cls-5" x="503.45" y="22.44" width="6.65" height="6.65" transform="translate(1013.54 51.53) rotate(-180)"/>
        <rect class="cls-5" x="496.8" y="15.79" width="6.65" height="6.65" transform="translate(1000.24 38.24) rotate(-180)"/>
        <rect class="cls-5" x="490.15" y="9.15" width="6.65" height="6.65" transform="translate(986.95 24.94) rotate(-180)"/>
        <rect class="cls-5" x="479.06" y="46.41" width="6.65" height="6.65" transform="translate(964.77 99.47) rotate(-180)"/>
        <rect class="cls-5" x="472.41" y="39.76" width="6.65" height="6.65" transform="translate(951.47 86.17) rotate(-180)"/>
        <rect class="cls-5" x="484.6" y="27.57" width="6.65" height="6.65" transform="translate(975.86 61.79) rotate(-180)"/>
        <rect class="cls-5" x="465.76" y="33.11" width="6.65" height="6.65" transform="translate(938.17 72.88) rotate(-180)"/>
      </g>
    </g>
    <path class="cls-6" d="m30.12,404.56h4.71l1.93-1.93v-4.71h4.71l1.93-1.93v-4.71h4.71l2.22-2.22-1.8-1.8h-5.13v-5.13l-1.52-1.52h-5.13v-5.13l-1.52-1.52h-5.13v-5.13l-2.22-2.22-2.2,2.2v4.75h-4.75l-1.89,1.89v4.75h-4.75l-1.89,1.89v4.75h-4.75l-2.2,2.2,2.22,2.22h4.71v4.71l1.93,1.93h4.71v4.71l1.93,1.93h4.71v4.71l2.22,2.22,2.22-2.22v-4.71Zm-5.55-12.19v-6.65h6.65v6.65h-6.65Z"/>
    <g>
      <rect class="cls-7" x="125.76" y="45.11" width="5.57" height="2.79"/>
      <rect class="cls-7" x="171.43" y="45.18" width="5.57" height="2.72"/>
      <rect class="cls-7" x="218.23" y="45.21" width="5.57" height="2.69"/>
      <rect class="cls-7" x="263.9" y="45.27" width="5.57" height="2.62"/>
      <rect class="cls-7" x="125.76" y="10.13" width="5.57" height="2.79"/>
      <rect class="cls-7" x="355.53" y="10.13" width="5.57" height="3.05"/>
      <rect class="cls-7" x="309.86" y="45.31" width="5.57" height="2.59"/>
      <rect class="cls-7" x="263.9" y="10.13" width="5.57" height="2.95"/>
      <rect class="cls-7" x="218.23" y="10.13" width="5.57" height="2.88"/>
      <rect class="cls-7" x="171.43" y="10.13" width="5.57" height="2.85"/>
      <rect class="cls-7" x="309.86" y="10.13" width="5.57" height="2.98"/>
      <rect class="cls-7" x="332.55" y="26.49" width="5.57" height="5.57"/>
      <rect class="cls-7" x="286.88" y="26.42" width="5.57" height="5.57"/>
      <polygon class="cls-7" points="388.7 46.12 392.68 46.12 392.68 42.13 394.27 40.54 398.26 40.54 398.26 36.56 399.84 34.97 401.2 34.97 401.2 29.39 399.65 30.94 395.7 30.94 395.7 34.89 394.08 36.51 390.13 36.51 390.13 40.46 388.51 42.08 384.56 42.08 384.56 46.03 382.69 47.89 386.92 47.89 388.7 46.12"/>
      <rect class="cls-7" x="240.92" y="26.39" width="5.57" height="5.57"/>
      <rect class="cls-7" x="195.25" y="26.33" width="5.57" height="5.57"/>
      <polygon class="cls-7" points="380.83 42.08 376.88 42.08 375.26 40.46 375.26 36.51 371.31 36.51 369.69 34.89 369.69 30.94 365.74 30.94 363.88 29.08 365.72 27.23 369.71 27.23 369.71 23.25 371.29 21.66 375.28 21.66 375.28 17.68 376.87 16.09 380.85 16.09 380.85 12.11 382.69 10.26 384.56 12.12 384.56 16.42 388.86 16.42 390.13 17.69 390.13 22 394.43 22 395.7 23.27 395.7 27.57 400 27.57 401.2 28.77 401.2 23.2 399.86 23.2 398.24 21.58 398.24 17.63 394.29 17.63 392.67 16.01 392.67 12.06 388.72 12.06 386.85 10.19 386.92 10.13 376.87 10.13 377.13 10.39 375.27 12.25 371.32 12.25 371.32 16.21 369.7 17.83 365.75 17.83 365.75 21.78 364.13 23.4 360.18 23.4 360.18 27.35 358.32 29.21 356.45 27.35 356.45 23.4 352.5 23.4 350.88 21.78 350.88 17.83 346.93 17.83 345.31 16.21 345.31 12.25 341.36 12.25 339.5 10.39 339.76 10.13 331.26 10.13 331.46 10.33 329.6 12.19 325.65 12.19 325.65 16.14 324.03 17.76 320.07 17.76 320.07 21.71 318.45 23.33 314.5 23.33 314.5 27.28 312.64 29.14 310.78 27.28 310.78 23.33 306.83 23.33 305.21 21.71 305.21 17.76 301.26 17.76 299.64 16.14 299.64 12.19 295.69 12.19 293.82 10.33 294.02 10.13 285.34 10.13 285.5 10.29 283.64 12.16 279.69 12.16 279.69 16.11 278.07 17.73 274.12 17.73 274.12 21.68 272.5 23.3 268.55 23.3 268.55 27.25 266.69 29.11 264.83 27.25 264.83 23.3 260.87 23.3 259.25 21.68 259.25 17.73 255.3 17.73 253.68 16.11 253.68 12.16 249.73 12.16 247.87 10.29 248.04 10.13 239.73 10.13 239.83 10.23 237.97 12.09 234.02 12.09 234.02 16.04 232.4 17.66 228.45 17.66 228.45 21.61 226.83 23.23 222.88 23.23 222.88 27.18 221.01 29.04 219.15 27.18 219.15 23.23 215.2 23.23 213.58 21.61 213.58 17.66 209.63 17.66 208.01 16.04 208.01 12.09 204.06 12.09 202.2 10.23 202.3 10.13 192.97 10.13 193.04 10.19 191.17 12.06 187.22 12.06 187.22 16.01 185.6 17.63 181.65 17.63 181.65 21.58 180.03 23.2 176.08 23.2 176.08 27.15 174.22 29.01 172.36 27.15 172.36 23.2 168.41 23.2 166.79 21.58 166.79 17.63 162.83 17.63 161.21 16.01 161.21 12.06 157.26 12.06 155.4 10.19 155.47 10.13 147.36 10.13 147.36 10.13 145.5 11.99 141.55 11.99 141.55 15.94 139.93 17.56 135.98 17.56 135.98 21.51 134.36 23.13 130.41 23.13 130.41 27.08 128.54 28.95 126.68 27.08 126.68 23.13 122.73 23.13 121.11 21.51 121.11 17.56 117.16 17.56 115.54 15.94 115.54 11.99 111.59 11.99 109.73 10.13 109.73 16.36 111.73 16.36 113 17.63 113 21.93 117.3 21.93 118.57 23.2 118.57 27.5 122.87 27.5 124.38 29.01 122.52 30.87 118.57 30.87 118.57 34.82 116.95 36.44 113 36.44 113 40.4 111.38 42.02 109.73 42.02 109.73 47.89 109.73 47.89 111.57 46.05 115.56 46.05 115.56 42.07 117.14 40.48 121.13 40.48 121.13 36.49 122.71 34.91 126.7 34.91 126.7 30.92 128.54 29.08 130.41 30.94 130.41 35.24 134.71 35.24 135.98 36.51 135.98 40.81 140.28 40.81 141.55 42.08 141.55 46.38 145.85 46.38 147.36 47.89 151.24 47.89 149.38 46.03 149.38 42.08 145.43 42.08 143.81 40.46 143.81 36.51 139.86 36.51 138.24 34.89 138.24 30.94 134.29 30.94 132.42 29.08 134.27 27.23 138.25 27.23 138.25 23.25 139.84 21.66 143.82 21.66 143.82 17.68 145.41 16.09 149.4 16.09 149.4 12.11 151.24 10.26 153.1 12.12 153.1 16.42 157.4 16.42 158.67 17.69 158.67 22 162.98 22 164.25 23.27 164.25 27.57 168.55 27.57 170.06 29.08 168.2 30.94 164.25 30.94 164.25 34.89 162.63 36.51 158.67 36.51 158.67 40.46 157.05 42.08 153.1 42.08 153.1 46.03 151.24 47.89 155.47 47.89 157.25 46.12 161.23 46.12 161.23 42.13 162.82 40.54 166.8 40.54 166.8 36.56 168.39 34.97 172.37 34.97 172.37 30.99 174.22 29.14 176.08 31.01 176.08 35.31 180.38 35.31 181.65 36.58 181.65 40.88 185.95 40.88 187.22 42.15 187.22 46.45 191.52 46.45 192.97 47.89 198 47.89 196.17 46.07 196.17 42.12 192.22 42.12 190.6 40.49 190.6 36.54 186.65 36.54 185.03 34.92 185.03 30.97 181.08 30.97 179.22 29.11 181.06 27.27 185.05 27.27 185.05 23.28 186.64 21.69 190.62 21.69 190.62 17.71 192.21 16.12 196.19 16.12 196.19 12.14 198.04 10.29 199.9 12.16 199.9 16.46 204.2 16.46 205.47 17.73 205.47 22.03 209.77 22.03 211.04 23.3 211.04 27.6 215.34 27.6 216.85 29.11 214.99 30.97 211.04 30.97 211.04 34.92 209.42 36.54 205.47 36.54 205.47 40.49 203.85 42.12 199.9 42.12 199.9 46.07 198.07 47.89 202.3 47.89 204.04 46.15 208.03 46.15 208.03 42.16 209.61 40.58 213.6 40.58 213.6 36.59 215.18 35.01 219.17 35.01 219.17 31.02 221.01 29.18 222.88 31.04 222.88 35.34 227.18 35.34 228.45 36.61 228.45 40.91 232.75 40.91 234.02 42.18 234.02 46.48 238.32 46.48 239.73 47.89 243.61 47.89 241.85 46.13 241.85 42.18 237.9 42.18 236.28 40.56 236.28 36.61 232.33 36.61 230.71 34.99 230.71 31.04 226.75 31.04 224.89 29.18 226.74 27.33 230.72 27.33 230.72 23.35 232.31 21.76 236.29 21.76 236.29 17.78 237.88 16.19 241.87 16.19 241.87 12.21 243.71 10.36 245.57 12.22 245.57 16.52 249.87 16.52 251.14 17.79 251.14 22.09 255.44 22.09 256.71 23.36 256.71 27.67 261.02 27.67 262.53 29.18 260.67 31.04 256.71 31.04 256.71 34.99 255.09 36.61 251.14 36.61 251.14 40.56 249.52 42.18 245.57 42.18 245.57 46.13 243.81 47.89 248.04 47.89 249.72 46.22 253.7 46.22 253.7 42.23 255.29 40.64 259.27 40.64 259.27 36.66 260.86 35.07 264.84 35.07 264.84 31.09 266.69 29.24 268.55 31.1 268.55 35.41 272.85 35.41 274.12 36.68 274.12 40.98 278.42 40.98 279.69 42.25 279.69 46.55 283.99 46.55 285.34 47.89 289.53 47.89 287.8 46.17 287.8 42.21 283.85 42.21 282.23 40.59 282.23 36.64 278.28 36.64 276.66 35.02 276.66 31.07 272.71 31.07 270.85 29.21 272.69 27.37 276.68 27.37 276.68 23.38 278.26 21.79 282.25 21.79 282.25 17.81 283.84 16.22 287.82 16.22 287.82 12.24 289.66 10.39 291.53 12.25 291.53 16.56 295.83 16.56 297.1 17.83 297.1 22.13 301.4 22.13 302.67 23.4 302.67 27.7 306.97 27.7 308.48 29.21 306.62 31.07 302.67 31.07 302.67 35.02 301.05 36.64 297.1 36.64 297.1 40.59 295.48 42.21 291.53 42.21 291.53 46.17 289.8 47.89 294.02 47.89 295.67 46.25 299.65 46.25 299.65 42.26 301.24 40.68 305.23 40.68 305.23 36.69 306.81 35.11 310.8 35.11 310.8 31.12 312.64 29.28 314.5 31.14 314.5 35.44 318.8 35.44 320.07 36.71 320.07 41.01 324.38 41.01 325.65 42.28 325.65 46.58 329.95 46.58 331.26 47.89 335.14 47.89 333.48 46.23 333.48 42.28 329.53 42.28 327.91 40.66 327.91 36.71 323.96 36.71 322.33 35.09 322.33 31.14 318.38 31.14 316.52 29.28 318.37 27.43 322.35 27.43 322.35 23.45 323.94 21.86 327.92 21.86 327.92 17.88 329.51 16.29 333.49 16.29 333.49 12.3 335.34 10.46 337.2 12.32 337.2 16.62 341.5 16.62 342.77 17.89 342.77 22.19 347.07 22.19 348.34 23.46 348.34 27.76 352.64 27.76 354.16 29.28 352.29 31.14 348.34 31.14 348.34 35.09 346.72 36.71 342.77 36.71 342.77 40.66 341.15 42.28 337.2 42.28 337.2 46.23 335.54 47.89 339.76 47.89 341.34 46.31 345.33 46.31 345.33 42.33 346.92 40.74 350.9 40.74 350.9 36.76 352.49 35.17 356.47 35.17 356.47 31.19 358.32 29.34 360.18 31.2 360.18 35.51 364.48 35.51 365.75 36.78 365.75 41.08 370.05 41.08 371.32 42.35 371.32 46.65 375.62 46.65 376.87 47.89 382.69 47.89 380.83 46.03 380.83 42.08"/>
      <rect class="cls-7" x="148.46" y="26.29" width="5.57" height="5.57"/>
      <rect class="cls-7" x="379.91" y="26.29" width="5.57" height="5.57"/>
      <polygon class="cls-7" points="109.73 10.13 109.73 10.13 109.73 10.13 109.73 10.13"/>
      <rect class="cls-7" x="355.53" y="45.37" width="5.57" height="2.52"/>
    </g>
    <g>
      <g>
        <rect class="cls-6" x="489.9" y="332.03" width="6.81" height="6.81" transform="translate(-92.7 447.06) rotate(-45)"/>
        <rect class="cls-6" x="480.27" y="332.03" width="6.81" height="6.81" transform="translate(-95.52 440.26) rotate(-45)"/>
        <rect class="cls-6" x="470.64" y="332.03" width="6.81" height="6.81" transform="translate(-98.34 433.45) rotate(-45)"/>
        <rect class="cls-6" x="489.9" y="296.74" width="6.81" height="6.81" transform="translate(-67.75 436.73) rotate(-45)"/>
        <rect class="cls-6" x="480.27" y="296.74" width="6.81" height="6.81" transform="translate(-70.57 429.92) rotate(-45)"/>
        <rect class="cls-6" x="470.64" y="296.74" width="6.81" height="6.81" transform="translate(-73.39 423.11) rotate(-45)"/>
        <rect class="cls-6" x="497.63" y="324.3" width="6.81" height="6.81" transform="translate(-84.97 450.26) rotate(-45)"/>
        <rect class="cls-6" x="497.63" y="314.67" width="6.81" height="6.81" transform="translate(-78.17 447.44) rotate(-45)"/>
        <rect class="cls-6" x="497.63" y="305.05" width="6.81" height="6.81" transform="translate(-71.36 444.63) rotate(-45)"/>
        <rect class="cls-6" x="462.61" y="324" width="6.81" height="6.81" transform="translate(-95.01 425.42) rotate(-45)"/>
        <rect class="cls-6" x="462.61" y="314.37" width="6.81" height="6.81" transform="translate(-88.21 422.6) rotate(-45)"/>
        <rect class="cls-6" x="462.61" y="304.74" width="6.81" height="6.81" transform="translate(-81.4 419.78) rotate(-45)"/>
      </g>
      <path class="cls-6" d="m476.06,327.73l2.48,2.48h2.04s2.48-2.48,2.48-2.48l2.48,2.48h2.04s2.48-2.48,2.48-2.48l2.48,2.48h2.34s0-1.9,0-1.9l-2.7-2.7,2.7-2.7v-1.6l-2.7-2.7,2.7-2.7v-1.6s-2.7-2.7-2.7-2.7l2.7-2.7v-2.34h-2.32s-2.5,2.5-2.5,2.5l-2.5-2.5h-2s-2.5,2.5-2.5,2.5l-2.5-2.5h-2s-2.5,2.5-2.5,2.5l-2.5-2.5h-2.32s0,2.34,0,2.34l2.48,2.48-2.48,2.48v2.04s2.48,2.48,2.48,2.48l-2.48,2.48v2.04s2.48,2.48,2.48,2.48l-2.48,2.48v2.34h2.34l2.48-2.48Zm3.5-9.35l3.5-3.5,3.5,3.5-3.5,3.5-3.5-3.5Z"/>
    </g>
    <g>
      <g>
        <rect class="cls-7" x="489.9" y="260.56" width="6.81" height="6.81" transform="translate(-42.16 426.13) rotate(-45)"/>
        <rect class="cls-7" x="480.27" y="260.56" width="6.81" height="6.81" transform="translate(-44.98 419.32) rotate(-45)"/>
        <rect class="cls-7" x="470.64" y="260.56" width="6.81" height="6.81" transform="translate(-47.8 412.52) rotate(-45)"/>
        <rect class="cls-7" x="489.9" y="225.27" width="6.81" height="6.81" transform="translate(-17.21 415.8) rotate(-45)"/>
        <rect class="cls-7" x="480.27" y="225.27" width="6.81" height="6.81" transform="translate(-20.03 408.99) rotate(-45)"/>
        <rect class="cls-7" x="470.64" y="225.27" width="6.81" height="6.81" transform="translate(-22.85 402.18) rotate(-45)"/>
        <rect class="cls-7" x="497.63" y="252.83" width="6.81" height="6.81" transform="translate(-34.44 429.33) rotate(-45)"/>
        <rect class="cls-7" x="497.63" y="243.2" width="6.81" height="6.81" transform="translate(-27.63 426.51) rotate(-45)"/>
        <rect class="cls-7" x="497.63" y="233.58" width="6.81" height="6.81" transform="translate(-20.82 423.69) rotate(-45)"/>
        <rect class="cls-7" x="462.61" y="252.53" width="6.81" height="6.81" transform="translate(-44.48 404.49) rotate(-45)"/>
        <rect class="cls-7" x="462.61" y="242.9" width="6.81" height="6.81" transform="translate(-37.67 401.67) rotate(-45)"/>
        <rect class="cls-7" x="462.61" y="233.27" width="6.81" height="6.81" transform="translate(-30.86 398.85) rotate(-45)"/>
      </g>
      <path class="cls-7" d="m476.06,256.26l2.48,2.48h2.04s2.48-2.48,2.48-2.48l2.48,2.48h2.04s2.48-2.48,2.48-2.48l2.48,2.48h2.34s0-1.9,0-1.9l-2.7-2.7,2.7-2.7v-1.6l-2.7-2.7,2.7-2.7v-1.6s-2.7-2.7-2.7-2.7l2.7-2.7v-2.34h-2.32s-2.5,2.5-2.5,2.5l-2.5-2.5h-2s-2.5,2.5-2.5,2.5l-2.5-2.5h-2s-2.5,2.5-2.5,2.5l-2.5-2.5h-2.32s0,2.34,0,2.34l2.48,2.48-2.48,2.48v2.04s2.48,2.48,2.48,2.48l-2.48,2.48v2.04s2.48,2.48,2.48,2.48l-2.48,2.48v2.34h2.34l2.48-2.48Zm3.5-9.35l3.5-3.5,3.5,3.5-3.5,3.5-3.5-3.5Z"/>
    </g>
    <g>
      <g>
        <rect class="cls-6" x="489.9" y="186.83" width="6.81" height="6.81" transform="translate(9.97 404.54) rotate(-45)"/>
        <rect class="cls-6" x="480.27" y="186.83" width="6.81" height="6.81" transform="translate(7.15 397.73) rotate(-45)"/>
        <rect class="cls-6" x="470.64" y="186.83" width="6.81" height="6.81" transform="translate(4.33 390.92) rotate(-45)"/>
        <rect class="cls-6" x="489.9" y="151.55" width="6.81" height="6.81" transform="translate(34.92 394.2) rotate(-45)"/>
        <rect class="cls-6" x="480.27" y="151.55" width="6.81" height="6.81" transform="translate(32.1 387.39) rotate(-45)"/>
        <rect class="cls-6" x="470.64" y="151.55" width="6.81" height="6.81" transform="translate(29.28 380.59) rotate(-45)"/>
        <rect class="cls-6" x="497.63" y="179.1" width="6.81" height="6.81" transform="translate(17.7 407.74) rotate(-45)"/>
        <rect class="cls-6" x="497.63" y="169.48" width="6.81" height="6.81" transform="translate(24.5 404.92) rotate(-45)"/>
        <rect class="cls-6" x="497.63" y="159.85" width="6.81" height="6.81" transform="translate(31.31 402.1) rotate(-45)"/>
        <rect class="cls-6" x="462.61" y="178.8" width="6.81" height="6.81" transform="translate(7.65 382.89) rotate(-45)"/>
        <rect class="cls-6" x="462.61" y="169.17" width="6.81" height="6.81" transform="translate(14.46 380.07) rotate(-45)"/>
        <rect class="cls-6" x="462.61" y="159.55" width="6.81" height="6.81" transform="translate(21.27 377.25) rotate(-45)"/>
      </g>
      <path class="cls-6" d="m476.06,182.53l2.48,2.48h2.04s2.48-2.48,2.48-2.48l2.48,2.48h2.04s2.48-2.48,2.48-2.48l2.48,2.48h2.34s0-1.9,0-1.9l-2.7-2.7,2.7-2.7v-1.6l-2.7-2.7,2.7-2.7v-1.6s-2.7-2.7-2.7-2.7l2.7-2.7v-2.34h-2.32s-2.5,2.5-2.5,2.5l-2.5-2.5h-2s-2.5,2.5-2.5,2.5l-2.5-2.5h-2s-2.5,2.5-2.5,2.5l-2.5-2.5h-2.32s0,2.34,0,2.34l2.48,2.48-2.48,2.48v2.04s2.48,2.48,2.48,2.48l-2.48,2.48v2.04s2.48,2.48,2.48,2.48l-2.48,2.48v2.34h2.34l2.48-2.48Zm3.5-9.35l3.5-3.5,3.5,3.5-3.5,3.5-3.5-3.5Z"/>
    </g>
    <path class="cls-6" d="m30.12,322.82h4.71l1.93-1.93v-4.71h4.71l1.93-1.93v-4.71h4.71l2.22-2.22-1.8-1.8h-5.13v-5.13l-1.52-1.52h-5.13v-5.13l-1.52-1.52h-5.13v-5.13l-2.22-2.22-2.2,2.2v4.75h-4.75l-1.89,1.89v4.75h-4.75l-1.89,1.89v4.75h-4.75l-2.2,2.2,2.22,2.22h4.71v4.71l1.93,1.93h4.71v4.71l1.93,1.93h4.71v4.71l2.22,2.22,2.22-2.22v-4.71Zm-5.55-12.19v-6.65h6.65v6.65h-6.65Z"/>
    <path class="cls-7" d="m30.12,241.09h4.71l1.93-1.93v-4.71h4.71l1.93-1.93v-4.71h4.71l2.22-2.22-1.8-1.8h-5.13v-5.13l-1.52-1.52h-5.13v-5.13l-1.52-1.52h-5.13v-5.13l-2.22-2.22-2.2,2.2v4.75h-4.75l-1.89,1.89v4.75h-4.75l-1.89,1.89v4.75h-4.75l-2.2,2.2,2.22,2.22h4.71v4.71l1.93,1.93h4.71v4.71l1.93,1.93h4.71v4.71l2.22,2.22,2.22-2.22v-4.71Zm-5.55-12.19v-6.65h6.65v6.65h-6.65Z"/>
    <g class="cls-3">
      <g>
        <rect class="cls-6" x="12.32" y="84.09" width="2.79" height="5.58"/>
        <rect class="cls-6" x="12.32" y="129.82" width="2.72" height="5.58"/>
        <rect class="cls-6" x="12.32" y="176.68" width="2.69" height="5.58"/>
        <rect class="cls-6" x="12.32" y="222.41" width="2.62" height="5.58"/>
        <rect class="cls-6" x="47.34" y="84.09" width="2.79" height="5.58"/>
        <rect class="cls-6" x="47.08" y="314.16" width="3.05" height="5.58"/>
        <rect class="cls-6" x="12.32" y="268.42" width="2.59" height="5.58"/>
        <rect class="cls-6" x="47.18" y="222.41" width="2.95" height="5.58"/>
        <rect class="cls-6" x="47.24" y="176.68" width="2.89" height="5.58"/>
        <rect class="cls-6" x="47.27" y="129.82" width="2.86" height="5.58"/>
        <rect class="cls-6" x="47.14" y="268.42" width="2.99" height="5.58"/>
        <rect class="cls-6" x="28.17" y="291.15" width="5.58" height="5.58"/>
        <rect class="cls-6" x="28.24" y="245.42" width="5.58" height="5.58"/>
        <polygon class="cls-6" points="14.1 347.37 14.1 351.36 18.09 351.36 19.68 352.94 19.68 356.93 23.66 356.93 25.25 358.52 25.25 359.89 30.85 359.89 29.29 358.33 29.29 354.37 25.34 354.37 23.71 352.75 23.71 348.8 19.76 348.8 18.14 347.17 18.14 343.22 14.18 343.22 12.32 341.35 12.32 345.59 14.1 347.37"/>
        <rect class="cls-6" x="28.27" y="199.4" width="5.58" height="5.58"/>
        <rect class="cls-6" x="28.33" y="153.67" width="5.58" height="5.58"/>
        <polygon class="cls-6" points="18.14 339.49 18.14 335.53 19.76 333.91 23.71 333.91 23.71 329.96 25.34 328.33 29.29 328.33 29.29 324.38 31.16 322.51 33 324.36 33 328.35 36.99 328.35 38.58 329.94 38.58 333.93 42.57 333.93 44.16 335.52 44.16 339.51 48.15 339.51 50 341.35 48.13 343.22 43.83 343.22 43.83 347.52 42.56 348.8 38.25 348.8 38.25 353.1 36.98 354.37 32.67 354.37 32.67 358.68 31.47 359.89 37.04 359.89 37.04 358.54 38.67 356.92 42.62 356.92 42.62 352.96 44.24 351.34 48.2 351.34 48.2 347.38 50.06 345.52 50.13 345.59 50.13 335.52 49.87 335.79 48 333.92 48 329.97 44.05 329.97 42.42 328.34 42.42 324.39 38.47 324.39 36.84 322.76 36.84 318.81 32.89 318.81 31.02 316.94 32.89 315.08 36.84 315.08 36.84 311.12 38.47 309.5 42.42 309.5 42.42 305.55 44.05 303.92 48 303.92 48 299.97 49.87 298.1 50.13 298.37 50.13 289.85 49.93 290.05 48.07 288.19 48.07 284.23 44.11 284.23 42.49 282.61 42.49 278.65 38.53 278.65 36.91 277.03 36.91 273.08 32.95 273.08 31.09 271.21 32.95 269.35 36.91 269.35 36.91 265.39 38.53 263.77 42.49 263.77 42.49 259.81 44.11 258.19 48.07 258.19 48.07 254.23 49.93 252.37 50.13 252.57 50.13 243.87 49.96 244.04 48.1 242.18 48.1 238.22 44.14 238.22 42.52 236.6 42.52 232.64 38.57 232.64 36.94 231.02 36.94 227.06 32.99 227.06 31.12 225.2 32.99 223.34 36.94 223.34 36.94 219.38 38.57 217.76 42.52 217.76 42.52 213.8 44.14 212.18 48.1 212.18 48.1 208.22 49.96 206.36 50.13 206.52 50.13 198.21 50.03 198.31 48.17 196.44 48.17 192.49 44.21 192.49 42.59 190.87 42.59 186.91 38.63 186.91 37.01 185.29 37.01 181.33 33.05 181.33 31.19 179.47 33.05 177.6 37.01 177.6 37.01 173.65 38.63 172.02 42.59 172.02 42.59 168.07 44.21 166.45 48.17 166.45 48.17 162.49 50.03 160.63 50.13 160.73 50.13 151.39 50.06 151.45 48.2 149.59 48.2 145.63 44.24 145.63 42.62 144.01 42.62 140.05 38.67 140.05 37.04 138.43 37.04 134.48 33.09 134.48 31.22 132.61 33.09 130.75 37.04 130.75 37.04 126.79 38.67 125.17 42.62 125.17 42.62 121.21 44.24 119.59 48.2 119.59 48.2 115.63 50.06 113.77 50.13 113.84 50.13 105.72 50.13 105.72 48.27 103.86 48.27 99.9 44.31 99.9 42.69 98.28 42.69 94.32 38.73 94.32 37.11 92.7 37.11 88.74 33.15 88.74 31.29 86.88 33.15 85.02 37.11 85.02 37.11 81.06 38.73 79.44 42.69 79.44 42.69 75.48 44.31 73.86 48.27 73.86 48.27 69.9 50.13 68.04 43.89 68.04 43.89 70.04 42.62 71.32 38.31 71.32 38.31 75.62 37.04 76.89 32.74 76.89 32.74 81.2 31.22 82.71 29.36 80.85 29.36 76.89 25.4 76.89 23.78 75.27 23.78 71.32 19.82 71.32 18.2 69.69 18.2 68.04 12.32 68.04 12.32 68.04 14.16 69.89 14.16 73.88 18.15 73.88 19.74 75.46 19.74 79.45 23.73 79.45 25.32 81.04 25.32 85.03 29.31 85.03 31.16 86.88 29.29 88.74 24.99 88.74 24.99 93.05 23.71 94.32 19.41 94.32 19.41 98.63 18.14 99.9 13.83 99.9 13.83 104.21 12.32 105.72 12.32 109.61 14.18 107.74 18.14 107.74 18.14 103.79 19.76 102.16 23.71 102.16 23.71 98.21 25.34 96.58 29.29 96.58 29.29 92.63 31.16 90.76 33 92.61 33 96.6 36.99 96.6 38.58 98.19 38.58 102.18 42.57 102.18 44.16 103.77 44.16 107.76 48.15 107.76 50 109.61 48.13 111.47 43.83 111.47 43.83 115.78 42.56 117.05 38.25 117.05 38.25 121.35 36.98 122.63 32.67 122.63 32.67 126.93 31.16 128.45 29.29 126.58 29.29 122.63 25.34 122.63 23.71 121 23.71 117.05 19.76 117.05 18.14 115.43 18.14 111.47 14.18 111.47 12.32 109.61 12.32 113.84 14.1 115.62 14.1 119.61 18.09 119.61 19.68 121.2 19.68 125.19 23.66 125.19 25.25 126.78 25.25 130.76 29.24 130.76 31.09 132.61 29.23 134.48 24.92 134.48 24.92 138.78 23.65 140.05 19.34 140.05 19.34 144.36 18.07 145.63 13.76 145.63 13.76 149.94 12.32 151.39 12.32 156.43 14.15 154.6 18.1 154.6 18.1 150.64 19.73 149.02 23.68 149.02 23.68 145.06 25.3 143.44 29.26 143.44 29.26 139.48 31.12 137.62 32.97 139.47 32.97 143.46 36.96 143.46 38.55 145.05 38.55 149.03 42.54 149.03 44.13 150.62 44.13 154.61 48.12 154.61 49.96 156.46 48.1 158.32 43.79 158.32 43.79 162.63 42.52 163.9 38.22 163.9 38.22 168.21 36.94 169.48 32.64 169.48 32.64 173.79 31.12 175.3 29.26 173.44 29.26 169.48 25.3 169.48 23.68 167.86 23.68 163.9 19.73 163.9 18.1 162.28 18.1 158.32 14.15 158.32 12.32 156.49 12.32 160.73 14.06 162.47 14.06 166.46 18.05 166.46 19.64 168.05 19.64 172.04 23.63 172.04 25.22 173.63 25.22 177.62 29.21 177.62 31.06 179.47 29.19 181.33 24.89 181.33 24.89 185.64 23.61 186.91 19.31 186.91 19.31 191.22 18.04 192.49 13.73 192.49 13.73 196.79 12.32 198.21 12.32 202.09 14.08 200.33 18.04 200.33 18.04 196.37 19.66 194.75 23.61 194.75 23.61 190.79 25.24 189.17 29.19 189.17 29.19 185.22 31.06 183.35 32.9 185.2 32.9 189.19 36.89 189.19 38.48 190.78 38.48 194.77 42.47 194.77 44.06 196.36 44.06 200.35 48.05 200.35 49.9 202.19 48.03 204.06 43.73 204.06 43.73 208.36 42.46 209.63 38.15 209.63 38.15 213.94 36.88 215.21 32.57 215.21 32.57 219.52 31.06 221.03 29.19 219.17 29.19 215.21 25.24 215.21 23.61 213.59 23.61 209.63 19.66 209.63 18.04 208.01 18.04 204.06 14.08 204.06 12.32 202.29 12.32 206.52 14 208.21 14 212.19 17.99 212.19 19.58 213.78 19.58 217.77 23.57 217.77 25.15 219.36 25.15 223.35 29.14 223.35 30.99 225.2 29.13 227.06 24.82 227.06 24.82 231.37 23.55 232.64 19.24 232.64 19.24 236.95 17.97 238.22 13.66 238.22 13.66 242.53 12.32 243.87 12.32 248.07 14.05 246.34 18 246.34 18 242.39 19.63 240.76 23.58 240.76 23.58 236.81 25.2 235.18 29.16 235.18 29.16 231.23 31.02 229.36 32.87 231.21 32.87 235.2 36.86 235.2 38.45 236.79 38.45 240.78 42.44 240.78 44.03 242.37 44.03 246.36 48.02 246.36 49.87 248.21 48 250.07 43.69 250.07 43.69 254.38 42.42 255.65 38.12 255.65 38.12 259.95 36.84 261.23 32.54 261.23 32.54 265.53 31.02 267.05 29.16 265.18 29.16 261.23 25.2 261.23 23.58 259.6 23.58 255.65 19.63 255.65 18 254.03 18 250.07 14.05 250.07 12.32 248.34 12.32 252.57 13.96 254.22 13.96 258.21 17.95 258.21 19.54 259.8 19.54 263.79 23.53 263.79 25.12 265.38 25.12 269.36 29.11 269.36 30.96 271.21 29.09 273.08 24.79 273.08 24.79 277.38 23.52 278.65 19.21 278.65 19.21 282.96 17.94 284.23 13.63 284.23 13.63 288.54 12.32 289.85 12.32 293.74 13.98 292.07 17.94 292.07 17.94 288.12 19.56 286.5 23.52 286.5 23.52 282.54 25.14 280.92 29.09 280.92 29.09 276.96 30.96 275.1 32.81 276.94 32.81 280.93 36.79 280.93 38.38 282.52 38.38 286.51 42.37 286.51 43.96 288.1 43.96 292.09 47.95 292.09 49.8 293.94 47.94 295.8 43.63 295.8 43.63 300.11 42.36 301.38 38.05 301.38 38.05 305.69 36.78 306.96 32.47 306.96 32.47 311.27 30.96 312.78 29.09 310.91 29.09 306.96 25.14 306.96 23.52 305.34 23.52 301.38 19.56 301.38 17.94 299.76 17.94 295.8 13.98 295.8 12.32 294.14 12.32 298.37 13.9 299.95 13.9 303.94 17.89 303.94 19.48 305.53 19.48 309.52 23.47 309.52 25.06 311.11 25.06 315.1 29.04 315.1 30.89 316.94 29.03 318.81 24.72 318.81 24.72 323.11 23.45 324.39 19.14 324.39 19.14 328.69 17.87 329.97 13.56 329.97 13.56 334.27 12.32 335.52 12.32 341.35 14.18 339.49 18.14 339.49"/>
        <rect class="cls-6" x="28.37" y="106.82" width="5.58" height="5.58"/>
        <rect class="cls-6" x="28.37" y="338.56" width="5.58" height="5.58"/>
        <polygon class="cls-6" points="50.13 68.04 50.13 68.04 50.13 68.04 50.13 68.04"/>
        <rect class="cls-6" x="12.32" y="314.16" width="2.52" height="5.58"/>
      </g>
    </g>
    <g class="cls-4">
      <polygon class="cls-6" points="497.47 379.43 500.24 376.66 485.79 362.21 485.79 373.94 474.05 373.94 471.34 376.66 485.79 391.11 485.79 379.43 497.47 379.43"/>
      <polygon class="cls-6" points="497.22 408.33 499.99 405.56 485.54 391.11 485.54 402.84 473.8 402.84 471.09 405.56 485.54 420.01 485.54 408.33 497.22 408.33"/>
      <polygon class="cls-6" points="497.59 437.23 500.36 434.45 485.91 420.01 485.91 431.74 474.18 431.74 471.46 434.45 485.91 448.9 485.91 437.23 497.59 437.23"/>
    </g>
    <g class="cls-1">
      <polygon class="cls-6" points="474.83 115.23 472.06 118.01 486.51 132.46 486.51 120.72 498.24 120.72 500.96 118.01 486.51 103.56 486.51 115.23 474.83 115.23"/>
      <polygon class="cls-6" points="475.08 86.34 472.31 89.11 486.76 103.56 486.76 91.82 498.49 91.82 501.21 89.11 486.76 74.66 486.76 86.34 475.08 86.34"/>
      <polygon class="cls-6" points="474.71 57.44 471.93 60.21 486.38 74.66 486.38 62.92 498.12 62.92 500.83 60.21 486.38 45.76 486.38 57.44 474.71 57.44"/>
    </g>
  </g>
</svg>