<?xml version="1.0" encoding="UTF-8"?>
<svg id="Layer_2" data-name="Layer 2" xmlns="http://www.w3.org/2000/svg" xmlns:xlink="http://www.w3.org/1999/xlink" viewBox="0 0 516.53 505.18">
  <defs>
    <style>
      .cls-1 {
        fill: #e3d8ba;
      }

      .cls-2 {
        fill: #639589;
      }

      .cls-3 {
        fill: #f5b75a;
      }

      .cls-4, .cls-5, .cls-6 {
        fill: none;
      }

      .cls-5 {
        clip-path: url(#clippath);
      }

      .cls-7 {
        fill: #ec6650;
      }

      .cls-6 {
        clip-path: url(#clippath-1);
      }

      .cls-8 {
        fill: #376899;
      }
    </style>
    <clipPath id="clippath">
      <rect class="cls-4" x="12.32" y="66.74" width="37.81" height="119.95"/>
    </clipPath>
    <clipPath id="clippath-1">
      <rect class="cls-4" x="469.85" y="308.5" width="31.75" height="94.89"/>
    </clipPath>
  </defs>
  <g id="Layer_1-2" data-name="Layer 1">
    <rect class="cls-8" width="516.53" height="505.18"/>
    <g>
      <rect class="cls-2" x="5.2" y="449.06" width="45.39" height="45.39"/>
      <g>
        <rect class="cls-1" x="43.42" y="472.7" width="6.65" height="6.65" transform="translate(522.76 429.28) rotate(90)"/>
        <rect class="cls-1" x="36.77" y="479.34" width="6.65" height="6.65" transform="translate(522.76 442.58) rotate(90)"/>
        <rect class="cls-1" x="30.12" y="485.99" width="6.65" height="6.65" transform="translate(522.76 455.87) rotate(90)"/>
        <rect class="cls-1" x="19.05" y="448.33" width="6.65" height="6.65" transform="translate(474.03 429.28) rotate(90)"/>
        <rect class="cls-1" x="12.4" y="454.98" width="6.65" height="6.65" transform="translate(474.03 442.58) rotate(90)"/>
        <rect class="cls-1" x="5.75" y="461.62" width="6.65" height="6.65" transform="translate(474.03 455.87) rotate(90)"/>
        <rect class="cls-1" x="43.42" y="462.02" width="6.65" height="6.65" transform="translate(93.48 930.69) rotate(-180)"/>
        <rect class="cls-1" x="36.77" y="455.37" width="6.65" height="6.65" transform="translate(80.19 917.4) rotate(-180)"/>
        <rect class="cls-1" x="30.12" y="448.73" width="6.65" height="6.65" transform="translate(66.89 904.1) rotate(-180)"/>
        <rect class="cls-1" x="19.03" y="485.99" width="6.65" height="6.65" transform="translate(44.71 978.63) rotate(-180)"/>
        <rect class="cls-1" x="12.38" y="479.34" width="6.65" height="6.65" transform="translate(31.41 965.34) rotate(-180)"/>
        <rect class="cls-1" x="24.57" y="467.15" width="6.65" height="6.65" transform="translate(55.8 940.95) rotate(-180)"/>
        <rect class="cls-1" x="5.73" y="472.7" width="6.65" height="6.65" transform="translate(18.11 952.04) rotate(-180)"/>
      </g>
    </g>
    <g>
      <rect class="cls-2" x="8.53" y="9.48" width="45.39" height="45.39"/>
      <g>
        <rect class="cls-1" x="46.74" y="33.11" width="6.65" height="6.65" transform="translate(86.5 -13.63) rotate(90)"/>
        <rect class="cls-1" x="40.09" y="39.76" width="6.65" height="6.65" transform="translate(86.5 -.33) rotate(90)"/>
        <rect class="cls-1" x="33.44" y="46.41" width="6.65" height="6.65" transform="translate(86.5 12.97) rotate(90)"/>
        <rect class="cls-1" x="22.37" y="8.75" width="6.65" height="6.65" transform="translate(37.77 -13.63) rotate(90)"/>
        <rect class="cls-1" x="15.73" y="15.4" width="6.65" height="6.65" transform="translate(37.77 -.33) rotate(90)"/>
        <rect class="cls-1" x="9.08" y="22.04" width="6.65" height="6.65" transform="translate(37.77 12.97) rotate(90)"/>
        <rect class="cls-1" x="46.74" y="22.44" width="6.65" height="6.65" transform="translate(100.13 51.53) rotate(-180)"/>
        <rect class="cls-1" x="40.09" y="15.79" width="6.65" height="6.65" transform="translate(86.83 38.24) rotate(-180)"/>
        <rect class="cls-1" x="33.44" y="9.15" width="6.65" height="6.65" transform="translate(73.54 24.94) rotate(-180)"/>
        <rect class="cls-1" x="22.35" y="46.41" width="6.65" height="6.65" transform="translate(51.36 99.47) rotate(-180)"/>
        <rect class="cls-1" x="15.71" y="39.76" width="6.65" height="6.65" transform="translate(38.06 86.17) rotate(-180)"/>
        <rect class="cls-1" x="27.9" y="27.57" width="6.65" height="6.65" transform="translate(62.45 61.79) rotate(-180)"/>
        <rect class="cls-1" x="9.06" y="33.11" width="6.65" height="6.65" transform="translate(24.76 72.88) rotate(-180)"/>
      </g>
    </g>
    <g>
      <rect class="cls-2" x="463.03" y="449.06" width="45.39" height="45.39"/>
      <g>
        <rect class="cls-1" x="501.24" y="472.7" width="6.65" height="6.65" transform="translate(980.59 -28.55) rotate(90)"/>
        <rect class="cls-1" x="494.6" y="479.34" width="6.65" height="6.65" transform="translate(980.59 -15.25) rotate(90)"/>
        <rect class="cls-1" x="487.95" y="485.99" width="6.65" height="6.65" transform="translate(980.59 -1.96) rotate(90)"/>
        <rect class="cls-1" x="476.88" y="448.33" width="6.65" height="6.65" transform="translate(931.85 -28.55) rotate(90)"/>
        <rect class="cls-1" x="470.23" y="454.98" width="6.65" height="6.65" transform="translate(931.85 -15.25) rotate(90)"/>
        <rect class="cls-1" x="463.58" y="461.62" width="6.65" height="6.65" transform="translate(931.85 -1.96) rotate(90)"/>
        <rect class="cls-1" x="501.24" y="462.02" width="6.65" height="6.65" transform="translate(1009.14 930.69) rotate(-180)"/>
        <rect class="cls-1" x="494.6" y="455.37" width="6.65" height="6.65" transform="translate(995.84 917.4) rotate(-180)"/>
        <rect class="cls-1" x="487.95" y="448.73" width="6.65" height="6.65" transform="translate(982.54 904.1) rotate(-180)"/>
        <rect class="cls-1" x="476.86" y="485.99" width="6.65" height="6.65" transform="translate(960.36 978.63) rotate(-180)"/>
        <rect class="cls-1" x="470.21" y="479.34" width="6.65" height="6.65" transform="translate(947.07 965.34) rotate(-180)"/>
        <rect class="cls-1" x="482.4" y="467.15" width="6.65" height="6.65" transform="translate(971.45 940.95) rotate(-180)"/>
        <rect class="cls-1" x="463.56" y="472.7" width="6.65" height="6.65" transform="translate(933.77 952.04) rotate(-180)"/>
      </g>
    </g>
    <g>
      <rect class="cls-2" x="465.23" y="9.48" width="45.39" height="45.39"/>
      <g>
        <rect class="cls-1" x="503.45" y="33.11" width="6.65" height="6.65" transform="translate(543.21 -470.33) rotate(90)"/>
        <rect class="cls-1" x="496.8" y="39.76" width="6.65" height="6.65" transform="translate(543.21 -457.03) rotate(90)"/>
        <rect class="cls-1" x="490.15" y="46.41" width="6.65" height="6.65" transform="translate(543.21 -443.74) rotate(90)"/>
        <rect class="cls-1" x="479.08" y="8.75" width="6.65" height="6.65" transform="translate(494.47 -470.33) rotate(90)"/>
        <rect class="cls-1" x="472.43" y="15.4" width="6.65" height="6.65" transform="translate(494.47 -457.03) rotate(90)"/>
        <rect class="cls-1" x="465.78" y="22.04" width="6.65" height="6.65" transform="translate(494.47 -443.74) rotate(90)"/>
        <rect class="cls-1" x="503.45" y="22.44" width="6.65" height="6.65" transform="translate(1013.54 51.53) rotate(-180)"/>
        <rect class="cls-1" x="496.8" y="15.79" width="6.65" height="6.65" transform="translate(1000.24 38.24) rotate(-180)"/>
        <rect class="cls-1" x="490.15" y="9.15" width="6.65" height="6.65" transform="translate(986.95 24.94) rotate(-180)"/>
        <rect class="cls-1" x="479.06" y="46.41" width="6.65" height="6.65" transform="translate(964.77 99.47) rotate(-180)"/>
        <rect class="cls-1" x="472.41" y="39.76" width="6.65" height="6.65" transform="translate(951.47 86.17) rotate(-180)"/>
        <rect class="cls-1" x="484.6" y="27.57" width="6.65" height="6.65" transform="translate(975.86 61.79) rotate(-180)"/>
        <rect class="cls-1" x="465.76" y="33.11" width="6.65" height="6.65" transform="translate(938.17 72.88) rotate(-180)"/>
      </g>
    </g>
    <path class="cls-7" d="m30.12,404.56h4.71l1.93-1.93v-4.71h4.71l1.93-1.93v-4.71h4.71l2.22-2.22-1.8-1.8h-5.13v-5.13l-1.52-1.52h-5.13v-5.13l-1.52-1.52h-5.13v-5.13l-2.22-2.22-2.2,2.2v4.75h-4.75l-1.89,1.89v4.75h-4.75l-1.89,1.89v4.75h-4.75l-2.2,2.2,2.22,2.22h4.71v4.71l1.93,1.93h4.71v4.71l1.93,1.93h4.71v4.71l2.22,2.22,2.22-2.22v-4.71Zm-5.55-12.19v-6.65h6.65v6.65h-6.65Z"/>
    <g>
      <rect class="cls-3" x="107.52" y="53.63" width="6.5" height="3.25"/>
      <rect class="cls-3" x="160.81" y="53.71" width="6.5" height="3.17"/>
      <rect class="cls-3" x="215.42" y="53.75" width="6.5" height="3.13"/>
      <rect class="cls-3" x="268.71" y="53.83" width="6.5" height="3.06"/>
      <rect class="cls-3" x="107.52" y="12.82" width="6.5" height="3.25"/>
      <rect class="cls-3" x="375.63" y="12.82" width="6.5" height="3.56"/>
      <rect class="cls-3" x="322.33" y="53.86" width="6.5" height="3.02"/>
      <rect class="cls-3" x="268.71" y="12.82" width="6.5" height="3.44"/>
      <rect class="cls-3" x="215.42" y="12.82" width="6.5" height="3.37"/>
      <rect class="cls-3" x="160.81" y="12.82" width="6.5" height="3.33"/>
      <rect class="cls-3" x="322.33" y="12.82" width="6.5" height="3.48"/>
      <rect class="cls-3" x="348.82" y="31.91" width="6.5" height="6.5"/>
      <rect class="cls-3" x="295.52" y="31.83" width="6.5" height="6.5"/>
      <polygon class="cls-3" points="414.33 54.81 418.98 54.81 418.98 50.16 420.83 48.31 425.48 48.31 425.48 43.66 427.33 41.81 428.92 41.81 428.92 35.29 427.11 37.1 422.5 37.1 422.5 41.71 420.61 43.6 416 43.6 416 48.21 414.1 50.1 409.49 50.1 409.49 54.71 407.32 56.88 412.25 56.88 414.33 54.81"/>
      <rect class="cls-3" x="241.9" y="31.79" width="6.5" height="6.5"/>
      <rect class="cls-3" x="188.6" y="31.72" width="6.5" height="6.5"/>
      <polygon class="cls-3" points="405.15 50.1 400.54 50.1 398.65 48.21 398.65 43.6 394.04 43.6 392.15 41.71 392.15 37.1 387.54 37.1 385.37 34.93 387.52 32.77 392.17 32.77 392.17 28.13 394.02 26.27 398.67 26.27 398.67 21.62 400.52 19.77 405.17 19.77 405.17 15.12 407.32 12.97 409.49 15.14 409.49 20.16 414.51 20.16 416 21.64 416 26.66 421.01 26.66 422.5 28.14 422.5 33.16 427.52 33.16 428.92 34.57 428.92 28.07 427.35 28.07 425.46 26.18 425.46 21.57 420.85 21.57 418.96 19.68 418.96 15.07 414.35 15.07 412.18 12.89 412.25 12.82 400.52 12.82 400.83 13.13 398.66 15.3 394.05 15.3 394.05 19.91 392.16 21.8 387.55 21.8 387.55 26.41 385.66 28.3 381.05 28.3 381.05 32.91 378.88 35.08 376.7 32.91 376.7 28.3 372.09 28.3 370.2 26.41 370.2 21.8 365.59 21.8 363.7 19.91 363.7 15.3 359.09 15.3 356.92 13.13 357.23 12.82 347.31 12.82 347.54 13.05 345.37 15.22 340.76 15.22 340.76 19.83 338.87 21.72 334.26 21.72 334.26 26.33 332.36 28.22 327.75 28.22 327.75 32.83 325.58 35 323.41 32.83 323.41 28.22 318.8 28.22 316.91 26.33 316.91 21.72 312.3 21.72 310.41 19.83 310.41 15.22 305.8 15.22 303.63 13.05 303.86 12.82 293.72 12.82 293.92 13.01 291.74 15.18 287.13 15.18 287.13 19.79 285.24 21.68 280.63 21.68 280.63 26.29 278.74 28.18 274.13 28.18 274.13 32.79 271.96 34.97 269.79 32.79 269.79 28.18 265.18 28.18 263.29 26.29 263.29 21.68 258.68 21.68 256.79 19.79 256.79 15.18 252.18 15.18 250 13.01 250.2 12.82 240.51 12.82 240.62 12.93 238.45 15.1 233.84 15.1 233.84 19.71 231.95 21.61 227.34 21.61 227.34 26.22 225.45 28.11 220.84 28.11 220.84 32.72 218.67 34.89 216.49 32.72 216.49 28.11 211.88 28.11 209.99 26.22 209.99 21.61 205.38 21.61 203.49 19.71 203.49 15.1 198.88 15.1 196.71 12.93 196.83 12.82 185.94 12.82 186.02 12.89 183.85 15.07 179.24 15.07 179.24 19.68 177.35 21.57 172.74 21.57 172.74 26.18 170.85 28.07 166.24 28.07 166.24 32.68 164.06 34.85 161.89 32.68 161.89 28.07 157.28 28.07 155.39 26.18 155.39 21.57 150.78 21.57 148.89 19.68 148.89 15.07 144.28 15.07 142.11 12.89 142.18 12.82 132.73 12.82 132.73 12.82 130.55 14.99 125.94 14.99 125.94 19.6 124.05 21.49 119.44 21.49 119.44 26.1 117.55 27.99 112.94 27.99 112.94 32.6 110.77 34.77 108.6 32.6 108.6 27.99 103.99 27.99 102.1 26.1 102.1 21.49 97.49 21.49 95.59 19.6 95.59 14.99 90.98 14.99 88.81 12.82 88.81 20.08 91.15 20.08 92.63 21.57 92.63 26.59 97.65 26.59 99.13 28.07 99.13 33.09 104.15 33.09 105.91 34.85 103.74 37.02 99.13 37.02 99.13 41.63 97.24 43.52 92.63 43.52 92.63 48.13 90.74 50.02 88.81 50.02 88.81 56.88 88.81 56.88 90.97 54.73 95.61 54.73 95.61 50.08 97.47 48.23 102.12 48.23 102.12 43.58 103.97 41.73 108.62 41.73 108.62 37.08 110.77 34.93 112.94 37.1 112.94 42.12 117.96 42.12 119.44 43.6 119.44 48.62 124.46 48.62 125.94 50.1 125.94 55.12 130.96 55.12 132.73 56.88 137.25 56.88 135.08 54.71 135.08 50.1 130.47 50.1 128.58 48.21 128.58 43.6 123.97 43.6 122.08 41.71 122.08 37.1 117.47 37.1 115.3 34.93 117.45 32.77 122.1 32.77 122.1 28.13 123.95 26.27 128.6 26.27 128.6 21.62 130.45 19.77 135.1 19.77 135.1 15.12 137.25 12.97 139.43 15.14 139.43 20.16 144.44 20.16 145.93 21.64 145.93 26.66 150.95 26.66 152.43 28.14 152.43 33.16 157.45 33.16 159.21 34.93 157.04 37.1 152.43 37.1 152.43 41.71 150.54 43.6 145.93 43.6 145.93 48.21 144.04 50.1 139.43 50.1 139.43 54.71 137.25 56.88 142.18 56.88 144.26 54.81 148.91 54.81 148.91 50.16 150.76 48.31 155.41 48.31 155.41 43.66 157.26 41.81 161.91 41.81 161.91 37.16 164.06 35 166.24 37.18 166.24 42.2 171.25 42.2 172.74 43.68 172.74 48.7 177.76 48.7 179.24 50.18 179.24 55.2 184.26 55.2 185.94 56.88 191.82 56.88 189.68 54.75 189.68 50.14 185.07 50.14 183.18 48.25 183.18 43.64 178.57 43.64 176.68 41.75 176.68 37.14 172.07 37.14 169.9 34.97 172.05 32.81 176.7 32.81 176.7 28.16 178.55 26.31 183.2 26.31 183.2 21.66 185.05 19.81 189.7 19.81 189.7 15.16 191.86 13.01 194.03 15.18 194.03 20.2 199.05 20.2 200.53 21.68 200.53 26.7 205.55 26.7 207.03 28.18 207.03 33.2 212.05 33.2 213.81 34.97 211.64 37.14 207.03 37.14 207.03 41.75 205.14 43.64 200.53 43.64 200.53 48.25 198.64 50.14 194.03 50.14 194.03 54.75 191.89 56.88 196.83 56.88 198.86 54.85 203.51 54.85 203.51 50.2 205.36 48.35 210.01 48.35 210.01 43.7 211.86 41.84 216.51 41.84 216.51 37.2 218.67 35.04 220.84 37.22 220.84 42.23 225.86 42.23 227.34 43.72 227.34 48.74 232.36 48.74 233.84 50.22 233.84 55.24 238.86 55.24 240.51 56.88 245.03 56.88 242.98 54.83 242.98 50.22 238.37 50.22 236.48 48.33 236.48 43.72 231.87 43.72 229.98 41.83 229.98 37.22 225.37 37.22 223.19 35.04 225.35 32.89 230 32.89 230 28.24 231.85 26.39 236.5 26.39 236.5 21.74 238.35 19.89 243 19.89 243 15.24 245.15 13.09 247.32 15.26 247.32 20.28 252.34 20.28 253.82 21.76 253.82 26.78 258.84 26.78 260.32 28.26 260.32 33.28 265.34 33.28 267.11 35.04 264.93 37.22 260.32 37.22 260.32 41.83 258.43 43.72 253.82 43.72 253.82 48.33 251.93 50.22 247.32 50.22 247.32 54.83 245.27 56.88 250.2 56.88 252.16 54.92 256.81 54.92 256.81 50.28 258.66 48.42 263.31 48.42 263.31 43.77 265.16 41.92 269.81 41.92 269.81 37.27 271.96 35.12 274.13 37.29 274.13 42.31 279.15 42.31 280.63 43.79 280.63 48.81 285.65 48.81 287.13 50.29 287.13 55.31 292.15 55.31 293.72 56.88 298.62 56.88 296.6 54.87 296.6 50.26 291.99 50.26 290.1 48.36 290.1 43.75 285.49 43.75 283.6 41.86 283.6 37.25 278.99 37.25 276.81 35.08 278.97 32.93 283.62 32.93 283.62 28.28 285.47 26.43 290.12 26.43 290.12 21.78 291.97 19.93 296.62 19.93 296.62 15.28 298.77 13.13 300.94 15.3 300.94 20.32 305.96 20.32 307.44 21.8 307.44 26.82 312.46 26.82 313.95 28.3 313.95 33.32 318.96 33.32 320.73 35.08 318.56 37.25 313.95 37.25 313.95 41.86 312.05 43.75 307.44 43.75 307.44 48.36 305.55 50.26 300.94 50.26 300.94 54.87 298.93 56.88 303.86 56.88 305.78 54.96 310.43 54.96 310.43 50.31 312.28 48.46 316.93 48.46 316.93 43.81 318.78 41.96 323.43 41.96 323.43 37.31 325.58 35.16 327.75 37.33 327.75 42.35 332.77 42.35 334.26 43.83 334.26 48.85 339.27 48.85 340.76 50.33 340.76 55.35 345.77 55.35 347.31 56.88 351.83 56.88 349.89 54.94 349.89 50.33 345.28 50.33 343.39 48.44 343.39 43.83 338.78 43.83 336.89 41.94 336.89 37.33 332.28 37.33 330.11 35.16 332.26 33.01 336.91 33.01 336.91 28.36 338.76 26.51 343.41 26.51 343.41 21.86 345.26 20 349.91 20 349.91 15.36 352.07 13.2 354.24 15.37 354.24 20.39 359.26 20.39 360.74 21.88 360.74 26.89 365.76 26.89 367.24 28.38 367.24 33.4 372.26 33.4 374.02 35.16 371.85 37.33 367.24 37.33 367.24 41.94 365.35 43.83 360.74 43.83 360.74 48.44 358.85 50.33 354.24 50.33 354.24 54.94 352.3 56.88 357.23 56.88 359.07 55.04 363.72 55.04 363.72 50.39 365.57 48.54 370.22 48.54 370.22 43.89 372.07 42.04 376.72 42.04 376.72 37.39 378.88 35.24 381.05 37.41 381.05 42.43 386.07 42.43 387.55 43.91 387.55 48.93 392.57 48.93 394.05 50.41 394.05 55.43 399.07 55.43 400.52 56.88 407.32 56.88 405.15 54.71 405.15 50.1"/>
      <rect class="cls-3" x="134" y="31.68" width="6.5" height="6.5"/>
      <rect class="cls-3" x="404.07" y="31.68" width="6.5" height="6.5"/>
      <polygon class="cls-3" points="88.81 12.82 88.81 12.82 88.81 12.82 88.81 12.82"/>
      <rect class="cls-3" x="375.63" y="53.94" width="6.5" height="2.94"/>
    </g>
    <g>
      <g>
        <rect class="cls-7" x="493.1" y="273.72" width="6.81" height="6.81" transform="translate(-50.54 432.25) rotate(-45)"/>
        <rect class="cls-7" x="483.47" y="273.72" width="6.81" height="6.81" transform="translate(-53.36 425.44) rotate(-45)"/>
        <rect class="cls-7" x="473.84" y="273.72" width="6.81" height="6.81" transform="translate(-56.18 418.63) rotate(-45)"/>
        <rect class="cls-7" x="493.1" y="238.44" width="6.81" height="6.81" transform="translate(-25.58 421.91) rotate(-45)"/>
        <rect class="cls-7" x="483.47" y="238.44" width="6.81" height="6.81" transform="translate(-28.4 415.11) rotate(-45)"/>
        <rect class="cls-7" x="473.84" y="238.44" width="6.81" height="6.81" transform="translate(-31.22 408.3) rotate(-45)"/>
        <rect class="cls-7" x="500.83" y="266" width="6.81" height="6.81" transform="translate(-42.81 435.45) rotate(-45)"/>
        <rect class="cls-7" x="500.83" y="256.37" width="6.81" height="6.81" transform="translate(-36 432.63) rotate(-45)"/>
        <rect class="cls-7" x="500.83" y="246.74" width="6.81" height="6.81" transform="translate(-29.19 429.81) rotate(-45)"/>
        <rect class="cls-7" x="465.81" y="265.69" width="6.81" height="6.81" transform="translate(-52.85 410.6) rotate(-45)"/>
        <rect class="cls-7" x="465.81" y="256.07" width="6.81" height="6.81" transform="translate(-46.04 407.78) rotate(-45)"/>
        <rect class="cls-7" x="465.81" y="246.44" width="6.81" height="6.81" transform="translate(-39.23 404.96) rotate(-45)"/>
      </g>
      <path class="cls-7" d="m479.26,269.42l2.48,2.48h2.04s2.48-2.48,2.48-2.48l2.48,2.48h2.04s2.48-2.48,2.48-2.48l2.48,2.48h2.34s0-1.9,0-1.9l-2.7-2.7,2.7-2.7v-1.6l-2.7-2.7,2.7-2.7v-1.6s-2.7-2.7-2.7-2.7l2.7-2.7v-2.34h-2.32s-2.5,2.5-2.5,2.5l-2.5-2.5h-2s-2.5,2.5-2.5,2.5l-2.5-2.5h-2s-2.5,2.5-2.5,2.5l-2.5-2.5h-2.32s0,2.34,0,2.34l2.48,2.48-2.48,2.48v2.04s2.48,2.48,2.48,2.48l-2.48,2.48v2.04s2.48,2.48,2.48,2.48l-2.48,2.48v2.34h2.34l2.48-2.48Zm3.5-9.35l3.5-3.5,3.5,3.5-3.5,3.5-3.5-3.5Z"/>
    </g>
    <g>
      <g>
        <rect class="cls-3" x="493.1" y="202.25" width="6.81" height="6.81" transform="translate(0 411.32) rotate(-45)"/>
        <rect class="cls-3" x="483.47" y="202.25" width="6.81" height="6.81" transform="translate(-2.82 404.51) rotate(-45)"/>
        <rect class="cls-3" x="473.84" y="202.25" width="6.81" height="6.81" transform="translate(-5.64 397.7) rotate(-45)"/>
        <rect class="cls-3" x="493.1" y="166.97" width="6.81" height="6.81" transform="translate(24.95 400.98) rotate(-45)"/>
        <rect class="cls-3" x="483.47" y="166.97" width="6.81" height="6.81" transform="translate(22.13 394.17) rotate(-45)"/>
        <rect class="cls-3" x="473.84" y="166.97" width="6.81" height="6.81" transform="translate(19.31 387.37) rotate(-45)"/>
        <rect class="cls-3" x="500.83" y="194.53" width="6.81" height="6.81" transform="translate(7.73 414.52) rotate(-45)"/>
        <rect class="cls-3" x="500.83" y="184.9" width="6.81" height="6.81" transform="translate(14.54 411.7) rotate(-45)"/>
        <rect class="cls-3" x="500.83" y="175.27" width="6.81" height="6.81" transform="translate(21.34 408.88) rotate(-45)"/>
        <rect class="cls-3" x="465.81" y="194.22" width="6.81" height="6.81" transform="translate(-2.31 389.67) rotate(-45)"/>
        <rect class="cls-3" x="465.81" y="184.6" width="6.81" height="6.81" transform="translate(4.5 386.85) rotate(-45)"/>
        <rect class="cls-3" x="465.81" y="174.97" width="6.81" height="6.81" transform="translate(11.3 384.03) rotate(-45)"/>
      </g>
      <path class="cls-3" d="m479.26,197.95l2.48,2.48h2.04s2.48-2.48,2.48-2.48l2.48,2.48h2.04s2.48-2.48,2.48-2.48l2.48,2.48h2.34s0-1.9,0-1.9l-2.7-2.7,2.7-2.7v-1.6l-2.7-2.7,2.7-2.7v-1.6s-2.7-2.7-2.7-2.7l2.7-2.7v-2.34h-2.32s-2.5,2.5-2.5,2.5l-2.5-2.5h-2s-2.5,2.5-2.5,2.5l-2.5-2.5h-2s-2.5,2.5-2.5,2.5l-2.5-2.5h-2.32s0,2.34,0,2.34l2.48,2.48-2.48,2.48v2.04s2.48,2.48,2.48,2.48l-2.48,2.48v2.04s2.48,2.48,2.48,2.48l-2.48,2.48v2.34h2.34l2.48-2.48Zm3.5-9.35l3.5-3.5,3.5,3.5-3.5,3.5-3.5-3.5Z"/>
    </g>
    <g>
      <g>
        <rect class="cls-2" x="493.1" y="128.53" width="6.81" height="6.81" transform="translate(52.13 389.72) rotate(-45)"/>
        <rect class="cls-2" x="483.47" y="128.53" width="6.81" height="6.81" transform="translate(49.31 382.91) rotate(-45)"/>
        <rect class="cls-2" x="473.84" y="128.53" width="6.81" height="6.81" transform="translate(46.49 376.11) rotate(-45)"/>
        <rect class="cls-2" x="493.1" y="93.24" width="6.81" height="6.81" transform="translate(77.08 379.39) rotate(-45)"/>
        <rect class="cls-2" x="483.47" y="93.24" width="6.81" height="6.81" transform="translate(74.26 372.58) rotate(-45)"/>
        <rect class="cls-2" x="473.84" y="93.24" width="6.81" height="6.81" transform="translate(71.44 365.77) rotate(-45)"/>
        <rect class="cls-2" x="500.83" y="120.8" width="6.81" height="6.81" transform="translate(59.86 392.92) rotate(-45)"/>
        <rect class="cls-2" x="500.83" y="111.17" width="6.81" height="6.81" transform="translate(66.67 390.1) rotate(-45)"/>
        <rect class="cls-2" x="500.83" y="101.54" width="6.81" height="6.81" transform="translate(73.48 387.28) rotate(-45)"/>
        <rect class="cls-2" x="465.81" y="120.5" width="6.81" height="6.81" transform="translate(49.82 368.08) rotate(-45)"/>
        <rect class="cls-2" x="465.81" y="110.87" width="6.81" height="6.81" transform="translate(56.63 365.26) rotate(-45)"/>
        <rect class="cls-2" x="465.81" y="101.24" width="6.81" height="6.81" transform="translate(63.43 362.44) rotate(-45)"/>
      </g>
      <path class="cls-2" d="m479.26,124.23l2.48,2.48h2.04s2.48-2.48,2.48-2.48l2.48,2.48h2.04s2.48-2.48,2.48-2.48l2.48,2.48h2.34s0-1.9,0-1.9l-2.7-2.7,2.7-2.7v-1.6l-2.7-2.7,2.7-2.7v-1.6s-2.7-2.7-2.7-2.7l2.7-2.7v-2.34h-2.32s-2.5,2.5-2.5,2.5l-2.5-2.5h-2s-2.5,2.5-2.5,2.5l-2.5-2.5h-2s-2.5,2.5-2.5,2.5l-2.5-2.5h-2.32s0,2.34,0,2.34l2.48,2.48-2.48,2.48v2.04s2.48,2.48,2.48,2.48l-2.48,2.48v2.04s2.48,2.48,2.48,2.48l-2.48,2.48v2.34h2.34l2.48-2.48Zm3.5-9.35l3.5-3.5,3.5,3.5-3.5,3.5-3.5-3.5Z"/>
    </g>
    <path class="cls-3" d="m30.12,322.82h4.71l1.93-1.93v-4.71h4.71l1.93-1.93v-4.71h4.71l2.22-2.22-1.8-1.8h-5.13v-5.13l-1.52-1.52h-5.13v-5.13l-1.52-1.52h-5.13v-5.13l-2.22-2.22-2.2,2.2v4.75h-4.75l-1.89,1.89v4.75h-4.75l-1.89,1.89v4.75h-4.75l-2.2,2.2,2.22,2.22h4.71v4.71l1.93,1.93h4.71v4.71l1.93,1.93h4.71v4.71l2.22,2.22,2.22-2.22v-4.71Zm-5.55-12.19v-6.65h6.65v6.65h-6.65Z"/>
    <path class="cls-2" d="m30.12,241.09h4.71l1.93-1.93v-4.71h4.71l1.93-1.93v-4.71h4.71l2.22-2.22-1.8-1.8h-5.13v-5.13l-1.52-1.52h-5.13v-5.13l-1.52-1.52h-5.13v-5.13l-2.22-2.22-2.2,2.2v4.75h-4.75l-1.89,1.89v4.75h-4.75l-1.89,1.89v4.75h-4.75l-2.2,2.2,2.22,2.22h4.71v4.71l1.93,1.93h4.71v4.71l1.93,1.93h4.71v4.71l2.22,2.22,2.22-2.22v-4.71Zm-5.55-12.19v-6.65h6.65v6.65h-6.65Z"/>
    <g class="cls-5">
      <g>
        <rect class="cls-7" x="12.32" y="84.09" width="2.79" height="5.58"/>
        <rect class="cls-7" x="12.32" y="129.82" width="2.72" height="5.58"/>
        <rect class="cls-7" x="12.32" y="176.68" width="2.69" height="5.58"/>
        <rect class="cls-7" x="12.32" y="222.41" width="2.62" height="5.58"/>
        <rect class="cls-7" x="47.34" y="84.09" width="2.79" height="5.58"/>
        <rect class="cls-7" x="47.08" y="314.16" width="3.05" height="5.58"/>
        <rect class="cls-7" x="12.32" y="268.42" width="2.59" height="5.58"/>
        <rect class="cls-7" x="47.18" y="222.41" width="2.95" height="5.58"/>
        <rect class="cls-7" x="47.24" y="176.68" width="2.89" height="5.58"/>
        <rect class="cls-7" x="47.27" y="129.82" width="2.86" height="5.58"/>
        <rect class="cls-7" x="47.14" y="268.42" width="2.99" height="5.58"/>
        <rect class="cls-7" x="28.17" y="291.15" width="5.58" height="5.58"/>
        <rect class="cls-7" x="28.24" y="245.42" width="5.58" height="5.58"/>
        <polygon class="cls-7" points="14.1 347.37 14.1 351.36 18.09 351.36 19.68 352.94 19.68 356.93 23.66 356.93 25.25 358.52 25.25 359.89 30.85 359.89 29.29 358.33 29.29 354.37 25.34 354.37 23.71 352.75 23.71 348.8 19.76 348.8 18.14 347.17 18.14 343.22 14.18 343.22 12.32 341.35 12.32 345.59 14.1 347.37"/>
        <rect class="cls-7" x="28.27" y="199.4" width="5.58" height="5.58"/>
        <rect class="cls-7" x="28.33" y="153.67" width="5.58" height="5.58"/>
        <polygon class="cls-7" points="18.14 339.49 18.14 335.53 19.76 333.91 23.71 333.91 23.71 329.96 25.34 328.33 29.29 328.33 29.29 324.38 31.16 322.51 33 324.36 33 328.35 36.99 328.35 38.58 329.94 38.58 333.93 42.57 333.93 44.16 335.52 44.16 339.51 48.15 339.51 50 341.35 48.13 343.22 43.83 343.22 43.83 347.52 42.56 348.8 38.25 348.8 38.25 353.1 36.98 354.37 32.67 354.37 32.67 358.68 31.47 359.89 37.04 359.89 37.04 358.54 38.67 356.92 42.62 356.92 42.62 352.96 44.24 351.34 48.2 351.34 48.2 347.38 50.06 345.52 50.13 345.59 50.13 335.52 49.87 335.79 48 333.92 48 329.97 44.05 329.97 42.42 328.34 42.42 324.39 38.47 324.39 36.84 322.76 36.84 318.81 32.89 318.81 31.02 316.94 32.89 315.08 36.84 315.08 36.84 311.12 38.47 309.5 42.42 309.5 42.42 305.55 44.05 303.92 48 303.92 48 299.97 49.87 298.1 50.13 298.37 50.13 289.85 49.93 290.05 48.07 288.19 48.07 284.23 44.11 284.23 42.49 282.61 42.49 278.65 38.53 278.65 36.91 277.03 36.91 273.08 32.95 273.08 31.09 271.21 32.95 269.35 36.91 269.35 36.91 265.39 38.53 263.77 42.49 263.77 42.49 259.81 44.11 258.19 48.07 258.19 48.07 254.23 49.93 252.37 50.13 252.57 50.13 243.87 49.96 244.04 48.1 242.18 48.1 238.22 44.14 238.22 42.52 236.6 42.52 232.64 38.57 232.64 36.94 231.02 36.94 227.06 32.99 227.06 31.12 225.2 32.99 223.34 36.94 223.34 36.94 219.38 38.57 217.76 42.52 217.76 42.52 213.8 44.14 212.18 48.1 212.18 48.1 208.22 49.96 206.36 50.13 206.52 50.13 198.21 50.03 198.31 48.17 196.44 48.17 192.49 44.21 192.49 42.59 190.87 42.59 186.91 38.63 186.91 37.01 185.29 37.01 181.33 33.05 181.33 31.19 179.47 33.05 177.6 37.01 177.6 37.01 173.65 38.63 172.02 42.59 172.02 42.59 168.07 44.21 166.45 48.17 166.45 48.17 162.49 50.03 160.63 50.13 160.73 50.13 151.39 50.06 151.45 48.2 149.59 48.2 145.63 44.24 145.63 42.62 144.01 42.62 140.05 38.67 140.05 37.04 138.43 37.04 134.48 33.09 134.48 31.22 132.61 33.09 130.75 37.04 130.75 37.04 126.79 38.67 125.17 42.62 125.17 42.62 121.21 44.24 119.59 48.2 119.59 48.2 115.63 50.06 113.77 50.13 113.84 50.13 105.72 50.13 105.72 48.27 103.86 48.27 99.9 44.31 99.9 42.69 98.28 42.69 94.32 38.73 94.32 37.11 92.7 37.11 88.74 33.15 88.74 31.29 86.88 33.15 85.02 37.11 85.02 37.11 81.06 38.73 79.44 42.69 79.44 42.69 75.48 44.31 73.86 48.27 73.86 48.27 69.9 50.13 68.04 43.89 68.04 43.89 70.04 42.62 71.32 38.31 71.32 38.31 75.62 37.04 76.89 32.74 76.89 32.74 81.2 31.22 82.71 29.36 80.85 29.36 76.89 25.4 76.89 23.78 75.27 23.78 71.32 19.82 71.32 18.2 69.69 18.2 68.04 12.32 68.04 12.32 68.04 14.16 69.89 14.16 73.88 18.15 73.88 19.74 75.46 19.74 79.45 23.73 79.45 25.32 81.04 25.32 85.03 29.31 85.03 31.16 86.88 29.29 88.74 24.99 88.74 24.99 93.05 23.71 94.32 19.41 94.32 19.41 98.63 18.14 99.9 13.83 99.9 13.83 104.21 12.32 105.72 12.32 109.61 14.18 107.74 18.14 107.74 18.14 103.79 19.76 102.16 23.71 102.16 23.71 98.21 25.34 96.58 29.29 96.58 29.29 92.63 31.16 90.76 33 92.61 33 96.6 36.99 96.6 38.58 98.19 38.58 102.18 42.57 102.18 44.16 103.77 44.16 107.76 48.15 107.76 50 109.61 48.13 111.47 43.83 111.47 43.83 115.78 42.56 117.05 38.25 117.05 38.25 121.35 36.98 122.63 32.67 122.63 32.67 126.93 31.16 128.45 29.29 126.58 29.29 122.63 25.34 122.63 23.71 121 23.71 117.05 19.76 117.05 18.14 115.43 18.14 111.47 14.18 111.47 12.32 109.61 12.32 113.84 14.1 115.62 14.1 119.61 18.09 119.61 19.68 121.2 19.68 125.19 23.66 125.19 25.25 126.78 25.25 130.76 29.24 130.76 31.09 132.61 29.23 134.48 24.92 134.48 24.92 138.78 23.65 140.05 19.34 140.05 19.34 144.36 18.07 145.63 13.76 145.63 13.76 149.94 12.32 151.39 12.32 156.43 14.15 154.6 18.1 154.6 18.1 150.64 19.73 149.02 23.68 149.02 23.68 145.06 25.3 143.44 29.26 143.44 29.26 139.48 31.12 137.62 32.97 139.47 32.97 143.46 36.96 143.46 38.55 145.05 38.55 149.03 42.54 149.03 44.13 150.62 44.13 154.61 48.12 154.61 49.96 156.46 48.1 158.32 43.79 158.32 43.79 162.63 42.52 163.9 38.22 163.9 38.22 168.21 36.94 169.48 32.64 169.48 32.64 173.79 31.12 175.3 29.26 173.44 29.26 169.48 25.3 169.48 23.68 167.86 23.68 163.9 19.73 163.9 18.1 162.28 18.1 158.32 14.15 158.32 12.32 156.49 12.32 160.73 14.06 162.47 14.06 166.46 18.05 166.46 19.64 168.05 19.64 172.04 23.63 172.04 25.22 173.63 25.22 177.62 29.21 177.62 31.06 179.47 29.19 181.33 24.89 181.33 24.89 185.64 23.61 186.91 19.31 186.91 19.31 191.22 18.04 192.49 13.73 192.49 13.73 196.79 12.32 198.21 12.32 202.09 14.08 200.33 18.04 200.33 18.04 196.37 19.66 194.75 23.61 194.75 23.61 190.79 25.24 189.17 29.19 189.17 29.19 185.22 31.06 183.35 32.9 185.2 32.9 189.19 36.89 189.19 38.48 190.78 38.48 194.77 42.47 194.77 44.06 196.36 44.06 200.35 48.05 200.35 49.9 202.19 48.03 204.06 43.73 204.06 43.73 208.36 42.46 209.63 38.15 209.63 38.15 213.94 36.88 215.21 32.57 215.21 32.57 219.52 31.06 221.03 29.19 219.17 29.19 215.21 25.24 215.21 23.61 213.59 23.61 209.63 19.66 209.63 18.04 208.01 18.04 204.06 14.08 204.06 12.32 202.29 12.32 206.52 14 208.21 14 212.19 17.99 212.19 19.58 213.78 19.58 217.77 23.57 217.77 25.15 219.36 25.15 223.35 29.14 223.35 30.99 225.2 29.13 227.06 24.82 227.06 24.82 231.37 23.55 232.64 19.24 232.64 19.24 236.95 17.97 238.22 13.66 238.22 13.66 242.53 12.32 243.87 12.32 248.07 14.05 246.34 18 246.34 18 242.39 19.63 240.76 23.58 240.76 23.58 236.81 25.2 235.18 29.16 235.18 29.16 231.23 31.02 229.36 32.87 231.21 32.87 235.2 36.86 235.2 38.45 236.79 38.45 240.78 42.44 240.78 44.03 242.37 44.03 246.36 48.02 246.36 49.87 248.21 48 250.07 43.69 250.07 43.69 254.38 42.42 255.65 38.12 255.65 38.12 259.95 36.84 261.23 32.54 261.23 32.54 265.53 31.02 267.05 29.16 265.18 29.16 261.23 25.2 261.23 23.58 259.6 23.58 255.65 19.63 255.65 18 254.03 18 250.07 14.05 250.07 12.32 248.34 12.32 252.57 13.96 254.22 13.96 258.21 17.95 258.21 19.54 259.8 19.54 263.79 23.53 263.79 25.12 265.38 25.12 269.36 29.11 269.36 30.96 271.21 29.09 273.08 24.79 273.08 24.79 277.38 23.52 278.65 19.21 278.65 19.21 282.96 17.94 284.23 13.63 284.23 13.63 288.54 12.32 289.85 12.32 293.74 13.98 292.07 17.94 292.07 17.94 288.12 19.56 286.5 23.52 286.5 23.52 282.54 25.14 280.92 29.09 280.92 29.09 276.96 30.96 275.1 32.81 276.94 32.81 280.93 36.79 280.93 38.38 282.52 38.38 286.51 42.37 286.51 43.96 288.1 43.96 292.09 47.95 292.09 49.8 293.94 47.94 295.8 43.63 295.8 43.63 300.11 42.36 301.38 38.05 301.38 38.05 305.69 36.78 306.96 32.47 306.96 32.47 311.27 30.96 312.78 29.09 310.91 29.09 306.96 25.14 306.96 23.52 305.34 23.52 301.38 19.56 301.38 17.94 299.76 17.94 295.8 13.98 295.8 12.32 294.14 12.32 298.37 13.9 299.95 13.9 303.94 17.89 303.94 19.48 305.53 19.48 309.52 23.47 309.52 25.06 311.11 25.06 315.1 29.04 315.1 30.89 316.94 29.03 318.81 24.72 318.81 24.72 323.11 23.45 324.39 19.14 324.39 19.14 328.69 17.87 329.97 13.56 329.97 13.56 334.27 12.32 335.52 12.32 341.35 14.18 339.49 18.14 339.49"/>
        <rect class="cls-7" x="28.37" y="106.82" width="5.58" height="5.58"/>
        <rect class="cls-7" x="28.37" y="338.56" width="5.58" height="5.58"/>
        <polygon class="cls-7" points="50.13 68.04 50.13 68.04 50.13 68.04 50.13 68.04"/>
        <rect class="cls-7" x="12.32" y="314.16" width="2.52" height="5.58"/>
      </g>
    </g>
    <g class="cls-6">
      <polygon class="cls-2" points="501.03 328.31 504.65 324.69 485.81 305.85 485.81 321.16 470.51 321.16 466.97 324.69 485.81 343.53 485.81 328.31 501.03 328.31"/>
      <polygon class="cls-2" points="500.71 365.99 504.32 362.37 485.48 343.53 485.48 358.83 470.18 358.83 466.64 362.37 485.48 381.21 485.48 365.99 500.71 365.99"/>
      <polygon class="cls-2" points="501.19 403.67 504.81 400.05 485.97 381.21 485.97 396.51 470.67 396.51 467.13 400.05 485.97 418.89 485.97 403.67 501.19 403.67"/>
    </g>
  </g>
</svg>