<?xml version="1.0" encoding="UTF-8"?>
<svg id="Layer_2" data-name="Layer 2" xmlns="http://www.w3.org/2000/svg" xmlns:xlink="http://www.w3.org/1999/xlink" viewBox="0 0 521.18 521.18">
  <defs>
    <style>
      .cls-1 {
        fill: #e3d8ba;
      }

      .cls-2 {
        fill: #639589;
      }

      .cls-3 {
        fill: #f5b75a;
      }

      .cls-4, .cls-5, .cls-6 {
        fill: none;
      }

      .cls-5 {
        clip-path: url(#clippath);
      }

      .cls-7 {
        fill: #ec6650;
      }

      .cls-6 {
        clip-path: url(#clippath-1);
      }

      .cls-8 {
        fill: #376899;
      }
    </style>
    <clipPath id="clippath">
      <rect class="cls-4" x="455.54" y="313.4" width="40.36" height="128.01"/>
    </clipPath>
    <clipPath id="clippath-1">
      <rect class="cls-4" x="28.16" y="75.05" width="34.7" height="103.7"/>
    </clipPath>
  </defs>
  <g id="Layer_1-2" data-name="Layer 1">
    <rect class="cls-8" width="521.18" height="521.18"/>
    <rect class="cls-2" x="20.71" y="18.51" width="49.6" height="49.6"/>
    <rect class="cls-2" x="20.71" y="452.35" width="49.6" height="49.6"/>
    <rect class="cls-2" x="450.39" y="18.86" width="49.6" height="49.6"/>
    <rect class="cls-2" x="450.39" y="452.71" width="49.6" height="49.6"/>
    <g>
      <rect class="cls-1" x="62.47" y="45.55" width="7.26" height="7.26" transform="translate(115.28 -16.92) rotate(90)"/>
      <rect class="cls-1" x="55.2" y="52.81" width="7.26" height="7.26" transform="translate(115.28 -2.39) rotate(90)"/>
      <rect class="cls-1" x="47.94" y="60.08" width="7.26" height="7.26" transform="translate(115.28 12.14) rotate(90)"/>
      <rect class="cls-1" x="35.84" y="18.92" width="7.26" height="7.26" transform="translate(62.02 -16.92) rotate(90)"/>
      <rect class="cls-1" x="28.58" y="26.18" width="7.26" height="7.26" transform="translate(62.02 -2.39) rotate(90)"/>
      <rect class="cls-1" x="21.31" y="33.45" width="7.26" height="7.26" transform="translate(62.02 12.14) rotate(90)"/>
      <rect class="cls-1" x="62.47" y="33.88" width="7.26" height="7.26" transform="translate(132.2 75.03) rotate(-180)"/>
      <rect class="cls-1" x="55.2" y="26.62" width="7.26" height="7.26" transform="translate(117.67 60.5) rotate(-180)"/>
      <rect class="cls-1" x="47.94" y="19.35" width="7.26" height="7.26" transform="translate(103.14 45.97) rotate(-180)"/>
      <rect class="cls-1" x="35.82" y="60.08" width="7.26" height="7.26" transform="translate(78.9 127.42) rotate(-180)"/>
      <rect class="cls-1" x="28.55" y="52.81" width="7.26" height="7.26" transform="translate(64.37 112.89) rotate(-180)"/>
      <rect class="cls-1" x="41.88" y="39.49" width="7.26" height="7.26" transform="translate(91.02 86.24) rotate(-180)"/>
      <rect class="cls-1" x="21.29" y="45.55" width="7.26" height="7.26" transform="translate(49.84 98.36) rotate(-180)"/>
    </g>
    <g>
      <rect class="cls-1" x="491.54" y="46.08" width="7.26" height="7.26" transform="translate(544.88 -445.46) rotate(90)"/>
      <rect class="cls-1" x="484.27" y="53.35" width="7.26" height="7.26" transform="translate(544.88 -430.93) rotate(90)"/>
      <rect class="cls-1" x="477.01" y="60.61" width="7.26" height="7.26" transform="translate(544.88 -416.4) rotate(90)"/>
      <rect class="cls-1" x="464.91" y="19.45" width="7.26" height="7.26" transform="translate(491.63 -445.46) rotate(90)"/>
      <rect class="cls-1" x="457.65" y="26.72" width="7.26" height="7.26" transform="translate(491.63 -430.93) rotate(90)"/>
      <rect class="cls-1" x="450.38" y="33.98" width="7.26" height="7.26" transform="translate(491.63 -416.4) rotate(90)"/>
      <rect class="cls-1" x="491.54" y="34.42" width="7.26" height="7.26" transform="translate(990.34 76.1) rotate(-180)"/>
      <rect class="cls-1" x="484.27" y="27.15" width="7.26" height="7.26" transform="translate(975.81 61.57) rotate(-180)"/>
      <rect class="cls-1" x="477.01" y="19.89" width="7.26" height="7.26" transform="translate(961.28 47.04) rotate(-180)"/>
      <rect class="cls-1" x="464.89" y="60.61" width="7.26" height="7.26" transform="translate(937.04 128.49) rotate(-180)"/>
      <rect class="cls-1" x="457.62" y="53.35" width="7.26" height="7.26" transform="translate(922.51 113.96) rotate(-180)"/>
      <rect class="cls-1" x="470.95" y="40.02" width="7.26" height="7.26" transform="translate(949.16 87.31) rotate(-180)"/>
      <rect class="cls-1" x="450.36" y="46.08" width="7.26" height="7.26" transform="translate(907.98 99.43) rotate(-180)"/>
    </g>
    <g>
      <rect class="cls-1" x="493.97" y="480.6" width="7.26" height="7.26" transform="translate(981.83 -13.37) rotate(90)"/>
      <rect class="cls-1" x="486.7" y="487.86" width="7.26" height="7.26" transform="translate(981.83 1.16) rotate(90)"/>
      <rect class="cls-1" x="479.44" y="495.13" width="7.26" height="7.26" transform="translate(981.83 15.69) rotate(90)"/>
      <rect class="cls-1" x="467.34" y="453.97" width="7.26" height="7.26" transform="translate(928.57 -13.37) rotate(90)"/>
      <rect class="cls-1" x="460.07" y="461.23" width="7.26" height="7.26" transform="translate(928.57 1.16) rotate(90)"/>
      <rect class="cls-1" x="452.81" y="468.5" width="7.26" height="7.26" transform="translate(928.57 15.69) rotate(90)"/>
      <rect class="cls-1" x="493.97" y="468.93" width="7.26" height="7.26" transform="translate(995.2 945.13) rotate(-180)"/>
      <rect class="cls-1" x="486.7" y="461.67" width="7.26" height="7.26" transform="translate(980.67 930.6) rotate(-180)"/>
      <rect class="cls-1" x="479.44" y="454.4" width="7.26" height="7.26" transform="translate(966.14 916.07) rotate(-180)"/>
      <rect class="cls-1" x="467.32" y="495.13" width="7.26" height="7.26" transform="translate(941.9 997.52) rotate(-180)"/>
      <rect class="cls-1" x="460.05" y="487.86" width="7.26" height="7.26" transform="translate(927.37 982.99) rotate(-180)"/>
      <rect class="cls-1" x="473.38" y="474.54" width="7.26" height="7.26" transform="translate(954.02 956.34) rotate(-180)"/>
      <rect class="cls-1" x="452.79" y="480.6" width="7.26" height="7.26" transform="translate(912.84 968.46) rotate(-180)"/>
    </g>
    <g>
      <rect class="cls-1" x="62.47" y="478.18" width="7.26" height="7.26" transform="translate(547.91 415.71) rotate(90)"/>
      <rect class="cls-1" x="55.2" y="485.44" width="7.26" height="7.26" transform="translate(547.91 430.24) rotate(90)"/>
      <rect class="cls-1" x="47.94" y="492.71" width="7.26" height="7.26" transform="translate(547.91 444.77) rotate(90)"/>
      <rect class="cls-1" x="35.84" y="451.55" width="7.26" height="7.26" transform="translate(494.66 415.71) rotate(90)"/>
      <rect class="cls-1" x="28.58" y="458.82" width="7.26" height="7.26" transform="translate(494.66 430.24) rotate(90)"/>
      <rect class="cls-1" x="21.31" y="466.08" width="7.26" height="7.26" transform="translate(494.66 444.77) rotate(90)"/>
      <rect class="cls-1" x="62.47" y="466.52" width="7.26" height="7.26" transform="translate(132.2 940.3) rotate(-180)"/>
      <rect class="cls-1" x="55.2" y="459.25" width="7.26" height="7.26" transform="translate(117.67 925.77) rotate(-180)"/>
      <rect class="cls-1" x="47.94" y="451.99" width="7.26" height="7.26" transform="translate(103.14 911.24) rotate(-180)"/>
      <rect class="cls-1" x="35.82" y="492.71" width="7.26" height="7.26" transform="translate(78.9 992.68) rotate(-180)"/>
      <rect class="cls-1" x="28.55" y="485.44" width="7.26" height="7.26" transform="translate(64.37 978.15) rotate(-180)"/>
      <rect class="cls-1" x="41.88" y="472.12" width="7.26" height="7.26" transform="translate(91.02 951.5) rotate(-180)"/>
      <rect class="cls-1" x="21.29" y="478.18" width="7.26" height="7.26" transform="translate(49.84 963.62) rotate(-180)"/>
    </g>
    <path class="cls-7" d="m47.94,427.71h5.15l2.11-2.11v-5.15h5.15l2.11-2.11v-5.15h5.15l2.43-2.43-1.97-1.97h-5.61v-5.61l-1.66-1.66h-5.61v-5.61l-1.66-1.66h-5.61v-5.61l-2.43-2.43-2.41,2.41v5.2h-5.2l-2.07,2.07v5.2h-5.2l-2.07,2.07v5.2h-5.2l-2.41,2.41,2.43,2.43h5.15v5.15l2.11,2.11h5.15v5.15l2.11,2.11h5.15v5.15l2.43,2.43,2.43-2.43v-5.15Zm-6.06-13.32v-7.26h7.26v7.26h-7.26Z"/>
    <g>
      <rect class="cls-3" x="91.45" y="498.68" width="7.26" height="3.63"/>
      <rect class="cls-3" x="151.01" y="498.77" width="7.26" height="3.55"/>
      <rect class="cls-3" x="212.03" y="498.81" width="7.26" height="3.5"/>
      <rect class="cls-3" x="271.59" y="498.9" width="7.26" height="3.42"/>
      <rect class="cls-3" x="91.45" y="453.07" width="7.26" height="3.63"/>
      <rect class="cls-3" x="391.07" y="453.07" width="7.26" height="3.98"/>
      <rect class="cls-3" x="331.51" y="498.94" width="7.26" height="3.37"/>
      <rect class="cls-3" x="271.59" y="453.07" width="7.26" height="3.85"/>
      <rect class="cls-3" x="212.03" y="453.07" width="7.26" height="3.76"/>
      <rect class="cls-3" x="151.01" y="453.07" width="7.26" height="3.72"/>
      <rect class="cls-3" x="331.51" y="453.07" width="7.26" height="3.89"/>
      <rect class="cls-3" x="361.11" y="474.4" width="7.26" height="7.26"/>
      <rect class="cls-3" x="301.55" y="474.32" width="7.27" height="7.26"/>
      <polygon class="cls-3" points="434.32 499.99 439.52 499.99 439.52 494.8 441.59 492.73 446.78 492.73 446.78 487.53 448.85 485.46 450.63 485.46 450.63 478.18 448.6 480.2 443.45 480.2 443.45 485.36 441.34 487.47 436.19 487.47 436.19 492.62 434.07 494.73 428.92 494.73 428.92 499.89 426.49 502.31 432 502.31 434.32 499.99"/>
      <rect class="cls-3" x="241.63" y="474.27" width="7.26" height="7.26"/>
      <rect class="cls-3" x="182.07" y="474.19" width="7.26" height="7.26"/>
      <polygon class="cls-3" points="424.07 494.73 418.91 494.73 416.8 492.62 416.8 487.47 411.65 487.47 409.54 485.36 409.54 480.2 404.38 480.2 401.96 477.78 404.36 475.37 409.56 475.37 409.56 470.18 411.63 468.11 416.82 468.11 416.82 462.91 418.89 460.84 424.09 460.84 424.09 455.65 426.49 453.24 428.92 455.67 428.92 461.28 434.53 461.28 436.19 462.93 436.19 468.54 441.79 468.54 443.45 470.2 443.45 475.81 449.06 475.81 450.63 477.37 450.63 470.11 448.88 470.11 446.76 468 446.76 462.85 441.61 462.85 439.5 460.73 439.5 455.58 434.35 455.58 431.92 453.15 432 453.07 418.9 453.07 419.24 453.41 416.81 455.84 411.66 455.84 411.66 460.99 409.55 463.1 404.4 463.1 404.4 468.26 402.28 470.37 397.13 470.37 397.13 475.52 394.7 477.95 392.28 475.52 392.28 470.37 387.12 470.37 385.01 468.26 385.01 463.1 379.86 463.1 377.75 460.99 377.75 455.84 372.59 455.84 370.17 453.41 370.51 453.07 359.42 453.07 359.68 453.33 357.26 455.75 352.1 455.75 352.1 460.91 349.99 463.02 344.84 463.02 344.84 468.17 342.73 470.28 337.57 470.28 337.57 475.44 335.15 477.86 332.72 475.44 332.72 470.28 327.57 470.28 325.45 468.17 325.45 463.02 320.3 463.02 318.19 460.91 318.19 455.75 313.04 455.75 310.61 453.33 310.87 453.07 299.54 453.07 299.76 453.28 297.33 455.71 292.18 455.71 292.18 460.86 290.07 462.98 284.92 462.98 284.92 468.13 282.8 470.24 277.65 470.24 277.65 475.39 275.22 477.82 272.8 475.39 272.8 470.24 267.64 470.24 265.53 468.13 265.53 462.98 260.38 462.98 258.27 460.86 258.27 455.71 253.11 455.71 250.69 453.28 250.9 453.07 240.07 453.07 240.2 453.2 237.77 455.62 232.62 455.62 232.62 460.78 230.51 462.89 225.36 462.89 225.36 468.04 223.24 470.15 218.09 470.15 218.09 475.31 215.66 477.73 213.24 475.31 213.24 470.15 208.09 470.15 205.97 468.04 205.97 462.89 200.82 462.89 198.71 460.78 198.71 455.62 193.56 455.62 191.13 453.2 191.26 453.07 179.1 453.07 179.18 453.15 176.75 455.58 171.6 455.58 171.6 460.73 169.49 462.85 164.34 462.85 164.34 468 162.22 470.11 157.07 470.11 157.07 475.26 154.64 477.69 152.22 475.26 152.22 470.11 147.07 470.11 144.95 468 144.95 462.85 139.8 462.85 137.69 460.73 137.69 455.58 132.54 455.58 130.11 453.15 130.19 453.07 119.62 453.07 119.62 453.07 117.2 455.49 112.04 455.49 112.04 460.65 109.93 462.76 104.78 462.76 104.78 467.91 102.67 470.02 97.51 470.02 97.51 475.18 95.09 477.6 92.66 475.18 92.66 470.02 87.51 470.02 85.39 467.91 85.39 462.76 80.24 462.76 78.13 460.65 78.13 455.49 72.98 455.49 70.55 453.07 70.55 461.19 73.16 461.19 74.82 462.85 74.82 468.45 80.43 468.45 82.08 470.11 82.08 475.72 87.69 475.72 89.66 477.69 87.23 480.12 82.08 480.12 82.08 485.27 79.97 487.38 74.82 487.38 74.82 492.54 72.7 494.65 70.55 494.65 70.55 502.31 70.55 502.31 72.96 499.91 78.15 499.91 78.15 494.71 80.22 492.64 85.42 492.64 85.42 487.45 87.49 485.38 92.68 485.38 92.68 480.18 95.09 477.78 97.51 480.2 97.51 485.81 103.12 485.81 104.78 487.47 104.78 493.08 110.39 493.08 112.04 494.73 112.04 500.34 117.65 500.34 119.62 502.31 124.68 502.31 122.26 499.89 122.26 494.73 117.1 494.73 114.99 492.62 114.99 487.47 109.84 487.47 107.73 485.36 107.73 480.2 102.57 480.2 100.15 477.78 102.55 475.37 107.75 475.37 107.75 470.18 109.82 468.11 115.01 468.11 115.01 462.91 117.08 460.84 122.28 460.84 122.28 455.65 124.68 453.24 127.11 455.67 127.11 461.28 132.72 461.28 134.38 462.93 134.38 468.54 139.98 468.54 141.64 470.2 141.64 475.81 147.25 475.81 149.22 477.78 146.79 480.2 141.64 480.2 141.64 485.36 139.53 487.47 134.38 487.47 134.38 492.62 132.26 494.73 127.11 494.73 127.11 499.89 124.68 502.31 130.19 502.31 132.51 499.99 137.71 499.99 137.71 494.8 139.78 492.73 144.97 492.73 144.97 487.53 147.04 485.46 152.24 485.46 152.24 480.27 154.64 477.86 157.07 480.29 157.07 485.9 162.68 485.9 164.34 487.56 164.34 493.16 169.95 493.16 171.6 494.82 171.6 500.43 177.21 500.43 179.1 502.31 185.66 502.31 183.28 499.93 183.28 494.78 178.12 494.78 176.01 492.66 176.01 487.51 170.86 487.51 168.75 485.4 168.75 480.25 163.59 480.25 161.17 477.82 163.57 475.41 168.77 475.41 168.77 470.22 170.84 468.15 176.03 468.15 176.03 462.95 178.1 460.88 183.3 460.88 183.3 455.69 185.7 453.28 188.13 455.71 188.13 461.32 193.74 461.32 195.4 462.98 195.4 468.58 201 468.58 202.66 470.24 202.66 475.85 208.27 475.85 210.24 477.82 207.81 480.25 202.66 480.25 202.66 485.4 200.55 487.51 195.4 487.51 195.4 492.66 193.28 494.78 188.13 494.78 188.13 499.93 185.75 502.31 191.26 502.31 193.53 500.04 198.73 500.04 198.73 494.84 200.8 492.77 205.99 492.77 205.99 487.58 208.06 485.51 213.26 485.51 213.26 480.31 215.66 477.91 218.09 480.33 218.09 485.94 223.7 485.94 225.36 487.6 225.36 493.21 230.97 493.21 232.62 494.86 232.62 500.47 238.23 500.47 240.07 502.31 245.13 502.31 242.83 500.02 242.83 494.86 237.68 494.86 235.57 492.75 235.57 487.6 230.42 487.6 228.3 485.49 228.3 480.33 223.15 480.33 220.72 477.91 223.13 475.5 228.33 475.5 228.33 470.31 230.39 468.24 235.59 468.24 235.59 463.04 237.66 460.97 242.86 460.97 242.86 455.78 245.26 453.37 247.69 455.8 247.69 461.41 253.3 461.41 254.95 463.06 254.95 468.67 260.56 468.67 262.22 470.33 262.22 475.94 267.83 475.94 269.8 477.91 267.37 480.33 262.22 480.33 262.22 485.49 260.11 487.6 254.95 487.6 254.95 492.75 252.84 494.86 247.69 494.86 247.69 500.02 245.39 502.31 250.9 502.31 253.09 500.12 258.29 500.12 258.29 494.93 260.36 492.86 265.55 492.86 265.55 487.66 267.62 485.59 272.82 485.59 272.82 480.4 275.22 477.99 277.65 480.42 277.65 486.03 283.26 486.03 284.92 487.68 284.92 493.29 290.52 493.29 292.18 494.95 292.18 500.56 297.79 500.56 299.54 502.31 305.01 502.31 302.76 500.06 302.76 494.91 297.61 494.91 295.49 492.79 295.49 487.64 290.34 487.64 288.23 485.53 288.23 480.38 283.07 480.38 280.65 477.95 283.05 475.54 288.25 475.54 288.25 470.35 290.32 468.28 295.51 468.28 295.51 463.08 297.58 461.01 302.78 461.01 302.78 455.82 305.18 453.41 307.61 455.84 307.61 461.45 313.22 461.45 314.88 463.1 314.88 468.71 320.49 468.71 322.14 470.37 322.14 475.98 327.75 475.98 329.72 477.95 327.29 480.38 322.14 480.38 322.14 485.53 320.03 487.64 314.88 487.64 314.88 492.79 312.76 494.91 307.61 494.91 307.61 500.06 305.36 502.31 310.87 502.31 313.02 500.17 318.21 500.17 318.21 494.97 320.28 492.9 325.48 492.9 325.48 487.71 327.55 485.64 332.74 485.64 332.74 480.44 335.15 478.04 337.57 480.46 337.57 486.07 343.18 486.07 344.84 487.73 344.84 493.34 350.45 493.34 352.1 494.99 352.1 500.6 357.71 500.6 359.42 502.31 364.48 502.31 362.32 500.15 362.32 494.99 357.16 494.99 355.05 492.88 355.05 487.73 349.9 487.73 347.79 485.61 347.79 480.46 342.63 480.46 340.21 478.04 342.61 475.63 347.81 475.63 347.81 470.43 349.88 468.36 355.07 468.36 355.07 463.17 357.14 461.1 362.34 461.1 362.34 455.9 364.74 453.5 367.17 455.93 367.17 461.53 372.78 461.53 374.44 463.19 374.44 468.8 380.04 468.8 381.7 470.46 381.7 476.06 387.31 476.06 389.28 478.04 386.85 480.46 381.7 480.46 381.7 485.61 379.59 487.73 374.44 487.73 374.44 492.88 372.32 494.99 367.17 494.99 367.17 500.15 365 502.31 370.51 502.31 372.57 500.25 377.77 500.25 377.77 495.06 379.84 492.99 385.03 492.99 385.03 487.79 387.1 485.72 392.3 485.72 392.3 480.53 394.7 478.12 397.13 480.55 397.13 486.16 402.74 486.16 404.4 487.81 404.4 493.42 410.01 493.42 411.66 495.08 411.66 500.69 417.27 500.69 418.9 502.31 426.49 502.31 424.07 499.89 424.07 494.73"/>
      <rect class="cls-3" x="121.05" y="474.14" width="7.27" height="7.26"/>
      <rect class="cls-3" x="422.86" y="474.14" width="7.26" height="7.26"/>
      <polygon class="cls-3" points="70.55 453.07 70.55 453.07 70.55 453.07 70.55 453.07"/>
      <rect class="cls-3" x="391.07" y="499.03" width="7.26" height="3.29"/>
    </g>
    <g>
      <g>
        <rect class="cls-7" x="482.36" y="302.88" width="7.26" height="7.26" transform="translate(-74.39 433.43) rotate(-45)"/>
        <rect class="cls-7" x="472.09" y="302.88" width="7.26" height="7.26" transform="translate(-77.4 426.16) rotate(-45)"/>
        <rect class="cls-7" x="461.81" y="302.88" width="7.26" height="7.26" transform="translate(-80.41 418.9) rotate(-45)"/>
        <rect class="cls-7" x="482.36" y="265.22" width="7.26" height="7.26" transform="translate(-47.77 422.4) rotate(-45)"/>
        <rect class="cls-7" x="472.09" y="265.22" width="7.26" height="7.26" transform="translate(-50.78 415.13) rotate(-45)"/>
        <rect class="cls-7" x="461.81" y="265.22" width="7.26" height="7.26" transform="translate(-53.78 407.87) rotate(-45)"/>
        <rect class="cls-7" x="490.61" y="294.64" width="7.26" height="7.26" transform="translate(-66.15 436.84) rotate(-45)"/>
        <rect class="cls-7" x="490.61" y="284.36" width="7.26" height="7.26" transform="translate(-58.88 433.83) rotate(-45)"/>
        <rect class="cls-7" x="490.61" y="274.09" width="7.26" height="7.26" transform="translate(-51.62 430.82) rotate(-45)"/>
        <rect class="cls-7" x="453.24" y="294.31" width="7.26" height="7.26" transform="translate(-76.86 410.33) rotate(-45)"/>
        <rect class="cls-7" x="453.24" y="284.04" width="7.26" height="7.26" transform="translate(-69.6 407.32) rotate(-45)"/>
        <rect class="cls-7" x="453.24" y="273.76" width="7.26" height="7.26" transform="translate(-62.33 404.31) rotate(-45)"/>
      </g>
      <path class="cls-7" d="m467.59,298.3l2.65,2.65h2.17s2.65-2.65,2.65-2.65l2.65,2.65h2.17s2.65-2.65,2.65-2.65l2.65,2.65h2.5s0-2.03,0-2.03l-2.89-2.89,2.89-2.89v-1.7l-2.89-2.89,2.89-2.89v-1.7s-2.89-2.89-2.89-2.89l2.89-2.89v-2.5h-2.48s-2.67,2.67-2.67,2.67l-2.67-2.67h-2.13s-2.67,2.67-2.67,2.67l-2.67-2.67h-2.13s-2.67,2.67-2.67,2.67l-2.67-2.67h-2.48s0,2.5,0,2.5l2.65,2.65-2.65,2.65v2.17s2.65,2.65,2.65,2.65l-2.65,2.65v2.17s2.65,2.65,2.65,2.65l-2.65,2.65v2.5h2.5l2.65-2.65Zm3.74-9.97l3.74-3.74,3.74,3.74-3.74,3.74-3.74-3.74Z"/>
    </g>
    <g>
      <g>
        <rect class="cls-3" x="481.87" y="241.79" width="7.26" height="7.26" transform="translate(-31.34 415.19) rotate(-45)"/>
        <rect class="cls-3" x="471.6" y="241.79" width="7.26" height="7.26" transform="translate(-34.34 407.92) rotate(-45)"/>
        <rect class="cls-3" x="461.32" y="241.79" width="7.26" height="7.26" transform="translate(-37.35 400.66) rotate(-45)"/>
        <rect class="cls-3" x="481.87" y="204.13" width="7.26" height="7.26" transform="translate(-4.71 404.16) rotate(-45)"/>
        <rect class="cls-3" x="471.6" y="204.13" width="7.26" height="7.26" transform="translate(-7.72 396.89) rotate(-45)"/>
        <rect class="cls-3" x="461.32" y="204.13" width="7.26" height="7.26" transform="translate(-10.73 389.63) rotate(-45)"/>
        <rect class="cls-3" x="490.12" y="233.54" width="7.26" height="7.26" transform="translate(-23.09 418.6) rotate(-45)"/>
        <rect class="cls-3" x="490.12" y="223.26" width="7.26" height="7.26" transform="translate(-15.82 415.59) rotate(-45)"/>
        <rect class="cls-3" x="490.12" y="212.99" width="7.26" height="7.26" transform="translate(-8.56 412.58) rotate(-45)"/>
        <rect class="cls-3" x="452.75" y="233.22" width="7.26" height="7.26" transform="translate(-33.8 392.09) rotate(-45)"/>
        <rect class="cls-3" x="452.75" y="222.94" width="7.26" height="7.26" transform="translate(-26.54 389.08) rotate(-45)"/>
        <rect class="cls-3" x="452.75" y="212.67" width="7.26" height="7.26" transform="translate(-19.27 386.07) rotate(-45)"/>
      </g>
      <path class="cls-3" d="m467.11,237.2l2.65,2.65h2.17s2.65-2.65,2.65-2.65l2.65,2.65h2.17s2.65-2.65,2.65-2.65l2.65,2.65h2.5s0-2.03,0-2.03l-2.89-2.89,2.89-2.89v-1.7l-2.89-2.89,2.89-2.89v-1.7s-2.89-2.89-2.89-2.89l2.89-2.89v-2.5h-2.48s-2.67,2.67-2.67,2.67l-2.67-2.67h-2.13s-2.67,2.67-2.67,2.67l-2.67-2.67h-2.13s-2.67,2.67-2.67,2.67l-2.67-2.67h-2.48s0,2.5,0,2.5l2.65,2.65-2.65,2.65v2.17s2.65,2.65,2.65,2.65l-2.65,2.65v2.17s2.65,2.65,2.65,2.65l-2.65,2.65v2.5h2.5l2.65-2.65Zm3.74-9.97l3.74-3.74,3.74,3.74-3.74,3.74-3.74-3.74Z"/>
    </g>
    <g>
      <g>
        <rect class="cls-2" x="482.12" y="180.69" width="7.26" height="7.26" transform="translate(11.94 397.46) rotate(-45)"/>
        <rect class="cls-2" x="471.84" y="180.69" width="7.26" height="7.26" transform="translate(8.93 390.2) rotate(-45)"/>
        <rect class="cls-2" x="461.57" y="180.69" width="7.26" height="7.26" transform="translate(5.92 382.93) rotate(-45)"/>
        <rect class="cls-2" x="482.12" y="143.03" width="7.26" height="7.26" transform="translate(38.57 386.43) rotate(-45)"/>
        <rect class="cls-2" x="471.84" y="143.03" width="7.26" height="7.26" transform="translate(35.56 379.17) rotate(-45)"/>
        <rect class="cls-2" x="461.57" y="143.03" width="7.26" height="7.26" transform="translate(32.55 371.9) rotate(-45)"/>
        <rect class="cls-2" x="490.36" y="172.44" width="7.26" height="7.26" transform="translate(20.19 400.88) rotate(-45)"/>
        <rect class="cls-2" x="490.36" y="162.17" width="7.26" height="7.26" transform="translate(27.45 397.87) rotate(-45)"/>
        <rect class="cls-2" x="490.36" y="151.89" width="7.26" height="7.26" transform="translate(34.72 394.86) rotate(-45)"/>
        <rect class="cls-2" x="453" y="172.12" width="7.26" height="7.26" transform="translate(9.47 374.36) rotate(-45)"/>
        <rect class="cls-2" x="453" y="161.84" width="7.26" height="7.26" transform="translate(16.74 371.35) rotate(-45)"/>
        <rect class="cls-2" x="453" y="151.57" width="7.26" height="7.26" transform="translate(24 368.34) rotate(-45)"/>
      </g>
      <path class="cls-2" d="m467.35,176.1l2.65,2.65h2.17s2.65-2.65,2.65-2.65l2.65,2.65h2.17s2.65-2.65,2.65-2.65l2.65,2.65h2.5s0-2.03,0-2.03l-2.89-2.89,2.89-2.89v-1.7l-2.89-2.89,2.89-2.89v-1.7s-2.89-2.89-2.89-2.89l2.89-2.89v-2.5h-2.48s-2.67,2.67-2.67,2.67l-2.67-2.67h-2.13s-2.67,2.67-2.67,2.67l-2.67-2.67h-2.13s-2.67,2.67-2.67,2.67l-2.67-2.67h-2.48s0,2.5,0,2.5l2.65,2.65-2.65,2.65v2.17s2.65,2.65,2.65,2.65l-2.65,2.65v2.17s2.65,2.65,2.65,2.65l-2.65,2.65v2.5h2.5l2.65-2.65Zm3.74-9.97l3.74-3.74,3.74,3.74-3.74,3.74-3.74-3.74Z"/>
    </g>
    <g>
      <g>
        <rect class="cls-2" x="481.63" y="119.59" width="7.26" height="7.26" transform="translate(55 379.22) rotate(-45)"/>
        <rect class="cls-2" x="471.35" y="119.59" width="7.26" height="7.26" transform="translate(51.99 371.96) rotate(-45)"/>
        <rect class="cls-2" x="461.08" y="119.59" width="7.26" height="7.26" transform="translate(48.98 364.69) rotate(-45)"/>
        <rect class="cls-2" x="481.63" y="81.93" width="7.26" height="7.26" transform="translate(81.63 368.19) rotate(-45)"/>
        <rect class="cls-2" x="471.35" y="81.93" width="7.26" height="7.26" transform="translate(78.62 360.93) rotate(-45)"/>
        <rect class="cls-2" x="461.08" y="81.93" width="7.26" height="7.26" transform="translate(75.61 353.66) rotate(-45)"/>
        <rect class="cls-2" x="489.88" y="111.34" width="7.26" height="7.26" transform="translate(63.25 382.64) rotate(-45)"/>
        <rect class="cls-2" x="489.88" y="101.07" width="7.26" height="7.26" transform="translate(70.51 379.63) rotate(-45)"/>
        <rect class="cls-2" x="489.88" y="90.79" width="7.26" height="7.26" transform="translate(77.78 376.62) rotate(-45)"/>
        <rect class="cls-2" x="452.51" y="111.02" width="7.26" height="7.26" transform="translate(52.53 356.12) rotate(-45)"/>
        <rect class="cls-2" x="452.51" y="100.75" width="7.26" height="7.26" transform="translate(59.79 353.11) rotate(-45)"/>
        <rect class="cls-2" x="452.51" y="90.47" width="7.26" height="7.26" transform="translate(67.06 350.1) rotate(-45)"/>
      </g>
      <path class="cls-2" d="m466.86,115l2.65,2.65h2.17s2.65-2.65,2.65-2.65l2.65,2.65h2.17s2.65-2.65,2.65-2.65l2.65,2.65h2.5s0-2.03,0-2.03l-2.89-2.89,2.89-2.89v-1.7l-2.89-2.89,2.89-2.89v-1.7s-2.89-2.89-2.89-2.89l2.89-2.89v-2.5h-2.48s-2.67,2.67-2.67,2.67l-2.67-2.67h-2.13s-2.67,2.67-2.67,2.67l-2.67-2.67h-2.13s-2.67,2.67-2.67,2.67l-2.67-2.67h-2.48s0,2.5,0,2.5l2.65,2.65-2.65,2.65v2.17s2.65,2.65,2.65,2.65l-2.65,2.65v2.17s2.65,2.65,2.65,2.65l-2.65,2.65v2.5h2.5l2.65-2.65Zm3.74-9.97l3.74-3.74,3.74,3.74-3.74,3.74-3.74-3.74Z"/>
    </g>
    <path class="cls-3" d="m47.94,361.57h5.15l2.11-2.11v-5.15h5.15l2.11-2.11v-5.15h5.15l2.43-2.43-1.97-1.97h-5.61v-5.61l-1.66-1.66h-5.61v-5.61l-1.66-1.66h-5.61v-5.61l-2.43-2.43-2.41,2.41v5.2h-5.2l-2.07,2.07v5.2h-5.2l-2.07,2.07v5.2h-5.2l-2.41,2.41,2.43,2.43h5.15v5.15l2.11,2.11h5.15v5.15l2.11,2.11h5.15v5.15l2.43,2.43,2.43-2.43v-5.15Zm-6.06-13.32v-7.26h7.26v7.26h-7.26Z"/>
    <path class="cls-2" d="m47.94,295.42h5.15l2.11-2.11v-5.15h5.15l2.11-2.11v-5.15h5.15l2.43-2.43-1.97-1.97h-5.61v-5.61l-1.66-1.66h-5.61v-5.61l-1.66-1.66h-5.61v-5.61l-2.43-2.43-2.41,2.41v5.2h-5.2l-2.07,2.07v5.2h-5.2l-2.07,2.07v5.2h-5.2l-2.41,2.41,2.43,2.43h5.15v5.15l2.11,2.11h5.15v5.15l2.11,2.11h5.15v5.15l2.43,2.43,2.43-2.43v-5.15Zm-6.06-13.32v-7.26h7.26v7.26h-7.26Z"/>
    <path class="cls-2" d="m47.94,229.28h5.15l2.11-2.11v-5.15h5.15l2.11-2.11v-5.15h5.15l2.43-2.43-1.97-1.97h-5.61v-5.61l-1.66-1.66h-5.61v-5.61l-1.66-1.66h-5.61v-5.61l-2.43-2.43-2.41,2.41v5.2h-5.2l-2.07,2.07v5.2h-5.2l-2.07,2.07v5.2h-5.2l-2.41,2.41,2.43,2.43h5.15v5.15l2.11,2.11h5.15v5.15l2.11,2.11h5.15v5.15l2.43,2.43,2.43-2.43v-5.15Zm-6.06-13.32v-7.26h7.26v7.26h-7.26Z"/>
    <polygon class="cls-7" points="100.09 26.67 96.14 22.72 75.55 43.31 92.27 43.31 92.27 60.03 96.14 63.9 116.73 43.31 100.09 43.31 100.09 26.67"/>
    <polygon class="cls-7" points="141.26 27.03 137.31 23.08 116.73 43.66 133.45 43.66 133.45 60.39 137.31 64.25 157.9 43.66 141.26 43.66 141.26 27.03"/>
    <polygon class="cls-7" points="182.44 26.49 178.49 22.54 157.9 43.13 174.62 43.13 174.62 59.85 178.49 63.72 199.07 43.13 182.44 43.13 182.44 26.49"/>
    <polygon class="cls-7" points="223.61 26.85 219.66 22.9 199.07 43.49 215.8 43.49 215.8 60.21 219.66 64.07 240.25 43.49 223.61 43.49 223.61 26.85"/>
    <polygon class="cls-7" points="263.6 26.94 259.65 22.99 239.06 43.58 255.78 43.58 255.78 60.3 259.65 64.16 280.24 43.58 263.6 43.58 263.6 26.94"/>
    <polygon class="cls-7" points="304.77 27.3 300.82 23.34 280.24 43.93 296.96 43.93 296.96 60.65 300.82 64.52 321.41 43.93 304.77 43.93 304.77 27.3"/>
    <polygon class="cls-7" points="345.95 26.76 342 22.81 321.41 43.4 338.13 43.4 338.13 60.12 342 63.98 362.58 43.4 345.95 43.4 345.95 26.76"/>
    <polygon class="cls-7" points="387.12 27.12 383.17 23.17 362.58 43.75 379.31 43.75 379.31 60.48 383.17 64.34 403.76 43.75 387.12 43.75 387.12 27.12"/>
    <polygon class="cls-7" points="427.03 27.3 423.08 23.34 402.49 43.93 419.21 43.93 419.21 60.65 423.08 64.52 443.67 43.93 427.03 43.93 427.03 27.3"/>
    <g class="cls-5">
      <g>
        <rect class="cls-7" x="455.54" y="331.92" width="2.98" height="5.95"/>
        <rect class="cls-7" x="455.54" y="380.72" width="2.91" height="5.95"/>
        <rect class="cls-7" x="455.54" y="430.72" width="2.87" height="5.95"/>
        <rect class="cls-7" x="455.54" y="479.53" width="2.8" height="5.95"/>
        <rect class="cls-7" x="492.92" y="331.92" width="2.98" height="5.95"/>
        <rect class="cls-7" x="492.74" y="479.53" width="3.15" height="5.95"/>
        <rect class="cls-7" x="492.81" y="430.72" width="3.08" height="5.95"/>
        <rect class="cls-7" x="492.85" y="380.72" width="3.05" height="5.95"/>
        <rect class="cls-7" x="472.53" y="504.08" width="5.95" height="5.95"/>
        <rect class="cls-7" x="472.57" y="454.98" width="5.95" height="5.95"/>
        <rect class="cls-7" x="472.64" y="406.17" width="5.95" height="5.95"/>
        <polygon class="cls-7" points="461.75 604.48 461.75 600.26 463.48 598.53 467.71 598.53 467.71 594.3 469.44 592.57 473.66 592.57 473.66 588.35 475.65 586.36 477.62 588.33 477.62 592.59 481.88 592.59 483.57 594.29 483.57 598.54 487.83 598.54 489.53 600.24 489.53 604.5 493.78 604.5 495.76 606.47 493.77 608.46 489.17 608.46 489.17 613.05 487.81 614.41 483.22 614.41 483.22 619.01 481.86 620.36 477.26 620.36 477.26 624.96 475.98 626.25 481.93 626.25 481.93 624.81 483.66 623.08 487.88 623.08 487.88 618.86 489.62 617.12 493.84 617.12 493.84 612.9 495.83 610.91 495.9 610.98 495.9 600.24 495.61 600.53 493.63 598.54 493.63 594.31 489.4 594.31 487.67 592.58 487.67 588.36 483.45 588.36 481.72 586.63 481.72 582.41 477.5 582.41 475.51 580.42 477.5 578.43 481.72 578.43 481.72 574.21 483.45 572.48 487.67 572.48 487.67 568.25 489.4 566.52 493.63 566.52 493.63 562.3 495.61 560.31 495.9 560.59 495.9 551.51 495.69 551.72 493.7 549.73 493.7 545.51 489.47 545.51 487.74 543.78 487.74 539.56 483.52 539.56 481.79 537.82 481.79 533.6 477.57 533.6 475.58 531.61 477.57 529.62 481.79 529.62 481.79 525.4 483.52 523.67 487.74 523.67 487.74 519.45 489.47 517.72 493.7 517.72 493.7 513.49 495.69 511.51 495.9 511.72 495.9 502.44 495.72 502.61 493.73 500.63 493.73 496.4 489.51 496.4 487.78 494.67 487.78 490.45 483.56 490.45 481.82 488.72 481.82 484.5 477.6 484.5 475.61 482.51 477.6 480.52 481.82 480.52 481.82 476.3 483.56 474.56 487.78 474.56 487.78 470.34 489.51 468.61 493.73 468.61 493.73 464.39 495.72 462.4 495.9 462.58 495.9 453.7 495.79 453.81 493.8 451.82 493.8 447.6 489.58 447.6 487.85 445.87 487.85 441.64 483.63 441.64 481.9 439.91 481.9 435.69 477.67 435.69 475.68 433.7 477.67 431.71 481.9 431.71 481.9 427.49 483.63 425.76 487.85 425.76 487.85 421.54 489.58 419.81 493.8 419.81 493.8 415.58 495.79 413.59 495.9 413.7 495.9 403.73 495.83 403.81 493.84 401.82 493.84 397.59 489.62 397.59 487.88 395.86 487.88 391.64 483.66 391.64 481.93 389.91 481.93 385.69 477.71 385.69 475.72 383.7 477.71 381.71 481.93 381.71 481.93 377.49 483.66 375.76 487.88 375.76 487.88 371.53 489.62 369.8 493.84 369.8 493.84 365.58 495.83 363.59 495.9 363.66 495.9 355 495.9 355 493.91 353.01 493.91 348.79 489.69 348.79 487.95 347.06 487.95 342.83 483.73 342.83 482 341.1 482 336.88 477.78 336.88 475.79 334.89 477.78 332.9 482 332.9 482 328.68 483.73 326.95 487.95 326.95 487.95 322.73 489.69 321 493.91 321 493.91 316.77 495.9 314.78 489.24 314.78 489.24 316.92 487.88 318.28 483.29 318.28 483.29 322.88 481.93 324.24 477.33 324.24 477.33 328.83 475.72 330.45 473.73 328.46 473.73 324.24 469.51 324.24 467.78 322.5 467.78 318.28 463.56 318.28 461.82 316.55 461.82 314.78 455.54 314.78 455.54 314.78 457.51 316.76 457.51 321.01 461.77 321.01 463.47 322.71 463.47 326.97 467.72 326.97 469.42 328.66 469.42 332.92 473.68 332.92 475.65 334.89 473.66 336.88 469.06 336.88 469.06 341.48 467.71 342.83 463.11 342.83 463.11 347.43 461.75 348.79 457.16 348.79 457.16 353.38 455.54 355 455.54 359.15 457.53 357.16 461.75 357.16 461.75 352.93 463.48 351.2 467.71 351.2 467.71 346.98 469.44 345.25 473.66 345.25 473.66 341.03 475.65 339.04 477.62 341.01 477.62 345.27 481.88 345.27 483.57 346.96 483.57 351.22 487.83 351.22 489.53 352.92 489.53 357.17 493.78 357.17 495.76 359.15 493.77 361.13 489.17 361.13 489.17 365.73 487.81 367.09 483.22 367.09 483.22 371.68 481.86 373.04 477.26 373.04 477.26 377.64 475.65 379.25 473.66 377.26 473.66 373.04 469.44 373.04 467.71 371.31 467.71 367.09 463.48 367.09 461.75 365.36 461.75 361.13 457.53 361.13 455.54 359.15 455.54 363.66 457.44 365.56 457.44 369.82 461.7 369.82 463.4 371.52 463.4 375.77 467.65 375.77 469.35 377.47 469.35 381.73 473.61 381.73 475.58 383.7 473.59 385.69 468.99 385.69 468.99 390.28 467.64 391.64 463.04 391.64 463.04 396.24 461.68 397.59 457.09 397.59 457.09 402.19 455.54 403.73 455.54 409.11 457.5 407.16 461.72 407.16 461.72 402.94 463.45 401.21 467.67 401.21 467.67 396.98 469.4 395.25 473.62 395.25 473.62 391.03 475.61 389.04 477.59 391.01 477.59 395.27 481.84 395.27 483.54 396.97 483.54 401.22 487.8 401.22 489.49 402.92 489.49 407.18 493.75 407.18 495.72 409.15 493.73 411.14 489.14 411.14 489.14 415.73 487.78 417.09 483.18 417.09 483.18 421.69 481.82 423.04 477.23 423.04 477.23 427.64 475.61 429.26 473.62 427.27 473.62 423.04 469.4 423.04 467.67 421.31 467.67 417.09 463.45 417.09 461.72 415.36 461.72 411.14 457.5 411.14 455.54 409.18 455.54 413.7 457.41 415.57 457.41 419.82 461.66 419.82 463.36 421.52 463.36 425.78 467.62 425.78 469.31 427.47 469.31 431.73 473.57 431.73 475.54 433.7 473.55 435.69 468.96 435.69 468.96 440.29 467.6 441.64 463 441.64 463 446.24 461.65 447.6 457.05 447.6 457.05 452.19 455.54 453.7 455.54 457.85 457.42 455.97 461.65 455.97 461.65 451.74 463.38 450.01 467.6 450.01 467.6 445.79 469.33 444.06 473.55 444.06 473.55 439.84 475.54 437.85 477.51 439.82 477.51 444.08 481.77 444.08 483.47 445.77 483.47 450.03 487.73 450.03 489.42 451.73 489.42 455.98 493.68 455.98 495.65 457.95 493.66 459.94 489.06 459.94 489.06 464.54 487.71 465.9 483.11 465.9 483.11 470.49 481.75 471.85 477.16 471.85 477.16 476.45 475.54 478.06 473.55 476.07 473.55 471.85 469.33 471.85 467.6 470.12 467.6 465.9 463.38 465.9 461.65 464.17 461.65 459.94 457.42 459.94 455.54 458.06 455.54 462.58 457.34 464.37 457.34 468.63 461.59 468.63 463.29 470.32 463.29 474.58 467.55 474.58 469.24 476.28 469.24 480.54 473.5 480.54 475.47 482.51 473.48 484.5 468.89 484.5 468.89 489.09 467.53 490.45 462.93 490.45 462.93 495.05 461.58 496.4 456.98 496.4 456.98 501 455.54 502.44 455.54 506.92 457.39 505.07 461.61 505.07 461.61 500.85 463.34 499.12 467.56 499.12 467.56 494.9 469.3 493.16 473.52 493.16 473.52 488.94 475.51 486.95 477.48 488.92 477.48 493.18 481.74 493.18 483.43 494.88 483.43 499.14 487.69 499.14 489.39 500.83 489.39 505.09 493.64 505.09 495.61 507.06 493.63 509.05 489.03 509.05 489.03 513.65 487.67 515 483.08 515 483.08 519.6 481.72 520.96 477.12 520.96 477.12 525.55 475.51 527.17 473.52 525.18 473.52 520.96 469.3 520.96 467.56 519.22 467.56 515 463.34 515 461.61 513.27 461.61 509.05 457.39 509.05 455.54 507.2 455.54 511.72 457.3 513.48 457.3 517.73 461.56 517.73 463.25 519.43 463.25 523.69 467.51 523.69 469.21 525.38 469.21 529.64 473.47 529.64 475.44 531.61 473.45 533.6 468.85 533.6 468.85 538.2 467.49 539.56 462.9 539.56 462.9 544.15 461.54 545.51 456.94 545.51 456.94 550.1 455.54 551.51 455.54 555.65 457.32 553.88 461.54 553.88 461.54 549.65 463.27 547.92 467.49 547.92 467.49 543.7 469.23 541.97 473.45 541.97 473.45 537.75 475.44 535.76 477.41 537.73 477.41 541.99 481.67 541.99 483.36 543.68 483.36 547.94 487.62 547.94 489.32 549.64 489.32 553.89 493.57 553.89 495.54 555.87 493.55 557.85 488.96 557.85 488.96 562.45 487.6 563.81 483.01 563.81 483.01 568.4 481.65 569.76 477.05 569.76 477.05 574.36 475.44 575.97 473.45 573.98 473.45 569.76 469.23 569.76 467.49 568.03 467.49 563.81 463.27 563.81 461.54 562.08 461.54 557.85 457.32 557.85 455.54 556.08 455.54 560.59 457.23 562.28 457.23 566.54 461.49 566.54 463.18 568.24 463.18 572.49 467.44 572.49 469.14 574.19 469.14 578.45 473.39 578.45 475.37 580.42 473.38 582.41 468.78 582.41 468.78 587 467.42 588.36 462.83 588.36 462.83 592.96 461.47 594.31 456.87 594.31 456.87 598.91 455.54 600.24 455.54 606.47 457.53 604.48 461.75 604.48"/>
        <rect class="cls-7" x="472.67" y="356.17" width="5.95" height="5.95"/>
        <polygon class="cls-7" points="495.9 314.78 495.9 314.78 495.9 314.78 495.9 314.78"/>
      </g>
    </g>
    <g class="cls-6">
      <polygon class="cls-2" points="62.24 96.7 66.19 92.75 45.6 72.16 45.6 88.89 28.88 88.89 25.01 92.75 45.6 113.34 45.6 96.7 62.24 96.7"/>
      <polygon class="cls-2" points="61.88 137.88 65.83 133.93 45.24 113.34 45.24 130.06 28.52 130.06 24.66 133.93 45.24 154.51 45.24 137.88 61.88 137.88"/>
      <polygon class="cls-2" points="62.41 179.05 66.37 175.1 45.78 154.51 45.78 171.23 29.06 171.23 25.19 175.1 45.78 195.69 45.78 179.05 62.41 179.05"/>
    </g>
  </g>
</svg>