<?xml version="1.0" encoding="UTF-8"?>
<svg id="Layer_2" data-name="Layer 2" xmlns="http://www.w3.org/2000/svg" xmlns:xlink="http://www.w3.org/1999/xlink" viewBox="0 0 516.53 505.18">
  <defs>
    <style>
      .cls-1 {
        fill: #e3d8ba;
      }

      .cls-2 {
        fill: #639589;
      }

      .cls-3 {
        fill: #f5b75a;
      }

      .cls-4, .cls-5, .cls-6 {
        fill: none;
      }

      .cls-5 {
        clip-path: url(#clippath);
      }

      .cls-7 {
        fill: #ec6650;
      }

      .cls-6 {
        clip-path: url(#clippath-1);
      }

      .cls-8 {
        fill: #376899;
      }
    </style>
    <clipPath id="clippath">
      <rect class="cls-4" x="466.69" y="305.54" width="40.36" height="128.01"/>
    </clipPath>
    <clipPath id="clippath-1">
      <rect class="cls-4" x="12.65" y="67.19" width="34.7" height="103.7"/>
    </clipPath>
  </defs>
  <g id="Layer_1-2" data-name="Layer 1">
    <rect class="cls-8" width="516.53" height="505.18"/>
    <rect class="cls-2" x="5.2" y="10.65" width="49.6" height="49.6"/>
    <rect class="cls-2" x="5.2" y="444.5" width="49.6" height="49.6"/>
    <rect class="cls-2" x="461.53" y="11" width="49.6" height="49.6"/>
    <rect class="cls-2" x="461.53" y="444.85" width="49.6" height="49.6"/>
    <g>
      <rect class="cls-1" x="46.96" y="37.69" width="7.26" height="7.26" transform="translate(91.92 -9.27) rotate(90)"/>
      <rect class="cls-1" x="39.7" y="44.95" width="7.26" height="7.26" transform="translate(91.92 5.26) rotate(90)"/>
      <rect class="cls-1" x="32.43" y="52.22" width="7.26" height="7.26" transform="translate(91.92 19.79) rotate(90)"/>
      <rect class="cls-1" x="20.33" y="11.06" width="7.26" height="7.26" transform="translate(38.66 -9.27) rotate(90)"/>
      <rect class="cls-1" x="13.07" y="18.32" width="7.26" height="7.26" transform="translate(38.66 5.26) rotate(90)"/>
      <rect class="cls-1" x="5.8" y="25.59" width="7.26" height="7.26" transform="translate(38.66 19.79) rotate(90)"/>
      <rect class="cls-1" x="46.96" y="26.02" width="7.26" height="7.26" transform="translate(101.19 59.31) rotate(-180)"/>
      <rect class="cls-1" x="39.7" y="18.76" width="7.26" height="7.26" transform="translate(86.66 44.78) rotate(-180)"/>
      <rect class="cls-1" x="32.43" y="11.49" width="7.26" height="7.26" transform="translate(72.13 30.25) rotate(-180)"/>
      <rect class="cls-1" x="20.31" y="52.22" width="7.26" height="7.26" transform="translate(47.89 111.7) rotate(-180)"/>
      <rect class="cls-1" x="13.05" y="44.95" width="7.26" height="7.26" transform="translate(33.36 97.17) rotate(-180)"/>
      <rect class="cls-1" x="26.37" y="31.63" width="7.26" height="7.26" transform="translate(60.01 70.52) rotate(-180)"/>
      <rect class="cls-1" x="5.78" y="37.69" width="7.26" height="7.26" transform="translate(18.83 82.64) rotate(-180)"/>
    </g>
    <g>
      <rect class="cls-1" x="502.68" y="38.22" width="7.26" height="7.26" transform="translate(548.17 -464.46) rotate(90)"/>
      <rect class="cls-1" x="495.42" y="45.49" width="7.26" height="7.26" transform="translate(548.17 -449.93) rotate(90)"/>
      <rect class="cls-1" x="488.15" y="52.75" width="7.26" height="7.26" transform="translate(548.17 -435.4) rotate(90)"/>
      <rect class="cls-1" x="476.05" y="11.59" width="7.26" height="7.26" transform="translate(494.91 -464.46) rotate(90)"/>
      <rect class="cls-1" x="468.79" y="18.86" width="7.26" height="7.26" transform="translate(494.91 -449.93) rotate(90)"/>
      <rect class="cls-1" x="461.52" y="26.12" width="7.26" height="7.26" transform="translate(494.91 -435.4) rotate(90)"/>
      <rect class="cls-1" x="502.68" y="26.56" width="7.26" height="7.26" transform="translate(1012.63 60.38) rotate(-180)"/>
      <rect class="cls-1" x="495.42" y="19.29" width="7.26" height="7.26" transform="translate(998.1 45.85) rotate(-180)"/>
      <rect class="cls-1" x="488.15" y="12.03" width="7.26" height="7.26" transform="translate(983.57 31.32) rotate(-180)"/>
      <rect class="cls-1" x="476.03" y="52.75" width="7.26" height="7.26" transform="translate(959.33 112.77) rotate(-180)"/>
      <rect class="cls-1" x="468.77" y="45.49" width="7.26" height="7.26" transform="translate(944.8 98.24) rotate(-180)"/>
      <rect class="cls-1" x="482.09" y="32.16" width="7.26" height="7.26" transform="translate(971.45 71.59) rotate(-180)"/>
      <rect class="cls-1" x="461.5" y="38.22" width="7.26" height="7.26" transform="translate(930.27 83.71) rotate(-180)"/>
    </g>
    <g>
      <rect class="cls-1" x="505.11" y="472.74" width="7.26" height="7.26" transform="translate(985.11 -32.37) rotate(90)"/>
      <rect class="cls-1" x="497.84" y="480" width="7.26" height="7.26" transform="translate(985.11 -17.84) rotate(90)"/>
      <rect class="cls-1" x="490.58" y="487.27" width="7.26" height="7.26" transform="translate(985.11 -3.31) rotate(90)"/>
      <rect class="cls-1" x="478.48" y="446.11" width="7.26" height="7.26" transform="translate(931.86 -32.37) rotate(90)"/>
      <rect class="cls-1" x="471.22" y="453.37" width="7.26" height="7.26" transform="translate(931.86 -17.84) rotate(90)"/>
      <rect class="cls-1" x="463.95" y="460.64" width="7.26" height="7.26" transform="translate(931.86 -3.31) rotate(90)"/>
      <rect class="cls-1" x="505.11" y="461.07" width="7.26" height="7.26" transform="translate(1017.48 929.41) rotate(-180)"/>
      <rect class="cls-1" x="497.84" y="453.81" width="7.26" height="7.26" transform="translate(1002.95 914.88) rotate(-180)"/>
      <rect class="cls-1" x="490.58" y="446.54" width="7.26" height="7.26" transform="translate(988.42 900.35) rotate(-180)"/>
      <rect class="cls-1" x="478.46" y="487.27" width="7.26" height="7.26" transform="translate(964.18 981.8) rotate(-180)"/>
      <rect class="cls-1" x="471.19" y="480" width="7.26" height="7.26" transform="translate(949.65 967.27) rotate(-180)"/>
      <rect class="cls-1" x="484.52" y="466.68" width="7.26" height="7.26" transform="translate(976.3 940.62) rotate(-180)"/>
      <rect class="cls-1" x="463.93" y="472.74" width="7.26" height="7.26" transform="translate(935.12 952.74) rotate(-180)"/>
    </g>
    <g>
      <rect class="cls-1" x="46.96" y="470.32" width="7.26" height="7.26" transform="translate(524.55 423.36) rotate(90)"/>
      <rect class="cls-1" x="39.7" y="477.59" width="7.26" height="7.26" transform="translate(524.55 437.89) rotate(90)"/>
      <rect class="cls-1" x="32.43" y="484.85" width="7.26" height="7.26" transform="translate(524.55 452.42) rotate(90)"/>
      <rect class="cls-1" x="20.33" y="443.69" width="7.26" height="7.26" transform="translate(471.29 423.36) rotate(90)"/>
      <rect class="cls-1" x="13.07" y="450.96" width="7.26" height="7.26" transform="translate(471.29 437.89) rotate(90)"/>
      <rect class="cls-1" x="5.8" y="458.22" width="7.26" height="7.26" transform="translate(471.29 452.42) rotate(90)"/>
      <rect class="cls-1" x="46.96" y="458.66" width="7.26" height="7.26" transform="translate(101.19 924.58) rotate(-180)"/>
      <rect class="cls-1" x="39.7" y="451.39" width="7.26" height="7.26" transform="translate(86.66 910.05) rotate(-180)"/>
      <rect class="cls-1" x="32.43" y="444.13" width="7.26" height="7.26" transform="translate(72.13 895.52) rotate(-180)"/>
      <rect class="cls-1" x="20.31" y="484.85" width="7.26" height="7.26" transform="translate(47.89 976.97) rotate(-180)"/>
      <rect class="cls-1" x="13.05" y="477.59" width="7.26" height="7.26" transform="translate(33.36 962.44) rotate(-180)"/>
      <rect class="cls-1" x="26.37" y="464.26" width="7.26" height="7.26" transform="translate(60.01 935.79) rotate(-180)"/>
      <rect class="cls-1" x="5.78" y="470.32" width="7.26" height="7.26" transform="translate(18.83 947.91) rotate(-180)"/>
    </g>
    <path class="cls-7" d="m32.43,419.85h5.15l2.11-2.11v-5.15h5.15l2.11-2.11v-5.15h5.15l2.43-2.43-1.97-1.97h-5.61v-5.61l-1.66-1.66h-5.61v-5.61l-1.66-1.66h-5.61v-5.61l-2.43-2.43-2.41,2.41v5.2h-5.2l-2.07,2.07v5.2h-5.2l-2.07,2.07v5.2h-5.2l-2.41,2.41,2.43,2.43h5.15v5.15l2.11,2.11h5.15v5.15l2.11,2.11h5.15v5.15l2.43,2.43,2.43-2.43v-5.15Zm-6.06-13.32v-7.26h7.26v7.26h-7.26Z"/>
    <g>
      <rect class="cls-3" x="88.07" y="490.82" width="7.26" height="3.63"/>
      <rect class="cls-3" x="147.63" y="490.91" width="7.26" height="3.55"/>
      <rect class="cls-3" x="208.65" y="490.95" width="7.26" height="3.5"/>
      <rect class="cls-3" x="268.2" y="491.04" width="7.26" height="3.42"/>
      <rect class="cls-3" x="88.07" y="445.21" width="7.26" height="3.63"/>
      <rect class="cls-3" x="387.69" y="445.21" width="7.26" height="3.98"/>
      <rect class="cls-3" x="328.13" y="491.08" width="7.26" height="3.37"/>
      <rect class="cls-3" x="268.2" y="445.21" width="7.26" height="3.85"/>
      <rect class="cls-3" x="208.65" y="445.21" width="7.26" height="3.76"/>
      <rect class="cls-3" x="147.63" y="445.21" width="7.26" height="3.72"/>
      <rect class="cls-3" x="328.13" y="445.21" width="7.26" height="3.89"/>
      <rect class="cls-3" x="357.72" y="466.54" width="7.26" height="7.26"/>
      <rect class="cls-3" x="298.17" y="466.46" width="7.27" height="7.26"/>
      <polygon class="cls-3" points="430.94 492.14 436.13 492.14 436.13 486.94 438.2 484.87 443.4 484.87 443.4 479.68 445.47 477.61 447.24 477.61 447.24 470.32 445.22 472.35 440.06 472.35 440.06 477.5 437.95 479.61 432.8 479.61 432.8 484.76 430.69 486.88 425.53 486.88 425.53 492.03 423.11 494.45 428.62 494.45 430.94 492.14"/>
      <rect class="cls-3" x="238.24" y="466.41" width="7.26" height="7.26"/>
      <rect class="cls-3" x="178.68" y="466.33" width="7.26" height="7.26"/>
      <polygon class="cls-3" points="420.68 486.88 415.53 486.88 413.41 484.76 413.41 479.61 408.26 479.61 406.15 477.5 406.15 472.35 401 472.35 398.57 469.92 400.98 467.51 406.17 467.51 406.17 462.32 408.24 460.25 413.44 460.25 413.44 455.05 415.51 452.98 420.7 452.98 420.7 447.79 423.11 445.38 425.53 447.81 425.53 453.42 431.14 453.42 432.8 455.07 432.8 460.68 438.41 460.68 440.06 462.34 440.06 467.95 445.67 467.95 447.24 469.52 447.24 462.25 445.49 462.25 443.38 460.14 443.38 454.99 438.22 454.99 436.11 452.87 436.11 447.72 430.96 447.72 428.53 445.29 428.62 445.21 415.51 445.21 415.85 445.55 413.43 447.98 408.28 447.98 408.28 453.13 406.16 455.25 401.01 455.25 401.01 460.4 398.9 462.51 393.75 462.51 393.75 467.66 391.32 470.09 388.89 467.66 388.89 462.51 383.74 462.51 381.63 460.4 381.63 455.25 376.47 455.25 374.36 453.13 374.36 447.98 369.21 447.98 366.78 445.55 367.13 445.21 356.04 445.21 356.3 445.47 353.87 447.89 348.72 447.89 348.72 453.05 346.6 455.16 341.45 455.16 341.45 460.31 339.34 462.42 334.19 462.42 334.19 467.58 331.76 470 329.33 467.58 329.33 462.42 324.18 462.42 322.07 460.31 322.07 455.16 316.92 455.16 314.8 453.05 314.8 447.89 309.65 447.89 307.22 445.47 307.48 445.21 296.16 445.21 296.37 445.42 293.95 447.85 288.79 447.85 288.79 453 286.68 455.12 281.53 455.12 281.53 460.27 279.42 462.38 274.26 462.38 274.26 467.53 271.84 469.96 269.41 467.53 269.41 462.38 264.26 462.38 262.14 460.27 262.14 455.12 256.99 455.12 254.88 453 254.88 447.85 249.73 447.85 247.3 445.42 247.51 445.21 236.69 445.21 236.82 445.34 234.39 447.77 229.24 447.77 229.24 452.92 227.12 455.03 221.97 455.03 221.97 460.18 219.86 462.3 214.71 462.3 214.71 467.45 212.28 469.87 209.85 467.45 209.85 462.3 204.7 462.3 202.59 460.18 202.59 455.03 197.43 455.03 195.32 452.92 195.32 447.77 190.17 447.77 187.74 445.34 187.87 445.21 175.71 445.21 175.8 445.29 173.37 447.72 168.22 447.72 168.22 452.87 166.1 454.99 160.95 454.99 160.95 460.14 158.84 462.25 153.69 462.25 153.69 467.4 151.26 469.83 148.83 467.4 148.83 462.25 143.68 462.25 141.57 460.14 141.57 454.99 136.41 454.99 134.3 452.87 134.3 447.72 129.15 447.72 126.72 445.29 126.81 445.21 116.24 445.21 116.24 445.21 113.81 447.64 108.66 447.64 108.66 452.79 106.54 454.9 101.39 454.9 101.39 460.05 99.28 462.17 94.13 462.17 94.13 467.32 91.7 469.75 89.27 467.32 89.27 462.17 84.12 462.17 82.01 460.05 82.01 454.9 76.86 454.9 74.74 452.79 74.74 447.64 69.59 447.64 67.16 445.21 67.16 453.33 69.77 453.33 71.43 454.99 71.43 460.6 77.04 460.6 78.7 462.25 78.7 467.86 84.3 467.86 86.28 469.83 83.85 472.26 78.7 472.26 78.7 477.41 76.58 479.52 71.43 479.52 71.43 484.68 69.32 486.79 67.16 486.79 67.16 494.45 67.16 494.45 69.57 492.05 74.76 492.05 74.76 486.85 76.83 484.78 82.03 484.78 82.03 479.59 84.1 477.52 89.29 477.52 89.29 472.32 91.7 469.92 94.13 472.35 94.13 477.95 99.74 477.95 101.39 479.61 101.39 485.22 107 485.22 108.66 486.88 108.66 492.48 114.27 492.48 116.24 494.45 121.3 494.45 118.87 492.03 118.87 486.88 113.72 486.88 111.6 484.76 111.6 479.61 106.45 479.61 104.34 477.5 104.34 472.35 99.19 472.35 96.76 469.92 99.17 467.51 104.36 467.51 104.36 462.32 106.43 460.25 111.63 460.25 111.63 455.05 113.7 452.98 118.89 452.98 118.89 447.79 121.3 445.38 123.72 447.81 123.72 453.42 129.33 453.42 130.99 455.07 130.99 460.68 136.6 460.68 138.25 462.34 138.25 467.95 143.86 467.95 145.83 469.92 143.41 472.35 138.25 472.35 138.25 477.5 136.14 479.61 130.99 479.61 130.99 484.76 128.88 486.88 123.72 486.88 123.72 492.03 121.3 494.45 126.81 494.45 129.13 492.14 134.32 492.14 134.32 486.94 136.39 484.87 141.59 484.87 141.59 479.68 143.66 477.61 148.85 477.61 148.85 472.41 151.26 470 153.69 472.43 153.69 478.04 159.29 478.04 160.95 479.7 160.95 485.31 166.56 485.31 168.22 486.96 168.22 492.57 173.82 492.57 175.71 494.45 182.27 494.45 179.89 492.07 179.89 486.92 174.74 486.92 172.62 484.81 172.62 479.65 167.47 479.65 165.36 477.54 165.36 472.39 160.21 472.39 157.78 469.96 160.19 467.56 165.38 467.56 165.38 462.36 167.45 460.29 172.65 460.29 172.65 455.09 174.72 453.03 179.91 453.03 179.91 447.83 182.32 445.42 184.74 447.85 184.74 453.46 190.35 453.46 192.01 455.12 192.01 460.73 197.62 460.73 199.27 462.38 199.27 467.99 204.88 467.99 206.85 469.96 204.43 472.39 199.27 472.39 199.27 477.54 197.16 479.65 192.01 479.65 192.01 484.81 189.9 486.92 184.74 486.92 184.74 492.07 182.36 494.45 187.87 494.45 190.15 492.18 195.34 492.18 195.34 486.98 197.41 484.91 202.61 484.91 202.61 479.72 204.68 477.65 209.87 477.65 209.87 472.45 212.28 470.05 214.71 472.47 214.71 478.08 220.31 478.08 221.97 479.74 221.97 485.35 227.58 485.35 229.24 487 229.24 492.61 234.84 492.61 236.69 494.45 241.75 494.45 239.45 492.16 239.45 487 234.29 487 232.18 484.89 232.18 479.74 227.03 479.74 224.92 477.63 224.92 472.47 219.77 472.47 217.34 470.05 219.74 467.64 224.94 467.64 224.94 462.45 227.01 460.38 232.2 460.38 232.2 455.18 234.27 453.11 239.47 453.11 239.47 447.92 241.87 445.51 244.3 447.94 244.3 453.55 249.91 453.55 251.57 455.2 251.57 460.81 257.18 460.81 258.83 462.47 258.83 468.08 264.44 468.08 266.41 470.05 263.98 472.47 258.83 472.47 258.83 477.63 256.72 479.74 251.57 479.74 251.57 484.89 249.45 487 244.3 487 244.3 492.16 242 494.45 247.51 494.45 249.71 492.26 254.9 492.26 254.9 487.07 256.97 485 262.17 485 262.17 479.8 264.24 477.73 269.43 477.73 269.43 472.54 271.84 470.13 274.26 472.56 274.26 478.17 279.87 478.17 281.53 479.83 281.53 485.43 287.14 485.43 288.79 487.09 288.79 492.7 294.4 492.7 296.16 494.45 301.63 494.45 299.37 492.2 299.37 487.05 294.22 487.05 292.11 484.93 292.11 479.78 286.95 479.78 284.84 477.67 284.84 472.52 279.69 472.52 277.26 470.09 279.67 467.68 284.86 467.68 284.86 462.49 286.93 460.42 292.13 460.42 292.13 455.22 294.2 453.15 299.39 453.15 299.39 447.96 301.8 445.55 304.23 447.98 304.23 453.59 309.83 453.59 311.49 455.25 311.49 460.85 317.1 460.85 318.76 462.51 318.76 468.12 324.36 468.12 326.33 470.09 323.91 472.52 318.76 472.52 318.76 477.67 316.64 479.78 311.49 479.78 311.49 484.93 309.38 487.05 304.23 487.05 304.23 492.2 301.97 494.45 307.48 494.45 309.63 492.31 314.82 492.31 314.82 487.11 316.89 485.04 322.09 485.04 322.09 479.85 324.16 477.78 329.35 477.78 329.35 472.58 331.76 470.18 334.19 472.6 334.19 478.21 339.8 478.21 341.45 479.87 341.45 485.48 347.06 485.48 348.72 487.13 348.72 492.74 354.33 492.74 356.04 494.45 361.1 494.45 358.93 492.29 358.93 487.13 353.78 487.13 351.66 485.02 351.66 479.87 346.51 479.87 344.4 477.76 344.4 472.6 339.25 472.6 336.82 470.18 339.23 467.77 344.42 467.77 344.42 462.58 346.49 460.51 351.69 460.51 351.69 455.31 353.76 453.24 358.95 453.24 358.95 448.05 361.36 445.64 363.78 448.07 363.78 453.68 369.39 453.68 371.05 455.33 371.05 460.94 376.66 460.94 378.31 462.6 378.31 468.21 383.92 468.21 385.89 470.18 383.47 472.6 378.31 472.6 378.31 477.76 376.2 479.87 371.05 479.87 371.05 485.02 368.94 487.13 363.78 487.13 363.78 492.29 361.62 494.45 367.13 494.45 369.19 492.39 374.38 492.39 374.38 487.2 376.45 485.13 381.65 485.13 381.65 479.93 383.72 477.86 388.91 477.86 388.91 472.67 391.32 470.26 393.75 472.69 393.75 478.3 399.35 478.3 401.01 479.96 401.01 485.56 406.62 485.56 408.28 487.22 408.28 492.83 413.88 492.83 415.51 494.45 423.11 494.45 420.68 492.03 420.68 486.88"/>
      <rect class="cls-3" x="117.66" y="466.29" width="7.27" height="7.26"/>
      <rect class="cls-3" x="419.47" y="466.29" width="7.26" height="7.26"/>
      <polygon class="cls-3" points="67.16 445.21 67.16 445.21 67.16 445.21 67.16 445.21"/>
      <rect class="cls-3" x="387.69" y="491.17" width="7.26" height="3.29"/>
    </g>
    <g>
      <g>
        <rect class="cls-7" x="493.5" y="295.02" width="7.26" height="7.26" transform="translate(-65.57 439) rotate(-45)"/>
        <rect class="cls-7" x="483.23" y="295.02" width="7.26" height="7.26" transform="translate(-68.58 431.74) rotate(-45)"/>
        <rect class="cls-7" x="472.96" y="295.02" width="7.26" height="7.26" transform="translate(-71.59 424.47) rotate(-45)"/>
        <rect class="cls-7" x="493.5" y="257.37" width="7.26" height="7.26" transform="translate(-38.95 427.97) rotate(-45)"/>
        <rect class="cls-7" x="483.23" y="257.37" width="7.26" height="7.26" transform="translate(-41.95 420.71) rotate(-45)"/>
        <rect class="cls-7" x="472.96" y="257.37" width="7.26" height="7.26" transform="translate(-44.96 413.44) rotate(-45)"/>
        <rect class="cls-7" x="501.75" y="286.78" width="7.26" height="7.26" transform="translate(-57.33 442.42) rotate(-45)"/>
        <rect class="cls-7" x="501.75" y="276.5" width="7.26" height="7.26" transform="translate(-50.06 439.41) rotate(-45)"/>
        <rect class="cls-7" x="501.75" y="266.23" width="7.26" height="7.26" transform="translate(-42.8 436.4) rotate(-45)"/>
        <rect class="cls-7" x="464.39" y="286.45" width="7.26" height="7.26" transform="translate(-68.04 415.9) rotate(-45)"/>
        <rect class="cls-7" x="464.39" y="276.18" width="7.26" height="7.26" transform="translate(-60.78 412.89) rotate(-45)"/>
        <rect class="cls-7" x="464.39" y="265.91" width="7.26" height="7.26" transform="translate(-53.51 409.88) rotate(-45)"/>
      </g>
      <path class="cls-7" d="m478.74,290.44l2.65,2.65h2.17s2.65-2.65,2.65-2.65l2.65,2.65h2.17s2.65-2.65,2.65-2.65l2.65,2.65h2.5s0-2.03,0-2.03l-2.89-2.89,2.89-2.89v-1.7l-2.89-2.89,2.89-2.89v-1.7s-2.89-2.89-2.89-2.89l2.89-2.89v-2.5h-2.48s-2.67,2.67-2.67,2.67l-2.67-2.67h-2.13s-2.67,2.67-2.67,2.67l-2.67-2.67h-2.13s-2.67,2.67-2.67,2.67l-2.67-2.67h-2.48s0,2.5,0,2.5l2.65,2.65-2.65,2.65v2.17s2.65,2.65,2.65,2.65l-2.65,2.65v2.17s2.65,2.65,2.65,2.65l-2.65,2.65v2.5h2.5l2.65-2.65Zm3.74-9.97l3.74-3.74,3.74,3.74-3.74,3.74-3.74-3.74Z"/>
    </g>
    <g>
      <g>
        <rect class="cls-3" x="493.02" y="233.93" width="7.26" height="7.26" transform="translate(-22.51 420.76) rotate(-45)"/>
        <rect class="cls-3" x="482.74" y="233.93" width="7.26" height="7.26" transform="translate(-25.52 413.5) rotate(-45)"/>
        <rect class="cls-3" x="472.47" y="233.93" width="7.26" height="7.26" transform="translate(-28.53 406.23) rotate(-45)"/>
        <rect class="cls-3" x="493.02" y="196.27" width="7.26" height="7.26" transform="translate(4.11 409.73) rotate(-45)"/>
        <rect class="cls-3" x="482.74" y="196.27" width="7.26" height="7.26" transform="translate(1.1 402.47) rotate(-45)"/>
        <rect class="cls-3" x="472.47" y="196.27" width="7.26" height="7.26" transform="translate(-1.9 395.2) rotate(-45)"/>
        <rect class="cls-3" x="501.26" y="225.68" width="7.26" height="7.26" transform="translate(-14.27 424.18) rotate(-45)"/>
        <rect class="cls-3" x="501.26" y="215.4" width="7.26" height="7.26" transform="translate(-7 421.17) rotate(-45)"/>
        <rect class="cls-3" x="501.26" y="205.13" width="7.26" height="7.26" transform="translate(.26 418.16) rotate(-45)"/>
        <rect class="cls-3" x="463.9" y="225.36" width="7.26" height="7.26" transform="translate(-24.98 397.66) rotate(-45)"/>
        <rect class="cls-3" x="463.9" y="215.08" width="7.26" height="7.26" transform="translate(-17.72 394.65) rotate(-45)"/>
        <rect class="cls-3" x="463.9" y="204.81" width="7.26" height="7.26" transform="translate(-10.45 391.64) rotate(-45)"/>
      </g>
      <path class="cls-3" d="m478.25,229.34l2.65,2.65h2.17s2.65-2.65,2.65-2.65l2.65,2.65h2.17s2.65-2.65,2.65-2.65l2.65,2.65h2.5s0-2.03,0-2.03l-2.89-2.89,2.89-2.89v-1.7l-2.89-2.89,2.89-2.89v-1.7s-2.89-2.89-2.89-2.89l2.89-2.89v-2.5h-2.48s-2.67,2.67-2.67,2.67l-2.67-2.67h-2.13s-2.67,2.67-2.67,2.67l-2.67-2.67h-2.13s-2.67,2.67-2.67,2.67l-2.67-2.67h-2.48s0,2.5,0,2.5l2.65,2.65-2.65,2.65v2.17s2.65,2.65,2.65,2.65l-2.65,2.65v2.17s2.65,2.65,2.65,2.65l-2.65,2.65v2.5h2.5l2.65-2.65Zm3.74-9.97l3.74-3.74,3.74,3.74-3.74,3.74-3.74-3.74Z"/>
    </g>
    <g>
      <g>
        <rect class="cls-2" x="493.26" y="172.83" width="7.26" height="7.26" transform="translate(20.76 403.04) rotate(-45)"/>
        <rect class="cls-2" x="482.99" y="172.83" width="7.26" height="7.26" transform="translate(17.75 395.78) rotate(-45)"/>
        <rect class="cls-2" x="472.71" y="172.83" width="7.26" height="7.26" transform="translate(14.74 388.51) rotate(-45)"/>
        <rect class="cls-2" x="493.26" y="135.17" width="7.26" height="7.26" transform="translate(47.39 392.01) rotate(-45)"/>
        <rect class="cls-2" x="482.99" y="135.17" width="7.26" height="7.26" transform="translate(44.38 384.75) rotate(-45)"/>
        <rect class="cls-2" x="472.71" y="135.17" width="7.26" height="7.26" transform="translate(41.37 377.48) rotate(-45)"/>
        <rect class="cls-2" x="501.51" y="164.58" width="7.26" height="7.26" transform="translate(29.01 406.46) rotate(-45)"/>
        <rect class="cls-2" x="501.51" y="154.31" width="7.26" height="7.26" transform="translate(36.27 403.45) rotate(-45)"/>
        <rect class="cls-2" x="501.51" y="144.03" width="7.26" height="7.26" transform="translate(43.54 400.44) rotate(-45)"/>
        <rect class="cls-2" x="464.14" y="164.26" width="7.26" height="7.26" transform="translate(18.29 379.94) rotate(-45)"/>
        <rect class="cls-2" x="464.14" y="153.98" width="7.26" height="7.26" transform="translate(25.56 376.93) rotate(-45)"/>
        <rect class="cls-2" x="464.14" y="143.71" width="7.26" height="7.26" transform="translate(32.82 373.92) rotate(-45)"/>
      </g>
      <path class="cls-2" d="m478.49,168.24l2.65,2.65h2.17s2.65-2.65,2.65-2.65l2.65,2.65h2.17s2.65-2.65,2.65-2.65l2.65,2.65h2.5s0-2.03,0-2.03l-2.89-2.89,2.89-2.89v-1.7l-2.89-2.89,2.89-2.89v-1.7s-2.89-2.89-2.89-2.89l2.89-2.89v-2.5h-2.48s-2.67,2.67-2.67,2.67l-2.67-2.67h-2.13s-2.67,2.67-2.67,2.67l-2.67-2.67h-2.13s-2.67,2.67-2.67,2.67l-2.67-2.67h-2.48s0,2.5,0,2.5l2.65,2.65-2.65,2.65v2.17s2.65,2.65,2.65,2.65l-2.65,2.65v2.17s2.65,2.65,2.65,2.65l-2.65,2.65v2.5h2.5l2.65-2.65Zm3.74-9.97l3.74-3.74,3.74,3.74-3.74,3.74-3.74-3.74Z"/>
    </g>
    <g>
      <g>
        <rect class="cls-2" x="492.77" y="111.73" width="7.26" height="7.26" transform="translate(63.82 384.8) rotate(-45)"/>
        <rect class="cls-2" x="482.5" y="111.73" width="7.26" height="7.26" transform="translate(60.81 377.54) rotate(-45)"/>
        <rect class="cls-2" x="472.22" y="111.73" width="7.26" height="7.26" transform="translate(57.8 370.27) rotate(-45)"/>
        <rect class="cls-2" x="492.77" y="74.07" width="7.26" height="7.26" transform="translate(90.45 373.77) rotate(-45)"/>
        <rect class="cls-2" x="482.5" y="74.07" width="7.26" height="7.26" transform="translate(87.44 366.51) rotate(-45)"/>
        <rect class="cls-2" x="472.22" y="74.07" width="7.26" height="7.26" transform="translate(84.43 359.24) rotate(-45)"/>
        <rect class="cls-2" x="501.02" y="103.48" width="7.26" height="7.26" transform="translate(72.07 388.22) rotate(-45)"/>
        <rect class="cls-2" x="501.02" y="93.21" width="7.26" height="7.26" transform="translate(79.33 385.21) rotate(-45)"/>
        <rect class="cls-2" x="501.02" y="82.94" width="7.26" height="7.26" transform="translate(86.6 382.2) rotate(-45)"/>
        <rect class="cls-2" x="463.65" y="103.16" width="7.26" height="7.26" transform="translate(61.35 361.7) rotate(-45)"/>
        <rect class="cls-2" x="463.65" y="92.89" width="7.26" height="7.26" transform="translate(68.62 358.69) rotate(-45)"/>
        <rect class="cls-2" x="463.65" y="82.61" width="7.26" height="7.26" transform="translate(75.88 355.68) rotate(-45)"/>
      </g>
      <path class="cls-2" d="m478,107.14l2.65,2.65h2.17s2.65-2.65,2.65-2.65l2.65,2.65h2.17s2.65-2.65,2.65-2.65l2.65,2.65h2.5s0-2.03,0-2.03l-2.89-2.89,2.89-2.89v-1.7l-2.89-2.89,2.89-2.89v-1.7s-2.89-2.89-2.89-2.89l2.89-2.89v-2.5h-2.48s-2.67,2.67-2.67,2.67l-2.67-2.67h-2.13s-2.67,2.67-2.67,2.67l-2.67-2.67h-2.13s-2.67,2.67-2.67,2.67l-2.67-2.67h-2.48s0,2.5,0,2.5l2.65,2.65-2.65,2.65v2.17s2.65,2.65,2.65,2.65l-2.65,2.65v2.17s2.65,2.65,2.65,2.65l-2.65,2.65v2.5h2.5l2.65-2.65Zm3.74-9.97l3.74-3.74,3.74,3.74-3.74,3.74-3.74-3.74Z"/>
    </g>
    <path class="cls-3" d="m32.43,353.71h5.15l2.11-2.11v-5.15h5.15l2.11-2.11v-5.15h5.15l2.43-2.43-1.97-1.97h-5.61v-5.61l-1.66-1.66h-5.61v-5.61l-1.66-1.66h-5.61v-5.61l-2.43-2.43-2.41,2.41v5.2h-5.2l-2.07,2.07v5.2h-5.2l-2.07,2.07v5.2h-5.2l-2.41,2.41,2.43,2.43h5.15v5.15l2.11,2.11h5.15v5.15l2.11,2.11h5.15v5.15l2.43,2.43,2.43-2.43v-5.15Zm-6.06-13.32v-7.26h7.26v7.26h-7.26Z"/>
    <path class="cls-2" d="m32.43,287.57h5.15l2.11-2.11v-5.15h5.15l2.11-2.11v-5.15h5.15l2.43-2.43-1.97-1.97h-5.61v-5.61l-1.66-1.66h-5.61v-5.61l-1.66-1.66h-5.61v-5.61l-2.43-2.43-2.41,2.41v5.2h-5.2l-2.07,2.07v5.2h-5.2l-2.07,2.07v5.2h-5.2l-2.41,2.41,2.43,2.43h5.15v5.15l2.11,2.11h5.15v5.15l2.11,2.11h5.15v5.15l2.43,2.43,2.43-2.43v-5.15Zm-6.06-13.32v-7.26h7.26v7.26h-7.26Z"/>
    <path class="cls-2" d="m32.43,221.42h5.15l2.11-2.11v-5.15h5.15l2.11-2.11v-5.15h5.15l2.43-2.43-1.97-1.97h-5.61v-5.61l-1.66-1.66h-5.61v-5.61l-1.66-1.66h-5.61v-5.61l-2.43-2.43-2.41,2.41v5.2h-5.2l-2.07,2.07v5.2h-5.2l-2.07,2.07v5.2h-5.2l-2.41,2.41,2.43,2.43h5.15v5.15l2.11,2.11h5.15v5.15l2.11,2.11h5.15v5.15l2.43,2.43,2.43-2.43v-5.15Zm-6.06-13.32v-7.26h7.26v7.26h-7.26Z"/>
    <polygon class="cls-7" points="96.7 18.81 92.75 14.86 72.16 35.45 88.89 35.45 88.89 52.17 92.75 56.04 113.34 35.45 96.7 35.45 96.7 18.81"/>
    <polygon class="cls-7" points="137.88 19.17 133.93 15.22 113.34 35.81 130.06 35.81 130.06 52.53 133.93 56.39 154.51 35.81 137.88 35.81 137.88 19.17"/>
    <polygon class="cls-7" points="179.05 18.64 175.1 14.68 154.51 35.27 171.23 35.27 171.23 51.99 175.1 55.86 195.69 35.27 179.05 35.27 179.05 18.64"/>
    <polygon class="cls-7" points="220.23 18.99 216.27 15.04 195.69 35.63 212.41 35.63 212.41 52.35 216.27 56.21 236.86 35.63 220.23 35.63 220.23 18.99"/>
    <polygon class="cls-7" points="260.21 19.08 256.26 15.13 235.67 35.72 252.4 35.72 252.4 52.44 256.26 56.3 276.85 35.72 260.21 35.72 260.21 19.08"/>
    <polygon class="cls-7" points="301.39 19.44 297.44 15.49 276.85 36.07 293.57 36.07 293.57 52.79 297.44 56.66 318.02 36.07 301.39 36.07 301.39 19.44"/>
    <polygon class="cls-7" points="342.56 18.9 338.61 14.95 318.02 35.54 334.75 35.54 334.75 52.26 338.61 56.13 359.2 35.54 342.56 35.54 342.56 18.9"/>
    <polygon class="cls-7" points="383.74 19.26 379.79 15.31 359.2 35.89 375.92 35.89 375.92 52.62 379.79 56.48 400.37 35.89 383.74 35.89 383.74 19.26"/>
    <polygon class="cls-7" points="423.64 19.44 419.69 15.49 399.11 36.07 415.83 36.07 415.83 52.79 419.69 56.66 440.28 36.07 423.64 36.07 423.64 19.44"/>
    <g class="cls-5">
      <g>
        <rect class="cls-7" x="466.69" y="324.06" width="2.98" height="5.95"/>
        <rect class="cls-7" x="466.69" y="372.86" width="2.91" height="5.95"/>
        <rect class="cls-7" x="466.69" y="422.87" width="2.87" height="5.95"/>
        <rect class="cls-7" x="466.69" y="471.67" width="2.8" height="5.95"/>
        <rect class="cls-7" x="504.06" y="324.06" width="2.98" height="5.95"/>
        <rect class="cls-7" x="503.89" y="471.67" width="3.15" height="5.95"/>
        <rect class="cls-7" x="503.96" y="422.87" width="3.08" height="5.95"/>
        <rect class="cls-7" x="503.99" y="372.86" width="3.05" height="5.95"/>
        <rect class="cls-7" x="483.67" y="496.22" width="5.95" height="5.95"/>
        <rect class="cls-7" x="483.71" y="447.12" width="5.95" height="5.95"/>
        <rect class="cls-7" x="483.78" y="398.31" width="5.95" height="5.95"/>
        <polygon class="cls-7" points="472.9 596.62 472.9 592.4 474.63 590.67 478.85 590.67 478.85 586.44 480.58 584.71 484.8 584.71 484.8 580.49 486.79 578.5 488.76 580.47 488.76 584.73 493.02 584.73 494.72 586.43 494.72 590.68 498.97 590.68 500.67 592.38 500.67 596.64 504.93 596.64 506.9 598.61 504.91 600.6 500.31 600.6 500.31 605.19 498.96 606.55 494.36 606.55 494.36 611.15 493 612.51 488.41 612.51 488.41 617.1 487.12 618.39 493.07 618.39 493.07 616.95 494.81 615.22 499.03 615.22 499.03 611 500.76 609.27 504.98 609.27 504.98 605.04 506.97 603.05 507.04 603.13 507.04 592.38 506.76 592.67 504.77 590.68 504.77 586.46 500.55 586.46 498.82 584.72 498.82 580.5 494.59 580.5 492.86 578.77 492.86 574.55 488.64 574.55 486.65 572.56 488.64 570.57 492.86 570.57 492.86 566.35 494.59 564.62 498.82 564.62 498.82 560.39 500.55 558.66 504.77 558.66 504.77 554.44 506.76 552.45 507.04 552.73 507.04 543.65 506.83 543.86 504.84 541.87 504.84 537.65 500.62 537.65 498.89 535.92 498.89 531.7 494.66 531.7 492.93 529.96 492.93 525.74 488.71 525.74 486.72 523.75 488.71 521.76 492.93 521.76 492.93 517.54 494.66 515.81 498.89 515.81 498.89 511.59 500.62 509.86 504.84 509.86 504.84 505.64 506.83 503.65 507.04 503.86 507.04 494.58 506.86 494.76 504.88 492.77 504.88 488.54 500.65 488.54 498.92 486.81 498.92 482.59 494.7 482.59 492.97 480.86 492.97 476.64 488.75 476.64 486.76 474.65 488.75 472.66 492.97 472.66 492.97 468.44 494.7 466.71 498.92 466.71 498.92 462.48 500.65 460.75 504.88 460.75 504.88 456.53 506.86 454.54 507.04 454.72 507.04 445.84 506.93 445.95 504.95 443.96 504.95 439.74 500.72 439.74 498.99 438.01 498.99 433.79 494.77 433.79 493.04 432.05 493.04 427.83 488.82 427.83 486.83 425.84 488.82 423.85 493.04 423.85 493.04 419.63 494.77 417.9 498.99 417.9 498.99 413.68 500.72 411.95 504.95 411.95 504.95 407.72 506.93 405.74 507.04 405.84 507.04 395.88 506.97 395.95 504.98 393.96 504.98 389.74 500.76 389.74 499.03 388 499.03 383.78 494.81 383.78 493.07 382.05 493.07 377.83 488.85 377.83 486.86 375.84 488.85 373.85 493.07 373.85 493.07 369.63 494.81 367.9 499.03 367.9 499.03 363.67 500.76 361.94 504.98 361.94 504.98 357.72 506.97 355.73 507.04 355.8 507.04 347.14 507.04 347.14 505.05 345.15 505.05 340.93 500.83 340.93 499.1 339.2 499.1 334.98 494.88 334.98 493.14 333.24 493.14 329.02 488.92 329.02 486.93 327.03 488.92 325.04 493.14 325.04 493.14 320.82 494.88 319.09 499.1 319.09 499.1 314.87 500.83 313.14 505.05 313.14 505.05 308.92 507.04 306.93 500.38 306.93 500.38 309.07 499.03 310.42 494.43 310.42 494.43 315.02 493.07 316.38 488.48 316.38 488.48 320.97 486.86 322.59 484.87 320.6 484.87 316.38 480.65 316.38 478.92 314.65 478.92 310.42 474.7 310.42 472.97 308.69 472.97 306.93 466.69 306.93 466.69 306.93 468.66 308.9 468.66 313.16 472.91 313.16 474.61 314.85 474.61 319.11 478.87 319.11 480.56 320.8 480.56 325.06 484.82 325.06 486.79 327.03 484.8 329.02 480.21 329.02 480.21 333.62 478.85 334.98 474.25 334.98 474.25 339.57 472.9 340.93 468.3 340.93 468.3 345.53 466.69 347.14 466.69 351.29 468.67 349.3 472.9 349.3 472.9 345.08 474.63 343.34 478.85 343.34 478.85 339.12 480.58 337.39 484.8 337.39 484.8 333.17 486.79 331.18 488.76 333.15 488.76 337.41 493.02 337.41 494.72 339.1 494.72 343.36 498.97 343.36 500.67 345.06 500.67 349.31 504.93 349.31 506.9 351.29 504.91 353.28 500.31 353.28 500.31 357.87 498.96 359.23 494.36 359.23 494.36 363.83 493 365.18 488.41 365.18 488.41 369.78 486.79 371.39 484.8 369.4 484.8 365.18 480.58 365.18 478.85 363.45 478.85 359.23 474.63 359.23 472.9 357.5 472.9 353.28 468.67 353.28 466.69 351.29 466.69 355.8 468.59 357.7 468.59 361.96 472.84 361.96 474.54 363.66 474.54 367.91 478.8 367.91 480.49 369.61 480.49 373.87 484.75 373.87 486.72 375.84 484.73 377.83 480.14 377.83 480.14 382.42 478.78 383.78 474.18 383.78 474.18 388.38 472.83 389.74 468.23 389.74 468.23 394.33 466.69 395.88 466.69 401.25 468.64 399.3 472.86 399.3 472.86 395.08 474.59 393.35 478.81 393.35 478.81 389.13 480.55 387.39 484.77 387.39 484.77 383.17 486.76 381.18 488.73 383.15 488.73 387.41 492.99 387.41 494.68 389.11 494.68 393.36 498.94 393.36 500.64 395.06 500.64 399.32 504.89 399.32 506.86 401.29 504.87 403.28 500.28 403.28 500.28 407.88 498.92 409.23 494.33 409.23 494.33 413.83 492.97 415.19 488.37 415.19 488.37 419.78 486.76 421.4 484.77 419.41 484.77 415.19 480.55 415.19 478.81 413.45 478.81 409.23 474.59 409.23 472.86 407.5 472.86 403.28 468.64 403.28 466.69 401.33 466.69 405.84 468.55 407.71 468.55 411.96 472.81 411.96 474.5 413.66 474.5 417.92 478.76 417.92 480.46 419.61 480.46 423.87 484.71 423.87 486.69 425.84 484.7 427.83 480.1 427.83 480.1 432.43 478.74 433.79 474.15 433.79 474.15 438.38 472.79 439.74 468.19 439.74 468.19 444.33 466.69 445.84 466.69 449.99 468.57 448.11 472.79 448.11 472.79 443.88 474.52 442.15 478.74 442.15 478.74 437.93 480.48 436.2 484.7 436.2 484.7 431.98 486.69 429.99 488.66 431.96 488.66 436.22 492.92 436.22 494.61 437.91 494.61 442.17 498.87 442.17 500.56 443.87 500.56 448.12 504.82 448.12 506.79 450.1 504.8 452.09 500.21 452.09 500.21 456.68 498.85 458.04 494.25 458.04 494.25 462.63 492.9 463.99 488.3 463.99 488.3 468.59 486.69 470.2 484.7 468.21 484.7 463.99 480.48 463.99 478.74 462.26 478.74 458.04 474.52 458.04 472.79 456.31 472.79 452.09 468.57 452.09 466.69 450.2 466.69 454.72 468.48 456.51 468.48 460.77 472.74 460.77 474.43 462.47 474.43 466.72 478.69 466.72 480.39 468.42 480.39 472.68 484.64 472.68 486.62 474.65 484.63 476.64 480.03 476.64 480.03 481.23 478.67 482.59 474.08 482.59 474.08 487.19 472.72 488.54 468.12 488.54 468.12 493.14 466.69 494.58 466.69 499.06 468.53 497.21 472.75 497.21 472.75 492.99 474.49 491.26 478.71 491.26 478.71 487.04 480.44 485.31 484.66 485.31 484.66 481.08 486.65 479.09 488.62 481.07 488.62 485.32 492.88 485.32 494.58 487.02 494.58 491.28 498.83 491.28 500.53 492.97 500.53 497.23 504.79 497.23 506.76 499.2 504.77 501.19 500.17 501.19 500.17 505.79 498.82 507.14 494.22 507.14 494.22 511.74 492.86 513.1 488.27 513.1 488.27 517.69 486.65 519.31 484.66 517.32 484.66 513.1 480.44 513.1 478.71 511.37 478.71 507.14 474.49 507.14 472.75 505.41 472.75 501.19 468.53 501.19 466.69 499.34 466.69 503.86 468.44 505.62 468.44 509.88 472.7 509.88 474.4 511.57 474.4 515.83 478.66 515.83 480.35 517.52 480.35 521.78 484.61 521.78 486.58 523.75 484.59 525.74 479.99 525.74 479.99 530.34 478.64 531.7 474.04 531.7 474.04 536.29 472.68 537.65 468.09 537.65 468.09 542.25 466.69 543.65 466.69 547.79 468.46 546.02 472.68 546.02 472.68 541.8 474.42 540.06 478.64 540.06 478.64 535.84 480.37 534.11 484.59 534.11 484.59 529.89 486.58 527.9 488.55 529.87 488.55 534.13 492.81 534.13 494.51 535.82 494.51 540.08 498.76 540.08 500.46 541.78 500.46 546.04 504.72 546.04 506.69 548.01 504.7 550 500.1 550 500.1 554.59 498.74 555.95 494.15 555.95 494.15 560.55 492.79 561.9 488.2 561.9 488.2 566.5 486.58 568.11 484.59 566.12 484.59 561.9 480.37 561.9 478.64 560.17 478.64 555.95 474.42 555.95 472.68 554.22 472.68 550 468.46 550 466.69 548.22 466.69 552.73 468.37 554.42 468.37 558.68 472.63 558.68 474.33 560.38 474.33 564.63 478.58 564.63 480.28 566.33 480.28 570.59 484.54 570.59 486.51 572.56 484.52 574.55 479.92 574.55 479.92 579.14 478.57 580.5 473.97 580.5 473.97 585.1 472.61 586.46 468.02 586.46 468.02 591.05 466.69 592.38 466.69 598.61 468.67 596.62 472.9 596.62"/>
        <rect class="cls-7" x="483.82" y="348.31" width="5.95" height="5.95"/>
        <polygon class="cls-7" points="507.04 306.93 507.04 306.93 507.04 306.93 507.04 306.93"/>
      </g>
    </g>
    <g class="cls-6">
      <polygon class="cls-2" points="46.73 88.84 50.68 84.89 30.09 64.31 30.09 81.03 13.37 81.03 9.51 84.89 30.09 105.48 30.09 88.84 46.73 88.84"/>
      <polygon class="cls-2" points="46.37 130.02 50.32 126.07 29.74 105.48 29.74 122.2 13.02 122.2 9.15 126.07 29.74 146.65 29.74 130.02 46.37 130.02"/>
      <polygon class="cls-2" points="46.91 171.19 50.86 167.24 30.27 146.65 30.27 163.38 13.55 163.38 9.68 167.24 30.27 187.83 30.27 171.19 46.91 171.19"/>
    </g>
  </g>
</svg>