<?xml version="1.0" encoding="UTF-8"?>
<svg id="Layer_2" data-name="Layer 2" xmlns="http://www.w3.org/2000/svg" viewBox="0 0 49.6 49.6">
  <defs>
    <style>
      .cls-1 {
        fill: #e3d8ba;
      }

      .cls-2 {
        fill: #639589;
      }
    </style>
  </defs>
  <g id="Layer_1-2" data-name="Layer 1">
    <rect class="cls-2" width="49.6" height="49.6"/>
    <g>
      <rect class="cls-1" x="41.76" y="27.04" width="7.26" height="7.26" transform="translate(76.06 -14.72) rotate(90)"/>
      <rect class="cls-1" x="34.49" y="34.3" width="7.26" height="7.26" transform="translate(76.06 -.19) rotate(90)"/>
      <rect class="cls-1" x="27.23" y="41.57" width="7.26" height="7.26" transform="translate(76.06 14.34) rotate(90)"/>
      <rect class="cls-1" x="15.13" y=".41" width="7.26" height="7.26" transform="translate(22.81 -14.72) rotate(90)"/>
      <rect class="cls-1" x="7.87" y="7.68" width="7.26" height="7.26" transform="translate(22.81 -.19) rotate(90)"/>
      <rect class="cls-1" x=".6" y="14.94" width="7.26" height="7.26" transform="translate(22.81 14.34) rotate(90)"/>
      <rect class="cls-1" x="41.76" y="15.38" width="7.26" height="7.26" transform="translate(90.78 38.02) rotate(-180)"/>
      <rect class="cls-1" x="34.49" y="8.11" width="7.26" height="7.26" transform="translate(76.25 23.49) rotate(-180)"/>
      <rect class="cls-1" x="27.23" y=".85" width="7.26" height="7.26" transform="translate(61.72 8.96) rotate(-180)"/>
      <rect class="cls-1" x="15.11" y="41.57" width="7.26" height="7.26" transform="translate(37.48 90.4) rotate(-180)"/>
      <rect class="cls-1" x="7.84" y="34.3" width="7.26" height="7.26" transform="translate(22.95 75.87) rotate(-180)"/>
      <rect class="cls-1" x="21.17" y="20.98" width="7.26" height="7.26" transform="translate(49.6 49.22) rotate(-180)"/>
      <rect class="cls-1" x=".58" y="27.04" width="7.26" height="7.26" transform="translate(8.42 61.34) rotate(-180)"/>
    </g>
  </g>
</svg>