<?xml version="1.0" encoding="UTF-8"?>
<svg id="Layer_2" data-name="Layer 2" xmlns="http://www.w3.org/2000/svg" viewBox="0 0 520.07 95.87">
  <defs>
    <style>
      .cls-1 {
        fill: #e3d8ba;
      }

      .cls-2, .cls-3 {
        fill: #639589;
      }

      .cls-3, .cls-4, .cls-5, .cls-6, .cls-7 {
        stroke-miterlimit: 10;
      }

      .cls-3, .cls-4, .cls-7 {
        stroke: #f4b65a;
      }

      .cls-4, .cls-5 {
        stroke-width: 2px;
      }

      .cls-4, .cls-5, .cls-6, .cls-7 {
        fill: none;
      }

      .cls-5, .cls-6 {
        stroke: #639589;
      }

      .cls-6, .cls-7 {
        stroke-width: 3px;
      }
    </style>
  </defs>
  <g id="Layer_1-2" data-name="Layer 1">
    <rect class="cls-1" x="0" y="0" width="520.07" height="95.87"/>
    <g>
      <polyline class="cls-6" points="55.26 69.66 72.44 48.76 107.09 48.76 123.32 68.97 157.69 68.83"/>
      <polyline class="cls-5" points="73.2 70.51 79.9 70.51 100.09 48.76"/>
      <line class="cls-6" x1="93.75" y1="55.59" x2="83.33" y2="55.81"/>
      <line class="cls-6" x1="92.39" y1="57.06" x2="92.39" y2="64.31"/>
      <line class="cls-6" x1="86.64" y1="63.24" x2="77.72" y2="63.24"/>
      <line class="cls-6" x1="84.96" y1="65.06" x2="84.48" y2="71.6"/>
      <line class="cls-6" x1="97.72" y1="51.31" x2="97.72" y2="57.75"/>
      <rect class="cls-2" x="68.45" y="68.07" width="4.88" height="4.88"/>
      <rect class="cls-2" x="74.24" y="60.81" width="4.88" height="4.88"/>
      <rect class="cls-2" x="78.84" y="53.26" width="4.88" height="4.88"/>
      <rect class="cls-2" x="82.04" y="71.03" width="4.88" height="4.88"/>
      <rect class="cls-2" x="89.95" y="63.24" width="4.88" height="4.88"/>
      <rect class="cls-2" x="95.56" y="56.4" width="4.88" height="4.88"/>
      <polyline class="cls-5" points="120.8 65.83 100.77 65.83 104.76 59.75"/>
      <polyline class="cls-5" points="115.36 57.88 135.38 57.58 140.72 50.57 154 50.04 148.61 54.2 155.22 56.13 149.27 59.63 154.92 63.1 140.74 63.1 134.27 58.11"/>
      <path class="cls-5" d="m128.12,50.04c.11-.08,4.61,0,4.61,0l-7.99,7.7-5.38.08,8.76-7.78Z"/>
      <path class="cls-5" d="m125.99,57.86c-.11-.08-4.61,0-4.61,0l7.99,7.7,5.38.08-8.76-7.78Z"/>
    </g>
    <g>
      <polyline class="cls-6" points="157.69 69.66 174.88 48.76 209.53 48.76 225.75 68.97 260.12 68.83"/>
      <polyline class="cls-5" points="175.63 70.51 182.34 70.51 202.52 48.76"/>
      <line class="cls-6" x1="196.18" y1="55.59" x2="185.76" y2="55.81"/>
      <line class="cls-6" x1="194.82" y1="57.06" x2="194.82" y2="64.31"/>
      <line class="cls-6" x1="189.08" y1="63.24" x2="180.15" y2="63.24"/>
      <line class="cls-6" x1="187.39" y1="65.06" x2="186.92" y2="71.6"/>
      <line class="cls-6" x1="200.15" y1="51.31" x2="200.15" y2="57.75"/>
      <rect class="cls-2" x="170.89" y="68.07" width="4.88" height="4.88"/>
      <rect class="cls-2" x="176.67" y="60.81" width="4.88" height="4.88"/>
      <rect class="cls-2" x="181.28" y="53.26" width="4.88" height="4.88"/>
      <rect class="cls-2" x="184.48" y="71.03" width="4.88" height="4.88"/>
      <rect class="cls-2" x="192.38" y="63.24" width="4.88" height="4.88"/>
      <rect class="cls-2" x="197.99" y="56.4" width="4.88" height="4.88"/>
      <polyline class="cls-5" points="223.23 65.83 203.2 65.83 207.2 59.75"/>
      <polyline class="cls-5" points="217.79 57.88 237.81 57.58 243.16 50.57 256.43 50.04 251.04 54.2 257.66 56.13 251.7 59.63 257.35 63.1 243.17 63.1 236.7 58.11"/>
      <path class="cls-5" d="m230.55,50.04c.11-.08,4.61,0,4.61,0l-7.99,7.7-5.38.08,8.76-7.78Z"/>
      <path class="cls-5" d="m228.42,57.86c-.11-.08-4.61,0-4.61,0l7.99,7.7,5.38.08-8.76-7.78Z"/>
    </g>
    <g>
      <polyline class="cls-7" points="260.12 69.66 277.31 48.76 311.96 48.76 328.18 68.97 362.56 68.83"/>
      <polyline class="cls-4" points="278.06 70.51 284.77 70.51 304.96 48.76"/>
      <line class="cls-7" x1="298.62" y1="55.59" x2="288.2" y2="55.81"/>
      <line class="cls-7" x1="297.26" y1="57.06" x2="297.26" y2="64.31"/>
      <line class="cls-7" x1="291.51" y1="63.24" x2="282.58" y2="63.24"/>
      <line class="cls-7" x1="289.83" y1="65.06" x2="289.35" y2="71.6"/>
      <line class="cls-7" x1="302.59" y1="51.31" x2="302.59" y2="57.75"/>
      <rect class="cls-3" x="273.32" y="68.07" width="4.88" height="4.88"/>
      <rect class="cls-3" x="279.11" y="60.81" width="4.88" height="4.88"/>
      <rect class="cls-3" x="283.71" y="53.26" width="4.88" height="4.88"/>
      <rect class="cls-3" x="286.91" y="71.03" width="4.88" height="4.88"/>
      <rect class="cls-3" x="294.82" y="63.24" width="4.88" height="4.88"/>
      <rect class="cls-3" x="300.42" y="56.4" width="4.88" height="4.88"/>
      <polyline class="cls-4" points="325.67 65.83 305.64 65.83 309.63 59.75"/>
      <polyline class="cls-4" points="320.22 57.88 340.25 57.58 345.59 50.57 358.87 50.04 353.48 54.2 360.09 56.13 354.14 59.63 359.79 63.1 345.61 63.1 339.13 58.11"/>
      <path class="cls-4" d="m332.99,50.04c.11-.08,4.61,0,4.61,0l-7.99,7.7-5.38.08,8.76-7.78Z"/>
      <path class="cls-4" d="m330.86,57.86c-.11-.08-4.61,0-4.61,0l7.99,7.7,5.38.08-8.76-7.78Z"/>
    </g>
    <g>
      <polyline class="cls-6" points="362.56 69.66 379.75 48.76 414.39 48.76 430.62 68.97 464.99 68.83"/>
      <polyline class="cls-5" points="380.5 70.51 387.21 70.51 407.39 48.76"/>
      <line class="cls-6" x1="401.05" y1="55.59" x2="390.63" y2="55.81"/>
      <line class="cls-6" x1="399.69" y1="57.06" x2="399.69" y2="64.31"/>
      <line class="cls-6" x1="393.95" y1="63.24" x2="385.02" y2="63.24"/>
      <line class="cls-6" x1="392.26" y1="65.06" x2="391.79" y2="71.6"/>
      <line class="cls-6" x1="405.02" y1="51.31" x2="405.02" y2="57.75"/>
      <rect class="cls-2" x="375.76" y="68.07" width="4.88" height="4.88"/>
      <rect class="cls-2" x="381.54" y="60.81" width="4.88" height="4.88"/>
      <rect class="cls-2" x="386.15" y="53.26" width="4.88" height="4.88"/>
      <rect class="cls-2" x="389.35" y="71.03" width="4.88" height="4.88"/>
      <rect class="cls-2" x="397.25" y="63.24" width="4.88" height="4.88"/>
      <rect class="cls-2" x="402.86" y="56.4" width="4.88" height="4.88"/>
      <polyline class="cls-5" points="428.1 65.83 408.07 65.83 412.07 59.75"/>
      <polyline class="cls-5" points="422.66 57.88 442.68 57.58 448.03 50.57 461.3 50.04 455.91 54.2 462.53 56.13 456.57 59.63 462.22 63.1 448.04 63.1 441.57 58.11"/>
      <path class="cls-5" d="m435.42,50.04c.11-.08,4.61,0,4.61,0l-7.99,7.7-5.38.08,8.76-7.78Z"/>
      <path class="cls-5" d="m433.29,57.86c-.11-.08-4.61,0-4.61,0l7.99,7.7,5.38.08-8.76-7.78Z"/>
    </g>
  </g>
</svg>