<?xml version="1.0" encoding="UTF-8"?>
<svg id="Layer_2" data-name="Layer 2" xmlns="http://www.w3.org/2000/svg" viewBox="0 0 520.07 95.87">
  <defs>
    <style>
      .cls-1 {
        fill: #e3d8ba;
      }

      .cls-2, .cls-3 {
        fill: #639589;
      }

      .cls-3, .cls-4, .cls-5, .cls-6, .cls-7 {
        stroke-miterlimit: 10;
      }

      .cls-3, .cls-4, .cls-7 {
        stroke: #f4b65a;
      }

      .cls-4, .cls-5 {
        stroke-width: 2px;
      }

      .cls-4, .cls-5, .cls-6, .cls-7 {
        fill: none;
      }

      .cls-5, .cls-6 {
        stroke: #639589;
      }

      .cls-6, .cls-7 {
        stroke-width: 3px;
      }
    </style>
  </defs>
  <g id="Layer_1-2" data-name="Layer 1">
    <rect class="cls-1" x="0" y="0" width="520.07" height="95.87"/>
    <g>
      <polyline class="cls-6" points="55.16 83.23 72.35 62.33 107 62.33 123.23 82.54 157.6 82.41"/>
      <polyline class="cls-5" points="73.11 84.08 79.81 84.08 100 62.33"/>
      <line class="cls-6" x1="93.66" y1="69.16" x2="83.24" y2="69.39"/>
      <line class="cls-6" x1="92.3" y1="70.63" x2="92.3" y2="77.89"/>
      <line class="cls-6" x1="86.55" y1="76.82" x2="77.62" y2="76.82"/>
      <line class="cls-6" x1="84.87" y1="78.63" x2="84.39" y2="85.18"/>
      <line class="cls-6" x1="97.63" y1="64.89" x2="97.63" y2="71.33"/>
      <rect class="cls-2" x="68.36" y="81.64" width="4.88" height="4.88"/>
      <rect class="cls-2" x="74.15" y="74.38" width="4.88" height="4.88"/>
      <rect class="cls-2" x="78.75" y="66.83" width="4.88" height="4.88"/>
      <rect class="cls-2" x="81.95" y="84.6" width="4.88" height="4.88"/>
      <rect class="cls-2" x="89.86" y="76.82" width="4.88" height="4.88"/>
      <rect class="cls-2" x="95.47" y="69.97" width="4.88" height="4.88"/>
      <polyline class="cls-5" points="120.71 79.41 100.68 79.41 104.67 73.33"/>
      <polyline class="cls-5" points="115.27 71.46 135.29 71.15 140.63 64.14 153.91 63.62 148.52 67.78 155.13 69.71 149.18 73.21 154.83 76.67 140.65 76.67 134.18 71.68"/>
      <path class="cls-5" d="m128.03,63.62c.11-.08,4.61,0,4.61,0l-7.99,7.7-5.38.08,8.76-7.78Z"/>
      <path class="cls-5" d="m125.9,71.43c-.11-.08-4.61,0-4.61,0l7.99,7.7,5.38.08-8.76-7.78Z"/>
    </g>
    <g>
      <polyline class="cls-6" points="157.6 83.23 174.79 62.33 209.44 62.33 225.66 82.54 260.03 82.41"/>
      <polyline class="cls-5" points="175.54 84.08 182.25 84.08 202.43 62.33"/>
      <line class="cls-6" x1="196.09" y1="69.16" x2="185.67" y2="69.39"/>
      <line class="cls-6" x1="194.73" y1="70.63" x2="194.73" y2="77.89"/>
      <line class="cls-6" x1="188.99" y1="76.82" x2="180.06" y2="76.82"/>
      <line class="cls-6" x1="187.3" y1="78.63" x2="186.83" y2="85.18"/>
      <line class="cls-6" x1="200.06" y1="64.89" x2="200.06" y2="71.33"/>
      <rect class="cls-2" x="170.8" y="81.64" width="4.88" height="4.88"/>
      <rect class="cls-2" x="176.58" y="74.38" width="4.88" height="4.88"/>
      <rect class="cls-2" x="181.19" y="66.83" width="4.88" height="4.88"/>
      <rect class="cls-2" x="184.39" y="84.6" width="4.88" height="4.88"/>
      <rect class="cls-2" x="192.29" y="76.82" width="4.88" height="4.88"/>
      <rect class="cls-2" x="197.9" y="69.97" width="4.88" height="4.88"/>
      <polyline class="cls-5" points="223.14 79.41 203.11 79.41 207.11 73.33"/>
      <polyline class="cls-5" points="217.7 71.46 237.72 71.15 243.07 64.14 256.34 63.62 250.95 67.78 257.57 69.71 251.61 73.21 257.26 76.67 243.08 76.67 236.61 71.68"/>
      <path class="cls-5" d="m230.46,63.62c.11-.08,4.61,0,4.61,0l-7.99,7.7-5.38.08,8.76-7.78Z"/>
      <path class="cls-5" d="m228.33,71.43c-.11-.08-4.61,0-4.61,0l7.99,7.7,5.38.08-8.76-7.78Z"/>
    </g>
    <g>
      <polyline class="cls-7" points="260.03 83.23 277.22 62.33 311.87 62.33 328.09 82.54 362.47 82.41"/>
      <polyline class="cls-4" points="277.97 84.08 284.68 84.08 304.87 62.33"/>
      <line class="cls-7" x1="298.53" y1="69.16" x2="288.11" y2="69.39"/>
      <line class="cls-7" x1="297.17" y1="70.63" x2="297.17" y2="77.89"/>
      <line class="cls-7" x1="291.42" y1="76.82" x2="282.49" y2="76.82"/>
      <line class="cls-7" x1="289.74" y1="78.63" x2="289.26" y2="85.18"/>
      <line class="cls-7" x1="302.5" y1="64.89" x2="302.5" y2="71.33"/>
      <rect class="cls-3" x="273.23" y="81.64" width="4.88" height="4.88"/>
      <rect class="cls-3" x="279.02" y="74.38" width="4.88" height="4.88"/>
      <rect class="cls-3" x="283.62" y="66.83" width="4.88" height="4.88"/>
      <rect class="cls-3" x="286.82" y="84.6" width="4.88" height="4.88"/>
      <rect class="cls-3" x="294.73" y="76.82" width="4.88" height="4.88"/>
      <rect class="cls-3" x="300.33" y="69.97" width="4.88" height="4.88"/>
      <polyline class="cls-4" points="325.58 79.41 305.54 79.41 309.54 73.33"/>
      <polyline class="cls-4" points="320.13 71.46 340.16 71.15 345.5 64.14 358.78 63.62 353.39 67.78 360 69.71 354.04 73.21 359.7 76.67 345.52 76.67 339.04 71.68"/>
      <path class="cls-4" d="m332.9,63.62c.11-.08,4.61,0,4.61,0l-7.99,7.7-5.38.08,8.76-7.78Z"/>
      <path class="cls-4" d="m330.77,71.43c-.11-.08-4.61,0-4.61,0l7.99,7.7,5.38.08-8.76-7.78Z"/>
    </g>
    <g>
      <polyline class="cls-6" points="362.47 83.23 379.66 62.33 414.3 62.33 430.53 82.54 464.9 82.41"/>
      <polyline class="cls-5" points="380.41 84.08 387.12 84.08 407.3 62.33"/>
      <line class="cls-6" x1="400.96" y1="69.16" x2="390.54" y2="69.39"/>
      <line class="cls-6" x1="399.6" y1="70.63" x2="399.6" y2="77.89"/>
      <line class="cls-6" x1="393.86" y1="76.82" x2="384.93" y2="76.82"/>
      <line class="cls-6" x1="392.17" y1="78.63" x2="391.7" y2="85.18"/>
      <line class="cls-6" x1="404.93" y1="64.89" x2="404.93" y2="71.33"/>
      <rect class="cls-2" x="375.67" y="81.64" width="4.88" height="4.88"/>
      <rect class="cls-2" x="381.45" y="74.38" width="4.88" height="4.88"/>
      <rect class="cls-2" x="386.05" y="66.83" width="4.88" height="4.88"/>
      <rect class="cls-2" x="389.26" y="84.6" width="4.88" height="4.88"/>
      <rect class="cls-2" x="397.16" y="76.82" width="4.88" height="4.88"/>
      <rect class="cls-2" x="402.77" y="69.97" width="4.88" height="4.88"/>
      <polyline class="cls-5" points="428.01 79.41 407.98 79.41 411.98 73.33"/>
      <polyline class="cls-5" points="422.57 71.46 442.59 71.15 447.94 64.14 461.21 63.62 455.82 67.78 462.44 69.71 456.48 73.21 462.13 76.67 447.95 76.67 441.48 71.68"/>
      <path class="cls-5" d="m435.33,63.62c.11-.08,4.61,0,4.61,0l-7.99,7.7-5.38.08,8.76-7.78Z"/>
      <path class="cls-5" d="m433.2,71.43c-.11-.08-4.61,0-4.61,0l7.99,7.7,5.38.08-8.76-7.78Z"/>
    </g>
  </g>
</svg>