<?xml version="1.0" encoding="UTF-8"?>
<svg id="Layer_2" data-name="Layer 2" xmlns="http://www.w3.org/2000/svg" viewBox="0 0 320.01 50.61">
  <defs>
    <style>
      .cls-1 {
        fill: #639589;
      }

      .cls-2 {
        fill: #f4b65a;
      }
    </style>
  </defs>
  <g id="Layer_1-2" data-name="Layer 1">
    <g>
      <polygon class="cls-1" points="15.67 48.11 14.35 45.76 14.35 32.74 7.04 32.74 2.87 25.31 7.04 17.87 14.35 17.87 14.35 4.85 15.67 2.5 304.26 2.5 305.63 4.92 305.63 17.87 312.94 17.87 317.14 25.31 312.94 32.74 305.63 32.74 305.63 45.69 304.26 48.11 15.67 48.11"/>
      <path class="cls-2" d="m302.8,5l.33.58v14.79h8.35l2.78,4.93-2.78,4.93h-8.35v14.79l-.33.58H17.13l-.28-.5v-14.87h-8.35l-2.77-4.93,2.77-4.93h8.35V5.5l.28-.5h285.67m2.92-5H14.21l-2.36,4.2v11.18h-6.27L0,25.31l5.58,9.93h6.27v11.18l2.36,4.2h291.51l2.41-4.27v-11.11h6.27l5.61-9.93-5.61-9.93h-6.27V4.27l-2.41-4.27h0Z"/>
    </g>
  </g>
</svg>