<?xml version="1.0" encoding="UTF-8"?>
<svg id="Layer_2" data-name="Layer 2" xmlns="http://www.w3.org/2000/svg" viewBox="0 0 320.01 50.61">
  <defs>
    <style>
      .cls-1 {
        fill: #639589;
      }

      .cls-2 {
        fill: #f4b65a;
      }
    </style>
  </defs>
  <g id="Layer_1-2" data-name="Layer 1">
    <g>
      <polygon class="cls-1" points="308.13 35.24 314.4 35.24 320.01 25.31 314.4 15.37 308.13 15.37 308.13 4.27 305.72 0 14.21 0 11.85 4.2 11.85 15.37 5.58 15.37 0 25.31 5.58 35.24 11.85 35.24 11.85 46.42 14.21 50.61 305.72 50.61 308.13 46.35 308.13 35.24"/>
      <path class="cls-2" d="m305.72,0h-30v5h30V0h0ZM265.72,0h-30v5h30V0h0ZM225.72,0h-30v5h30V0h0ZM185.72,0h-30v5h30V0h0ZM145.72,0h-30v5h30V0h0ZM105.72,0h-30v5h30V0h0ZM65.72,0h-30v5h30V0h0ZM25.72,0h-11.51s-.04.07-.1.18h0c-.06.11-.16.28-.27.48h0c-.11.2-.24.43-.38.67h0c-.14.25-.29.51-.43.77h0c-.15.26-.29.52-.43.77h0c-.14.25-.27.48-.38.67h0c-.11.2-.2.36-.27.48h0c-.06.11-.1.18-.1.18h0v11.18h-2.5v5h7.5V5.5l.28-.5h8.59V0h0ZM2.53,20.8l-2.53,4.51h0l5.58,9.93h6.27v7.17h5v-12.17h-8.35l-2.77-4.93,1.16-2.06-4.36-2.45h0Zm42.85,24.81H15.38v5h30v-5h0Zm40,0h-30v5h30v-5h0Zm40,0h-30v5h30v-5h0Zm40,0h-30v5h30v-5h0Zm40,0h-30v5h30v-5h0Zm40,0h-30v5h30v-5h0Zm40,0h-30v5h30v-5h0Zm26.4-15.37h-8.65v14.79l-.33.58h-7.42v5h10.34l2.41-4.27h0v-11.11h3.65v-5h0Zm-3.65-23.16h-5v13.3h8.35l2.78,4.93-.59,1.05,1.73.98.25.43.26-.15h0l-.26.15.26-.15,2.11,1.19,1.81-3.2h0s0,0,0,0c0,0,0-.01.01-.02h0s0-.02.01-.02h0s0,0,0-.01h0s0,0,0,0h0s0-.02.01-.02h0s0-.01.01-.02h0s0-.01.01-.02h0s0-.01,0-.02h0s0-.02,0-.02h0s0-.01,0-.02h0c.04-.07.07-.12.07-.12h0s-.09-.16-.24-.43h0c-.15-.27-.37-.66-.64-1.13h0c-.26-.47-.57-1.01-.9-1.59h0c-.33-.58-.68-1.2-1.03-1.82h0c-.35-.62-.7-1.24-1.03-1.82h0c-.33-.58-.64-1.13-.9-1.59h0c-.26-.47-.48-.85-.64-1.13h0c-.15-.27-.24-.43-.24-.43h-6.27V7.07h0Z"/>
    </g>
  </g>
</svg>