<?xml version="1.0" encoding="UTF-8"?>
<svg id="Layer_2" data-name="Layer 2" xmlns="http://www.w3.org/2000/svg" viewBox="0 0 49.6 49.6">
  <defs>
    <style>
      .cls-1 {
        fill: #f5b75a;
      }

      .cls-2 {
        fill: #eb6650;
      }

      .cls-3 {
        fill: #ea6650;
      }
    </style>
  </defs>
  <g id="Layer_1-2" data-name="Layer 1">
    <rect class="cls-1" width="49.6" height="49.6"/>
    <g>
      <g>
        <rect class="cls-3" x="43.76" y="29.04" width="3.27" height="3.27"/>
        <polygon class="cls-2" points="49.02 27.04 41.76 27.04 41.76 34.3 49.02 34.3 49.02 27.04 49.02 27.04"/>
      </g>
      <g>
        <rect class="cls-3" x="36.49" y="36.3" width="3.26" height="3.26"/>
        <polygon class="cls-2" points="41.76 34.3 34.49 34.3 34.49 41.57 41.76 41.57 41.76 34.3 41.76 34.3"/>
      </g>
      <g>
        <rect class="cls-3" x="29.23" y="43.57" width="3.26" height="3.27"/>
        <polygon class="cls-2" points="34.49 41.57 27.23 41.57 27.23 48.83 34.49 48.83 34.49 41.57 34.49 41.57"/>
      </g>
      <g>
        <rect class="cls-3" x="17.13" y="2.41" width="3.26" height="3.27"/>
        <polygon class="cls-2" points="22.4 .41 15.13 .41 15.13 7.68 22.4 7.68 22.4 .41 22.4 .41"/>
      </g>
      <g>
        <rect class="cls-3" x="9.87" y="9.68" width="3.26" height="3.27"/>
        <polygon class="cls-2" points="15.13 7.68 7.87 7.68 7.87 14.94 15.13 14.94 15.13 7.68 15.13 7.68"/>
      </g>
      <g>
        <rect class="cls-3" x="2.6" y="16.94" width="3.27" height="3.26"/>
        <polygon class="cls-2" points="7.87 14.94 .6 14.94 .6 22.21 7.87 22.21 7.87 14.94 7.87 14.94"/>
      </g>
      <g>
        <rect class="cls-3" x="43.76" y="17.38" width="3.27" height="3.26"/>
        <polygon class="cls-2" points="49.02 15.38 41.76 15.38 41.76 22.64 49.02 22.64 49.02 15.38 49.02 15.38"/>
      </g>
      <g>
        <rect class="cls-3" x="36.49" y="10.11" width="3.26" height="3.27"/>
        <polygon class="cls-2" points="41.76 8.11 34.49 8.11 34.49 15.38 41.76 15.38 41.76 8.11 41.76 8.11"/>
      </g>
      <g>
        <rect class="cls-3" x="29.23" y="2.85" width="3.26" height="3.27"/>
        <polygon class="cls-2" points="34.49 .85 27.23 .85 27.23 8.11 34.49 8.11 34.49 .85 34.49 .85"/>
      </g>
      <g>
        <rect class="cls-3" x="17.11" y="43.57" width="3.26" height="3.27"/>
        <polygon class="cls-2" points="22.37 41.57 15.11 41.57 15.11 48.83 22.37 48.83 22.37 41.57 22.37 41.57"/>
      </g>
      <g>
        <rect class="cls-3" x="9.84" y="36.3" width="3.26" height="3.26"/>
        <polygon class="cls-2" points="15.11 34.3 7.84 34.3 7.84 41.57 15.11 41.57 15.11 34.3 15.11 34.3"/>
      </g>
      <g>
        <rect class="cls-3" x="23.17" y="22.98" width="3.27" height="3.27"/>
        <polygon class="cls-2" points="28.43 20.98 21.17 20.98 21.17 28.24 28.43 28.24 28.43 20.98 28.43 20.98"/>
      </g>
      <g>
        <rect class="cls-3" x="2.58" y="29.04" width="3.27" height="3.27"/>
        <polygon class="cls-2" points="7.84 27.04 .58 27.04 .58 34.3 7.84 34.3 7.84 27.04 7.84 27.04"/>
      </g>
    </g>
  </g>
</svg>