<?xml version="1.0" encoding="UTF-8"?>
<svg id="Layer_2" data-name="Layer 2" xmlns="http://www.w3.org/2000/svg" xmlns:xlink="http://www.w3.org/1999/xlink" viewBox="0 0 50.87 483.53">
  <defs>
    <style>
      .cls-1 {
        fill: #e3d8ba;
      }

      .cls-2 {
        fill: #639589;
      }

      .cls-3 {
        fill: #f5b75a;
      }

      .cls-4, .cls-5 {
        fill: none;
      }

      .cls-5 {
        clip-path: url(#clippath);
      }

      .cls-6 {
        fill: #ec6650;
      }
    </style>
    <clipPath id="clippath">
      <rect class="cls-4" x="5.18" y="294.53" width="40.36" height="128.01"/>
    </clipPath>
  </defs>
  <g id="Layer_1-2" data-name="Layer 1">
    <rect class="cls-2" x=".03" width="49.6" height="49.6"/>
    <rect class="cls-2" x=".03" y="433.85" width="49.6" height="49.6"/>
    <g>
      <rect class="cls-1" x="41.18" y="27.22" width="7.26" height="7.26" transform="translate(75.66 -13.96) rotate(90)"/>
      <rect class="cls-1" x="33.91" y="34.48" width="7.26" height="7.26" transform="translate(75.66 .57) rotate(90)"/>
      <rect class="cls-1" x="26.65" y="41.75" width="7.26" height="7.26" transform="translate(75.66 15.1) rotate(90)"/>
      <rect class="cls-1" x="14.55" y=".59" width="7.26" height="7.26" transform="translate(22.41 -13.96) rotate(90)"/>
      <rect class="cls-1" x="7.29" y="7.85" width="7.26" height="7.26" transform="translate(22.41 .57) rotate(90)"/>
      <rect class="cls-1" x=".02" y="15.12" width="7.26" height="7.26" transform="translate(22.41 15.1) rotate(90)"/>
      <rect class="cls-1" x="41.18" y="15.55" width="7.26" height="7.26" transform="translate(89.62 38.37) rotate(-180)"/>
      <rect class="cls-1" x="33.91" y="8.29" width="7.26" height="7.26" transform="translate(75.09 23.84) rotate(-180)"/>
      <rect class="cls-1" x="26.65" y="1.02" width="7.26" height="7.26" transform="translate(60.56 9.31) rotate(-180)"/>
      <rect class="cls-1" x="14.53" y="41.75" width="7.26" height="7.26" transform="translate(36.32 90.76) rotate(-180)"/>
      <rect class="cls-1" x="7.26" y="34.48" width="7.26" height="7.26" transform="translate(21.79 76.23) rotate(-180)"/>
      <rect class="cls-1" x="20.59" y="21.16" width="7.26" height="7.26" transform="translate(48.44 49.58) rotate(-180)"/>
      <rect class="cls-1" x="0" y="27.22" width="7.26" height="7.26" transform="translate(7.26 61.7) rotate(-180)"/>
    </g>
    <g>
      <rect class="cls-1" x="43.61" y="461.73" width="7.26" height="7.26" transform="translate(512.61 418.13) rotate(90)"/>
      <rect class="cls-1" x="36.34" y="469" width="7.26" height="7.26" transform="translate(512.61 432.66) rotate(90)"/>
      <rect class="cls-1" x="29.08" y="476.26" width="7.26" height="7.26" transform="translate(512.61 447.19) rotate(90)"/>
      <rect class="cls-1" x="16.98" y="435.1" width="7.26" height="7.26" transform="translate(459.35 418.13) rotate(90)"/>
      <rect class="cls-1" x="9.71" y="442.37" width="7.26" height="7.26" transform="translate(459.35 432.66) rotate(90)"/>
      <rect class="cls-1" x="2.45" y="449.63" width="7.26" height="7.26" transform="translate(459.35 447.19) rotate(90)"/>
      <rect class="cls-1" x="43.61" y="450.07" width="7.26" height="7.26" transform="translate(94.48 907.4) rotate(-180)"/>
      <rect class="cls-1" x="36.34" y="442.8" width="7.26" height="7.26" transform="translate(79.95 892.87) rotate(-180)"/>
      <rect class="cls-1" x="29.08" y="435.54" width="7.26" height="7.26" transform="translate(65.42 878.34) rotate(-180)"/>
      <rect class="cls-1" x="16.96" y="476.26" width="7.26" height="7.26" transform="translate(41.18 959.79) rotate(-180)"/>
      <rect class="cls-1" x="9.69" y="469" width="7.26" height="7.26" transform="translate(26.65 945.26) rotate(-180)"/>
      <rect class="cls-1" x="23.02" y="455.67" width="7.26" height="7.26" transform="translate(53.3 918.61) rotate(-180)"/>
      <rect class="cls-1" x="2.43" y="461.73" width="7.26" height="7.26" transform="translate(12.12 930.73) rotate(-180)"/>
    </g>
    <g>
      <g>
        <rect class="cls-6" x="32" y="284.02" width="7.26" height="7.26" transform="translate(-192.96 109.45) rotate(-45)"/>
        <rect class="cls-6" x="21.73" y="284.02" width="7.26" height="7.26" transform="translate(-195.97 102.18) rotate(-45)"/>
        <rect class="cls-6" x="11.45" y="284.02" width="7.26" height="7.26" transform="translate(-198.98 94.92) rotate(-45)"/>
        <rect class="cls-6" x="32" y="246.36" width="7.26" height="7.26" transform="translate(-166.34 98.42) rotate(-45)"/>
        <rect class="cls-6" x="21.73" y="246.36" width="7.26" height="7.26" transform="translate(-169.34 91.15) rotate(-45)"/>
        <rect class="cls-6" x="11.45" y="246.36" width="7.26" height="7.26" transform="translate(-172.35 83.89) rotate(-45)"/>
        <rect class="cls-6" x="40.25" y="275.77" width="7.26" height="7.26" transform="translate(-184.72 112.87) rotate(-45)"/>
        <rect class="cls-6" x="40.25" y="265.5" width="7.26" height="7.26" transform="translate(-177.45 109.86) rotate(-45)"/>
        <rect class="cls-6" x="40.25" y="255.22" width="7.26" height="7.26" transform="translate(-170.19 106.85) rotate(-45)"/>
        <rect class="cls-6" x="2.88" y="275.45" width="7.26" height="7.26" transform="translate(-195.43 86.35) rotate(-45)"/>
        <rect class="cls-6" x="2.88" y="265.18" width="7.26" height="7.26" transform="translate(-188.17 83.34) rotate(-45)"/>
        <rect class="cls-6" x="2.88" y="254.9" width="7.26" height="7.26" transform="translate(-180.9 80.33) rotate(-45)"/>
      </g>
      <path class="cls-6" d="m17.23,279.43l2.65,2.65h2.17s2.65-2.65,2.65-2.65l2.65,2.65h2.17s2.65-2.65,2.65-2.65l2.65,2.65h2.5s0-2.03,0-2.03l-2.89-2.89,2.89-2.89v-1.7l-2.89-2.89,2.89-2.89v-1.7s-2.89-2.89-2.89-2.89l2.89-2.89v-2.5h-2.48s-2.67,2.67-2.67,2.67l-2.67-2.67h-2.13s-2.67,2.67-2.67,2.67l-2.67-2.67h-2.13s-2.67,2.67-2.67,2.67l-2.67-2.67h-2.48s0,2.5,0,2.5l2.65,2.65-2.65,2.65v2.17s2.65,2.65,2.65,2.65l-2.65,2.65v2.17s2.65,2.65,2.65,2.65l-2.65,2.65v2.5h2.5l2.65-2.65Zm3.74-9.97l3.74-3.74,3.74,3.74-3.74,3.74-3.74-3.74Z"/>
    </g>
    <g>
      <g>
        <rect class="cls-3" x="31.51" y="222.92" width="7.26" height="7.26" transform="translate(-149.9 91.21) rotate(-45)"/>
        <rect class="cls-3" x="21.24" y="222.92" width="7.26" height="7.26" transform="translate(-152.91 83.94) rotate(-45)"/>
        <rect class="cls-3" x="10.97" y="222.92" width="7.26" height="7.26" transform="translate(-155.92 76.68) rotate(-45)"/>
        <rect class="cls-3" x="31.51" y="185.26" width="7.26" height="7.26" transform="translate(-123.28 80.18) rotate(-45)"/>
        <rect class="cls-3" x="21.24" y="185.26" width="7.26" height="7.26" transform="translate(-126.28 72.91) rotate(-45)"/>
        <rect class="cls-3" x="10.97" y="185.26" width="7.26" height="7.26" transform="translate(-129.29 65.65) rotate(-45)"/>
        <rect class="cls-3" x="39.76" y="214.67" width="7.26" height="7.26" transform="translate(-141.66 94.62) rotate(-45)"/>
        <rect class="cls-3" x="39.76" y="204.4" width="7.26" height="7.26" transform="translate(-134.39 91.62) rotate(-45)"/>
        <rect class="cls-3" x="39.76" y="194.13" width="7.26" height="7.26" transform="translate(-127.13 88.61) rotate(-45)"/>
        <rect class="cls-3" x="2.4" y="214.35" width="7.26" height="7.26" transform="translate(-152.37 68.11) rotate(-45)"/>
        <rect class="cls-3" x="2.4" y="204.08" width="7.26" height="7.26" transform="translate(-145.11 65.1) rotate(-45)"/>
        <rect class="cls-3" x="2.4" y="193.8" width="7.26" height="7.26" transform="translate(-137.84 62.09) rotate(-45)"/>
      </g>
      <path class="cls-3" d="m16.75,218.33l2.65,2.65h2.17s2.65-2.65,2.65-2.65l2.65,2.65h2.17s2.65-2.65,2.65-2.65l2.65,2.65h2.5s0-2.03,0-2.03l-2.89-2.89,2.89-2.89v-1.7l-2.89-2.89,2.89-2.89v-1.7s-2.89-2.89-2.89-2.89l2.89-2.89v-2.5h-2.48s-2.67,2.67-2.67,2.67l-2.67-2.67h-2.13s-2.67,2.67-2.67,2.67l-2.67-2.67h-2.13s-2.67,2.67-2.67,2.67l-2.67-2.67h-2.48s0,2.5,0,2.5l2.65,2.65-2.65,2.65v2.17s2.65,2.65,2.65,2.65l-2.65,2.65v2.17s2.65,2.65,2.65,2.65l-2.65,2.65v2.5h2.5l2.65-2.65Zm3.74-9.97l3.74-3.74,3.74,3.74-3.74,3.74-3.74-3.74Z"/>
    </g>
    <g>
      <g>
        <rect class="cls-2" x="31.76" y="161.82" width="7.26" height="7.26" transform="translate(-106.63 73.49) rotate(-45)"/>
        <rect class="cls-2" x="21.48" y="161.82" width="7.26" height="7.26" transform="translate(-109.64 66.22) rotate(-45)"/>
        <rect class="cls-2" x="11.21" y="161.82" width="7.26" height="7.26" transform="translate(-112.65 58.96) rotate(-45)"/>
        <rect class="cls-2" x="31.76" y="124.17" width="7.26" height="7.26" transform="translate(-80 62.46) rotate(-45)"/>
        <rect class="cls-2" x="21.48" y="124.17" width="7.26" height="7.26" transform="translate(-83.01 55.19) rotate(-45)"/>
        <rect class="cls-2" x="11.21" y="124.17" width="7.26" height="7.26" transform="translate(-86.02 47.93) rotate(-45)"/>
        <rect class="cls-2" x="40.01" y="153.58" width="7.26" height="7.26" transform="translate(-98.38 76.9) rotate(-45)"/>
        <rect class="cls-2" x="40.01" y="143.3" width="7.26" height="7.26" transform="translate(-91.12 73.89) rotate(-45)"/>
        <rect class="cls-2" x="40.01" y="133.03" width="7.26" height="7.26" transform="translate(-83.85 70.88) rotate(-45)"/>
        <rect class="cls-2" x="2.64" y="153.25" width="7.26" height="7.26" transform="translate(-109.1 50.39) rotate(-45)"/>
        <rect class="cls-2" x="2.64" y="142.98" width="7.26" height="7.26" transform="translate(-101.83 47.38) rotate(-45)"/>
        <rect class="cls-2" x="2.64" y="132.71" width="7.26" height="7.26" transform="translate(-94.57 44.37) rotate(-45)"/>
      </g>
      <path class="cls-2" d="m16.99,157.24l2.65,2.65h2.17s2.65-2.65,2.65-2.65l2.65,2.65h2.17s2.65-2.65,2.65-2.65l2.65,2.65h2.5s0-2.03,0-2.03l-2.89-2.89,2.89-2.89v-1.7l-2.89-2.89,2.89-2.89v-1.7s-2.89-2.89-2.89-2.89l2.89-2.89v-2.5h-2.48s-2.67,2.67-2.67,2.67l-2.67-2.67h-2.13s-2.67,2.67-2.67,2.67l-2.67-2.67h-2.13s-2.67,2.67-2.67,2.67l-2.67-2.67h-2.48s0,2.5,0,2.5l2.65,2.65-2.65,2.65v2.17s2.65,2.65,2.65,2.65l-2.65,2.65v2.17s2.65,2.65,2.65,2.65l-2.65,2.65v2.5h2.5l2.65-2.65Zm3.74-9.97l3.74-3.74,3.74,3.74-3.74,3.74-3.74-3.74Z"/>
    </g>
    <g>
      <g>
        <rect class="cls-2" x="31.27" y="100.73" width="7.26" height="7.26" transform="translate(-63.57 55.25) rotate(-45)"/>
        <rect class="cls-2" x="21" y="100.73" width="7.26" height="7.26" transform="translate(-66.58 47.98) rotate(-45)"/>
        <rect class="cls-2" x="10.72" y="100.73" width="7.26" height="7.26" transform="translate(-69.59 40.72) rotate(-45)"/>
        <rect class="cls-2" x="31.27" y="63.07" width="7.26" height="7.26" transform="translate(-36.94 44.22) rotate(-45)"/>
        <rect class="cls-2" x="21" y="63.07" width="7.26" height="7.26" transform="translate(-39.95 36.95) rotate(-45)"/>
        <rect class="cls-2" x="10.72" y="63.07" width="7.26" height="7.26" transform="translate(-42.96 29.69) rotate(-45)"/>
        <rect class="cls-2" x="39.52" y="92.48" width="7.26" height="7.26" transform="translate(-55.32 58.66) rotate(-45)"/>
        <rect class="cls-2" x="39.52" y="82.21" width="7.26" height="7.26" transform="translate(-48.06 55.65) rotate(-45)"/>
        <rect class="cls-2" x="39.52" y="71.93" width="7.26" height="7.26" transform="translate(-40.79 52.64) rotate(-45)"/>
        <rect class="cls-2" x="2.15" y="92.16" width="7.26" height="7.26" transform="translate(-66.04 32.15) rotate(-45)"/>
        <rect class="cls-2" x="2.15" y="81.88" width="7.26" height="7.26" transform="translate(-58.77 29.14) rotate(-45)"/>
        <rect class="cls-2" x="2.15" y="71.61" width="7.26" height="7.26" transform="translate(-51.51 26.13) rotate(-45)"/>
      </g>
      <path class="cls-2" d="m16.5,96.14l2.65,2.65h2.17s2.65-2.65,2.65-2.65l2.65,2.65h2.17s2.65-2.65,2.65-2.65l2.65,2.65h2.5s0-2.03,0-2.03l-2.89-2.89,2.89-2.89v-1.7l-2.89-2.89,2.89-2.89v-1.7s-2.89-2.89-2.89-2.89l2.89-2.89v-2.5h-2.48s-2.67,2.67-2.67,2.67l-2.67-2.67h-2.13s-2.67,2.67-2.67,2.67l-2.67-2.67h-2.13s-2.67,2.67-2.67,2.67l-2.67-2.67h-2.48s0,2.5,0,2.5l2.65,2.65-2.65,2.65v2.17s2.65,2.65,2.65,2.65l-2.65,2.65v2.17s2.65,2.65,2.65,2.65l-2.65,2.65v2.5h2.5l2.65-2.65Zm3.74-9.97l3.74-3.74,3.74,3.74-3.74,3.74-3.74-3.74Z"/>
    </g>
    <g class="cls-5">
      <g>
        <rect class="cls-6" x="5.18" y="313.05" width="2.98" height="5.95"/>
        <rect class="cls-6" x="5.18" y="361.86" width="2.91" height="5.95"/>
        <rect class="cls-6" x="5.18" y="411.86" width="2.87" height="5.95"/>
        <rect class="cls-6" x="5.18" y="460.67" width="2.8" height="5.95"/>
        <rect class="cls-6" x="42.56" y="313.05" width="2.98" height="5.95"/>
        <rect class="cls-6" x="42.39" y="460.67" width="3.15" height="5.95"/>
        <rect class="cls-6" x="42.46" y="411.86" width="3.08" height="5.95"/>
        <rect class="cls-6" x="42.49" y="361.86" width="3.05" height="5.95"/>
        <rect class="cls-6" x="22.21" y="436.11" width="5.95" height="5.95"/>
        <rect class="cls-6" x="22.28" y="387.31" width="5.95" height="5.95"/>
        <polygon class="cls-6" points="11.39 585.62 11.39 581.39 13.13 579.66 17.35 579.66 17.35 575.44 19.08 573.71 23.3 573.71 23.3 569.49 25.29 567.5 27.26 569.47 27.26 573.73 31.52 573.73 33.21 575.42 33.21 579.68 37.47 579.68 39.17 581.38 39.17 585.63 43.43 585.63 45.4 587.6 43.41 589.59 38.81 589.59 38.81 594.19 37.45 595.55 32.86 595.55 32.86 600.14 31.5 601.5 26.91 601.5 26.91 606.1 25.62 607.38 31.57 607.38 31.57 605.95 33.3 604.21 37.53 604.21 37.53 599.99 39.26 598.26 43.48 598.26 43.48 594.04 45.47 592.05 45.54 592.12 45.54 581.38 45.26 581.66 43.27 579.67 43.27 575.45 39.04 575.45 37.31 573.72 37.31 569.5 33.09 569.5 31.36 567.77 31.36 563.54 27.14 563.54 25.15 561.56 27.14 559.57 31.36 559.57 31.36 555.34 33.09 553.61 37.31 553.61 37.31 549.39 39.04 547.66 43.27 547.66 43.27 543.44 45.26 541.45 45.54 541.73 45.54 532.64 45.33 532.86 43.34 530.87 43.34 526.65 39.12 526.65 37.38 524.91 37.38 520.69 33.16 520.69 31.43 518.96 31.43 514.74 27.21 514.74 25.22 512.75 27.21 510.76 31.43 510.76 31.43 506.54 33.16 504.81 37.38 504.81 37.38 500.58 39.12 498.85 43.34 498.85 43.34 494.63 45.33 492.64 45.54 492.85 45.54 483.57 45.36 483.75 43.37 481.76 43.37 477.54 39.15 477.54 37.42 475.81 37.42 471.59 33.2 471.59 31.47 469.86 31.47 465.63 27.24 465.63 25.25 463.64 27.24 461.65 31.47 461.65 31.47 457.43 33.2 455.7 37.42 455.7 37.42 451.48 39.15 449.75 43.37 449.75 43.37 445.53 45.36 443.54 45.54 443.71 45.54 434.84 45.43 434.95 43.44 432.96 43.44 428.73 39.22 428.73 37.49 427 37.49 422.78 33.27 422.78 31.54 421.05 31.54 416.83 27.31 416.83 25.33 414.84 27.31 412.85 31.54 412.85 31.54 408.63 33.27 406.9 37.49 406.9 37.49 402.67 39.22 400.94 43.44 400.94 43.44 396.72 45.43 394.73 45.54 394.84 45.54 384.87 45.47 384.94 43.48 382.95 43.48 378.73 39.26 378.73 37.53 377 37.53 372.78 33.3 372.78 31.57 371.05 31.57 366.82 27.35 366.82 25.36 364.83 27.35 362.85 31.57 362.85 31.57 358.62 33.3 356.89 37.53 356.89 37.53 352.67 39.26 350.94 43.48 350.94 43.48 346.72 45.47 344.73 45.54 344.8 45.54 336.14 45.54 336.14 43.55 334.15 43.55 329.92 39.33 329.92 37.6 328.19 37.6 323.97 33.37 323.97 31.64 322.24 31.64 318.02 27.42 318.02 25.43 316.03 27.42 314.04 31.64 314.04 31.64 309.82 33.37 308.09 37.6 308.09 37.6 303.86 39.33 302.13 43.55 302.13 43.55 297.91 45.54 295.92 38.88 295.92 38.88 298.06 37.53 299.42 32.93 299.42 32.93 304.02 31.57 305.37 26.98 305.37 26.98 309.97 25.36 311.58 23.37 309.59 23.37 305.37 19.15 305.37 17.42 303.64 17.42 299.42 13.2 299.42 11.46 297.69 11.46 295.92 5.18 295.92 5.18 295.92 7.15 297.89 7.15 302.15 11.41 302.15 13.11 303.85 13.11 308.1 17.37 308.1 19.06 309.8 19.06 314.06 23.32 314.06 25.29 316.03 23.3 318.02 18.7 318.02 18.7 322.61 17.35 323.97 12.75 323.97 12.75 328.57 11.39 329.92 6.8 329.92 6.8 334.52 5.18 336.14 5.18 340.28 7.17 338.29 11.39 338.29 11.39 334.07 13.13 332.34 17.35 332.34 17.35 328.12 19.08 326.39 23.3 326.39 23.3 322.16 25.29 320.17 27.26 322.15 27.26 326.4 31.52 326.4 33.21 328.1 33.21 332.36 37.47 332.36 39.17 334.05 39.17 338.31 43.43 338.31 45.4 340.28 43.41 342.27 38.81 342.27 38.81 346.87 37.45 348.22 32.86 348.22 32.86 352.82 31.5 354.18 26.91 354.18 26.91 358.77 25.29 360.39 23.3 358.4 23.3 354.18 19.08 354.18 17.35 352.45 17.35 348.22 13.13 348.22 11.39 346.49 11.39 342.27 7.17 342.27 5.18 340.28 5.18 344.8 7.08 346.7 7.08 350.96 11.34 350.96 13.04 352.65 13.04 356.91 17.29 356.91 18.99 358.61 18.99 362.86 23.25 362.86 25.22 364.83 23.23 366.82 18.63 366.82 18.63 371.42 17.28 372.78 12.68 372.78 12.68 377.37 11.32 378.73 6.73 378.73 6.73 383.33 5.18 384.87 5.18 390.25 7.14 388.3 11.36 388.3 11.36 384.07 13.09 382.34 17.31 382.34 17.31 378.12 19.04 376.39 23.27 376.39 23.27 372.17 25.25 370.18 27.23 372.15 27.23 376.41 31.48 376.41 33.18 378.1 33.18 382.36 37.44 382.36 39.13 384.06 39.13 388.31 43.39 388.31 45.36 390.29 43.37 392.27 38.78 392.27 38.78 396.87 37.42 398.23 32.82 398.23 32.82 402.82 31.47 404.18 26.87 404.18 26.87 408.78 25.25 410.39 23.27 408.4 23.27 404.18 19.04 404.18 17.31 402.45 17.31 398.23 13.09 398.23 11.36 396.5 11.36 392.27 7.14 392.27 5.18 390.32 5.18 394.84 7.05 396.7 7.05 400.96 11.31 400.96 13 402.66 13 406.91 17.26 406.91 18.96 408.61 18.96 412.87 23.21 412.87 25.18 414.84 23.19 416.83 18.6 416.83 18.6 421.42 17.24 422.78 12.65 422.78 12.65 427.38 11.29 428.73 6.69 428.73 6.69 433.33 5.18 434.84 5.18 438.99 7.07 437.1 11.29 437.1 11.29 432.88 13.02 431.15 17.24 431.15 17.24 426.93 18.97 425.2 23.19 425.2 23.19 420.97 25.18 418.98 27.16 420.96 27.16 425.21 31.41 425.21 33.11 426.91 33.11 431.17 37.37 431.17 39.06 432.86 39.06 437.12 43.32 437.12 45.29 439.09 43.3 441.08 38.71 441.08 38.71 445.68 37.35 447.03 32.75 447.03 32.75 451.63 31.4 452.99 26.8 452.99 26.8 457.58 25.18 459.2 23.19 457.21 23.19 452.99 18.97 452.99 17.24 451.26 17.24 447.03 13.02 447.03 11.29 445.3 11.29 441.08 7.07 441.08 5.18 439.2 5.18 443.71 6.98 445.51 6.98 449.77 11.24 449.77 12.93 451.46 12.93 455.72 17.19 455.72 18.88 457.42 18.88 461.67 23.14 461.67 25.11 463.64 23.12 465.63 18.53 465.63 18.53 470.23 17.17 471.59 12.57 471.59 12.57 476.18 11.22 477.54 6.62 477.54 6.62 482.14 5.18 483.57 5.18 488.06 7.03 486.21 11.25 486.21 11.25 481.99 12.98 480.25 17.21 480.25 17.21 476.03 18.94 474.3 23.16 474.3 23.16 470.08 25.15 468.09 27.12 470.06 27.12 474.32 31.38 474.32 33.07 476.01 33.07 480.27 37.33 480.27 39.03 481.97 39.03 486.22 43.28 486.22 45.26 488.2 43.27 490.19 38.67 490.19 38.67 494.78 37.31 496.14 32.72 496.14 32.72 500.74 31.36 502.09 26.76 502.09 26.76 506.69 25.15 508.3 23.16 506.31 23.16 502.09 18.94 502.09 17.21 500.36 17.21 496.14 12.98 496.14 11.25 494.41 11.25 490.19 7.03 490.19 5.18 488.34 5.18 492.85 6.94 494.61 6.94 498.87 11.2 498.87 12.9 500.57 12.9 504.82 17.15 504.82 18.85 506.52 18.85 510.78 23.11 510.78 25.08 512.75 23.09 514.74 18.49 514.74 18.49 519.33 17.14 520.69 12.54 520.69 12.54 525.29 11.18 526.65 6.59 526.65 6.59 531.24 5.18 532.64 5.18 536.79 6.96 535.01 11.18 535.01 11.18 530.79 12.91 529.06 17.14 529.06 17.14 524.84 18.87 523.11 23.09 523.11 23.09 518.88 25.08 516.9 27.05 518.87 27.05 523.12 31.31 523.12 33 524.82 33 529.08 37.26 529.08 38.96 530.77 38.96 535.03 43.21 535.03 45.19 537 43.2 538.99 38.6 538.99 38.6 543.59 37.24 544.95 32.65 544.95 32.65 549.54 31.29 550.9 26.69 550.9 26.69 555.49 25.08 557.11 23.09 555.12 23.09 550.9 18.87 550.9 17.14 549.17 17.14 544.95 12.91 544.95 11.18 543.21 11.18 538.99 6.96 538.99 5.18 537.21 5.18 541.73 6.87 543.42 6.87 547.68 11.13 547.68 12.83 549.37 12.83 553.63 17.08 553.63 18.78 555.33 18.78 559.58 23.04 559.58 25.01 561.56 23.02 563.54 18.42 563.54 18.42 568.14 17.06 569.5 12.47 569.5 12.47 574.09 11.11 575.45 6.52 575.45 6.52 580.05 5.18 581.38 5.18 587.6 7.17 585.62 11.39 585.62"/>
        <rect class="cls-6" x="22.31" y="337.31" width="5.95" height="5.95"/>
        <polygon class="cls-6" points="45.54 295.92 45.54 295.92 45.54 295.92 45.54 295.92"/>
      </g>
    </g>
  </g>
</svg>